<svg width="150" height="150" viewBox="0 0 150 150" fill="none" xmlns="http://www.w3.org/2000/svg">
<g id="Bank Logos/allbank">
<g id="allbank">
<g id="Line">
<path id="Vector" d="M35.2303 88.1823H15.0559V89.6277H35.2303V88.1823Z" fill="#EC5A2F"/>
<path id="Vector_2" d="M55.3836 88.1823H35.2093V89.6277H55.3836V88.1823Z" fill="#ED2C35"/>
<path id="Vector_3" d="M75.5175 88.1823H55.3431V89.6277H75.5175V88.1823Z" fill="#C273A2"/>
<path id="Vector_4" d="M95.6918 88.1823H75.5175V89.6277H95.6918V88.1823Z" fill="#91C44C"/>
<path id="Vector_5" d="M115.826 88.1823H95.6513V89.6277H115.826V88.1823Z" fill="#F6B24D"/>
<path id="Vector_6" d="M136 88.1823H115.826V89.6277H136V88.1823Z" fill="#30AADC"/>
</g>
<g id="AllBank">
<g id="Bank">
<path id="Vector_7" d="M38.7007 84.1688H32.1567L30.8261 80.031H22.8453L21.5147 84.1688H15L23.642 60.0087H30.1916L38.7007 84.1688ZM25.4045 72.0895L24.3408 75.3825H29.3613L28.2977 72.0909L26.8357 67.0343L25.4045 72.0895Z" fill="#EC3F45"/>
<path id="Vector_8" d="M45.0938 84.1688H39.1452V59H45.1008L45.0938 84.1688Z" fill="#EC3F45"/>
<path id="Vector_9" d="M53.1222 84.1688H47.1722V59H53.1222V84.1688Z" fill="#EC3F45"/>
</g>
<g id="All">
<path id="Vector_10" d="M71.9282 70.5799C73.2156 70.9555 74.3385 71.769 75.1107 72.8856C75.886 74.0033 76.2741 75.3074 76.275 76.7979C76.275 78.9638 75.5221 80.734 74.0163 82.1084C72.4649 83.4829 70.4 84.1697 67.8218 84.1687H55.536V59.2953H67.7533C70.0343 59.2953 71.8709 59.866 73.263 61.0075C74.6551 62.1489 75.3493 63.6628 75.3456 65.549C75.3456 68.1096 74.2064 69.7866 71.9282 70.5799ZM66.7567 64.4304H61.9361V68.8321H66.6589C68.392 68.8321 69.2591 68.0868 69.26 66.5963C69.2707 66.3019 69.2179 66.0088 69.1053 65.7376C68.9928 65.4664 68.8232 65.2237 68.6087 65.0268C68.1754 64.6292 67.5595 64.4304 66.7609 64.4304H66.7567ZM61.9361 78.8596H67.0013C68.0263 78.8596 68.8132 78.6147 69.362 78.1248C69.9108 77.6349 70.1848 76.9715 70.1839 76.1344C70.1839 75.2955 69.9211 74.6372 69.3956 74.1597C68.87 73.6822 68.1288 73.4444 67.1718 73.4463H61.9361V78.8596Z" fill="#64AD5C"/>
<path id="Vector_11" d="M95.7519 84.1688H89.869C89.6255 83.5388 89.4534 82.8825 89.356 82.2126C88.1223 83.9372 86.2629 84.7994 83.7778 84.7994C81.8611 84.7994 80.3325 84.2986 79.192 83.297C78.0515 82.2954 77.4812 80.9556 77.4812 79.2777C77.4812 76.3214 79.3061 74.5141 82.956 73.8558L89.117 72.7387V71.446C89.117 70.257 88.25 69.663 86.5159 69.6639C85.6717 69.6639 85.0441 69.8327 84.6332 70.1704C84.2223 70.5081 83.9716 71.0612 83.8812 71.8298L78.3701 71.6557C78.5761 69.5831 79.3406 68.0573 80.6637 67.0785C81.9869 66.0998 83.9833 65.6108 86.6529 65.6118C92.1505 65.6118 94.8993 67.8124 94.8993 72.2136V80.0054C94.9002 81.7794 95.1844 83.1672 95.7519 84.1688ZM85.6563 80.7444C86.7288 80.7444 87.5959 80.4358 88.2574 79.8184C88.919 79.2011 89.2498 78.3217 89.2498 77.1803V76.0959L85.4844 76.865C84.001 77.1912 83.2597 77.8571 83.2607 78.8625C83.2635 80.1181 84.0634 80.7459 85.6605 80.7459L85.6563 80.7444Z" fill="#64AD5C"/>
<path id="Vector_12" d="M108.598 65.6532C110.555 65.6532 112.089 66.2296 113.201 67.3825C114.312 68.5353 114.865 70.1481 114.86 72.2207V84.1688H108.974V73.619C108.974 72.7106 108.763 72.0058 108.341 71.5045C107.919 71.0032 107.32 70.753 106.544 70.754C106.121 70.7409 105.701 70.8289 105.318 71.011C104.935 71.1931 104.599 71.4642 104.337 71.8027C103.777 72.5009 103.498 73.4207 103.498 74.5621V84.1688H97.6123V66.1426H103.16L103.332 68.5524C104.538 66.6205 106.294 65.6541 108.598 65.6532Z" fill="#64AD5C"/>
<path id="Vector_13" d="M135.533 84.1687H128.545L124.336 77.0076L122.939 78.4744V84.1687H117.053V59.2953H122.94V72.1508L128.005 66.1425H135.157L128.308 73.3037L135.533 84.1687Z" fill="#64AD5C"/>
</g>
</g>
</g>
</g>
</svg>
