<svg width="150" height="150" viewBox="0 0 150 150" fill="none" xmlns="http://www.w3.org/2000/svg">
<g id="Bank Logos/aub">
<g id="aub" clip-path="url(#clip0_3421_74)">
<path id="Vector" d="M125.548 20.6167H49.5417C41.5683 20.6167 35.1333 27.6367 35.1333 36.1733V45.295C39.9 43.5183 45.0567 42.565 50.4517 42.565C74.8267 42.565 94.565 62.2817 94.565 86.6567C94.565 106.417 81.5867 123.1 63.69 128.733H125.57C133.543 128.733 140.022 121.865 140.022 113.328V36.1733C140 27.6367 133.522 20.6167 125.548 20.6167Z" fill="#E6AC4B"/>
<path id="Vector_2" d="M47.96 128.777C68.6495 128.777 85.4217 112.005 85.4217 91.315C85.4217 70.6255 68.6495 53.8533 47.96 53.8533C27.2705 53.8533 10.4983 70.6255 10.4983 91.315C10.4983 112.005 27.2705 128.777 47.96 128.777Z" fill="#E6AC4B"/>
<path id="Vector_3" d="M114.953 86.8733C114.455 87.2633 109.623 93.0483 107.998 94.8467C102.257 101.173 96.06 106.915 88.6933 111.248C79.615 116.578 65.315 124.075 54.7417 120.067C44.19 116.058 41.915 101.758 48.5017 90.47C55.5867 78.3583 69.67 66.3333 75.4333 61.8917C84.7283 54.72 93.98 48.48 104.553 43.345C106.395 42.4567 108.713 42.11 110.403 40.8967C115.408 37.3 117.943 30.3883 111.768 24.4083C106.547 19.3817 96.4717 19.3167 92.095 24.2567C90.795 25.73 90.21 26.0767 89.9717 26.2717C85.725 29.5217 81.4133 32.815 77.275 36.195C56.085 53.3767 17.8433 89.0617 37.5817 118.442C48.0033 133.955 65.6833 130.987 80.4383 122.385C88.26 117.835 95.5617 112.158 101.823 105.637C105.377 101.91 112.548 93.6333 115.473 87.285C115.668 86.8517 115.278 86.6133 114.953 86.8733Z" fill="#D34440"/>
</g>
</g>
<defs>
<clipPath id="clip0_3421_74">
<rect width="130" height="130" fill="white" transform="translate(10 10)"/>
</clipPath>
</defs>
</svg>
