<svg width="150" height="150" viewBox="0 0 150 150" fill="none" xmlns="http://www.w3.org/2000/svg">
<g id="Bank Logos/bankofcommerce">
<g id="Frame 4207">
<g id="Group 4203">
<path id="Vector" d="M71.9093 67.1216C71.9093 73.2449 71.9093 79.1888 71.9093 85.1326C71.7865 85.1594 71.6636 85.1862 71.5408 85.213C71.2694 84.7854 70.983 84.3666 70.7289 83.9291C66.3275 76.3478 59.5382 72.7201 50.9514 72.08C44.7845 71.6202 38.6176 71.1447 32.7781 68.8764C27.1013 66.6714 22.3078 63.3056 19.0123 58.0899C16.6555 54.3598 15.4515 50.2055 15.3653 45.8505C15.2019 37.5988 15.2819 29.3421 15.2776 21.0874C15.2768 19.5571 15.3691 19.4525 16.9192 19.4483C26.4053 19.4222 35.892 19.3559 45.3772 19.4418C49.1108 19.4755 52.7757 20.2326 56.2864 21.5458C64.1096 24.4721 68.7782 30.1625 70.7477 38.1499C71.5668 41.4716 71.9109 44.8571 71.9075 48.2791C71.9013 54.5001 71.9079 60.7211 71.9093 67.1216Z" fill="#E8C63D"/>
<path id="Vector_2" d="M100.79 71.8511C98.1331 72.2107 95.5887 72.3489 93.1637 72.9583C86.804 74.5567 81.9655 78.2631 78.7165 83.976C78.4826 84.3873 78.2189 84.7816 77.8174 85.428C77.687 84.894 77.5512 84.5987 77.552 84.3037C77.5868 71.1422 77.4966 57.9782 77.7436 44.8206C77.849 39.2025 79.4102 33.8565 82.8135 29.1785C85.2151 25.8774 88.379 23.5719 92.0751 21.9965C95.975 20.3342 100.107 19.4607 104.339 19.4247C113.766 19.3443 123.194 19.4081 132.622 19.4307C134.045 19.4341 134.188 19.5746 134.189 20.9702C134.196 29.1666 134.421 37.372 134.113 45.5573C133.695 56.6895 127.794 64.1939 117.624 68.4776C112.308 70.7171 106.685 71.5674 100.79 71.8511Z" fill="#E8C63D"/>
<path id="Vector_3" d="M129.046 118.36C125.683 123.206 121.198 126.426 115.832 128.38C109.22 130.787 102.465 131.052 95.6572 129.181C88.542 127.226 83.4399 122.808 80.5308 116.14C76.7807 107.542 76.8263 98.8199 80.6516 90.207C82.6792 85.6419 86.1609 82.406 90.564 80.1741C95.0011 77.925 99.7548 76.8063 104.721 76.3627C108.179 76.0539 111.649 75.5732 115.033 74.8157C122.431 73.1601 128.248 69.0301 132.693 62.9439C133.04 62.4678 133.387 61.991 133.789 61.44C134.444 62.0264 134.221 62.7121 134.223 63.3045C134.246 71.3219 134.23 79.3393 134.26 87.3566C134.273 91.0036 134.451 94.6517 134.395 98.2968C134.337 101.998 134.179 105.695 133.175 109.314C132.287 112.519 131.021 115.521 129.046 118.36Z" fill="#E8C63D"/>
<path id="Vector_4" d="M28.8852 72.9837C33.2249 74.9459 37.7299 75.6455 42.2756 76.1022C46.6391 76.5405 50.9855 77.0053 55.135 78.5413C58.658 79.8455 61.9131 81.5969 64.6255 84.2323C68.1055 87.6135 69.971 91.8459 70.9179 96.5036C72.3262 103.431 71.7887 110.191 68.727 116.631C65.1368 124.183 59.0274 128.465 50.852 129.874C44.2416 131.013 37.7783 130.376 31.6634 127.573C24.4503 124.265 19.4189 118.901 16.8901 111.307C15.7252 107.809 15.1824 104.236 15.1943 100.555C15.2345 88.1726 15.2439 75.79 15.2649 63.4074C15.2659 62.8239 15.265 62.2404 15.5931 61.5228C16.8123 62.9998 17.9491 64.5555 19.2736 65.932C20.6384 67.3505 22.0944 68.7185 23.6795 69.8797C25.2653 71.0416 27.06 71.9204 28.8852 72.9837Z" fill="#E8C63D"/>
</g>
</g>
</g>
</svg>
