<svg width="150" height="150" viewBox="0 0 150 150" fill="none" xmlns="http://www.w3.org/2000/svg">
<g id="Bank Logos/bdonetwork">
<g id="bdonetwork">
<g id="Network&#226;&#128;&#168;Bank">
<path d="M98.6345 73.3976L94.8292 67.4532V73.3976H93.1983V65.0188H95.231L98.7172 70.5613V65.0188H100.348V73.3976H98.6345Z" fill="#043673"/>
<path d="M105.851 69.8286C105.843 69.6868 105.812 69.5489 105.757 69.415C105.71 69.2732 105.631 69.1511 105.52 69.0486C105.418 68.9383 105.284 68.8517 105.119 68.7887C104.961 68.7177 104.772 68.6823 104.551 68.6823C104.347 68.6823 104.165 68.7177 104.008 68.7887C103.85 68.8596 103.716 68.9502 103.606 69.0605C103.496 69.1708 103.409 69.2929 103.346 69.4268C103.291 69.5607 103.259 69.6947 103.251 69.8286H105.851ZM107.317 71.7313C107.246 71.9834 107.132 72.2237 106.974 72.4522C106.824 72.6728 106.639 72.8658 106.419 73.0313C106.198 73.1967 105.938 73.3267 105.639 73.4212C105.347 73.5237 105.024 73.5749 104.67 73.5749C104.268 73.5749 103.886 73.5079 103.523 73.374C103.161 73.2322 102.842 73.0273 102.566 72.7594C102.29 72.4916 102.07 72.1646 101.904 71.7786C101.747 71.3925 101.668 70.9553 101.668 70.4668C101.668 70.0019 101.747 69.5804 101.904 69.2023C102.062 68.8241 102.271 68.505 102.531 68.245C102.798 67.9772 103.106 67.7723 103.452 67.6305C103.799 67.4808 104.157 67.406 104.528 67.406C105.434 67.406 106.139 67.6738 106.643 68.2096C107.147 68.7453 107.399 69.482 107.399 70.4195C107.399 70.5298 107.396 70.6362 107.388 70.7386C107.38 70.8331 107.376 70.8883 107.376 70.904H103.216C103.224 71.0931 103.267 71.2704 103.346 71.4358C103.433 71.5934 103.539 71.7313 103.665 71.8495C103.799 71.9676 103.953 72.0622 104.126 72.1331C104.299 72.1961 104.484 72.2276 104.681 72.2276C105.052 72.2276 105.339 72.1449 105.544 71.9795C105.757 71.814 105.91 71.6013 106.005 71.3413L107.317 71.7313Z" fill="#043673"/>
<path d="M110.575 67.5832H111.745V68.9777H110.575V71.4122C110.575 71.6643 110.63 71.8416 110.741 71.944C110.859 72.0386 111.032 72.0858 111.261 72.0858C111.355 72.0858 111.45 72.0819 111.544 72.074C111.639 72.0661 111.706 72.0543 111.745 72.0386V73.3385C111.674 73.37 111.564 73.4015 111.414 73.4331C111.273 73.4646 111.087 73.4803 110.859 73.4803C110.292 73.4803 109.843 73.3228 109.512 73.0076C109.181 72.6925 109.015 72.2513 109.015 71.684V68.9777H107.964V67.5832H108.259C108.566 67.5832 108.791 67.4966 108.933 67.3232C109.082 67.142 109.157 66.9214 109.157 66.6614V65.846H110.575V67.5832Z" fill="#043673"/>
<path d="M118.044 67.5832L119.296 71.3295L120.372 67.5832H121.932L120.112 73.3976H118.54L117.181 69.4268L115.846 73.3976H114.25L112.395 67.5832H114.049L115.125 71.3177L116.389 67.5832H118.044Z" fill="#043673"/>
<path d="M125.375 72.1449C125.564 72.1449 125.749 72.1095 125.93 72.0386C126.112 71.9676 126.269 71.8652 126.403 71.7313C126.537 71.5895 126.643 71.4162 126.722 71.2113C126.809 71.0065 126.852 70.7662 126.852 70.4904C126.852 70.2147 126.809 69.9744 126.722 69.7695C126.643 69.5647 126.537 69.3953 126.403 69.2614C126.269 69.1195 126.112 69.0132 125.93 68.9423C125.749 68.8714 125.564 68.8359 125.375 68.8359C125.186 68.8359 125.001 68.8714 124.82 68.9423C124.638 69.0132 124.481 69.1195 124.347 69.2614C124.213 69.3953 124.103 69.5647 124.016 69.7695C123.937 69.9744 123.898 70.2147 123.898 70.4904C123.898 70.7662 123.937 71.0065 124.016 71.2113C124.103 71.4162 124.213 71.5895 124.347 71.7313C124.481 71.8652 124.638 71.9676 124.82 72.0386C125.001 72.1095 125.186 72.1449 125.375 72.1449ZM125.375 67.406C125.808 67.406 126.21 67.4847 126.58 67.6423C126.959 67.792 127.282 68.0047 127.549 68.2805C127.825 68.5484 128.038 68.8714 128.188 69.2495C128.345 69.6277 128.424 70.0413 128.424 70.4904C128.424 70.9395 128.345 71.3531 128.188 71.7313C128.038 72.1016 127.825 72.4246 127.549 72.7004C127.282 72.9761 126.959 73.1928 126.58 73.3503C126.21 73.5 125.808 73.5749 125.375 73.5749C124.942 73.5749 124.536 73.5 124.158 73.3503C123.787 73.1928 123.464 72.9761 123.189 72.7004C122.921 72.4246 122.708 72.1016 122.55 71.7313C122.401 71.3531 122.326 70.9395 122.326 70.4904C122.326 70.0413 122.401 69.6277 122.55 69.2495C122.708 68.8714 122.921 68.5484 123.189 68.2805C123.464 68.0047 123.787 67.792 124.158 67.6423C124.536 67.4847 124.942 67.406 125.375 67.406Z" fill="#043673"/>
<path d="M133.21 69.1432C133.052 69.1117 132.895 69.0959 132.737 69.0959C132.532 69.0959 132.339 69.1235 132.158 69.1786C131.977 69.2338 131.819 69.3244 131.685 69.4504C131.552 69.5765 131.441 69.7459 131.355 69.9586C131.276 70.1635 131.236 70.4235 131.236 70.7386V73.3976H129.665V67.5832H131.189V68.4459C131.276 68.2568 131.386 68.1032 131.52 67.985C131.662 67.859 131.808 67.7644 131.957 67.7014C132.115 67.6384 132.269 67.595 132.418 67.5714C132.576 67.5478 132.718 67.536 132.844 67.536C132.907 67.536 132.966 67.5399 133.021 67.5478C133.084 67.5478 133.147 67.5517 133.21 67.5596V69.1432Z" fill="#043673"/>
<path d="M137.625 70.0295L140 73.3976H138.074L136.537 71.1759L135.887 71.8613V73.3976H134.316V64.8415H135.887V69.7459L137.896 67.5832H139.953L137.625 70.0295Z" fill="#043673"/>
<path d="M96.2119 76.0764C96.6215 76.0764 96.984 76.1355 97.2991 76.2537C97.6142 76.364 97.8782 76.5215 98.0909 76.7264C98.3115 76.9233 98.4769 77.1597 98.5872 77.4354C98.7054 77.7112 98.7645 78.0106 98.7645 78.3336C98.7645 78.7669 98.6503 79.1451 98.4218 79.4681C98.1933 79.7911 97.9018 80.0117 97.5473 80.1299C97.7521 80.1772 97.9412 80.2599 98.1145 80.3781C98.2957 80.4963 98.4533 80.642 98.5872 80.8153C98.7212 80.9808 98.8275 81.1738 98.9063 81.3944C98.9851 81.615 99.0245 81.8553 99.0245 82.1153C99.0245 82.4541 98.9615 82.7692 98.8354 83.0607C98.7172 83.3444 98.5439 83.5886 98.3154 83.7934C98.0948 83.9983 97.823 84.1598 97.5 84.278C97.1849 84.3961 96.8303 84.4552 96.4364 84.4552H93.1983V76.0764H96.2119ZM95.9637 79.539C96.3418 79.539 96.6334 79.4445 96.8382 79.2554C97.0509 79.0663 97.1573 78.8102 97.1573 78.4872C97.1573 78.1642 97.0549 77.9121 96.85 77.7309C96.6531 77.5418 96.3537 77.4473 95.9519 77.4473H94.8055V79.539H95.9637ZM96.1291 83.0962C96.5309 83.0962 96.8421 83.0016 97.0627 82.8126C97.2833 82.6156 97.3936 82.3477 97.3936 82.0089C97.3936 81.678 97.2873 81.4102 97.0746 81.2053C96.8697 80.9926 96.5624 80.8862 96.1528 80.8862H94.8055V83.0962H96.1291Z" fill="#043673"/>
<path d="M99.9271 82.8716C99.9271 82.6117 99.9704 82.3832 100.057 82.1862C100.152 81.9814 100.278 81.8041 100.435 81.6544C100.593 81.5047 100.774 81.3865 100.979 81.2999C101.192 81.2132 101.42 81.1502 101.664 81.1108L103.094 80.8981C103.26 80.8744 103.374 80.8272 103.437 80.7563C103.5 80.6775 103.532 80.5869 103.532 80.4844C103.532 80.2796 103.449 80.1023 103.283 79.9526C103.126 79.8029 102.882 79.7281 102.551 79.7281C102.204 79.7281 101.936 79.8226 101.747 80.0117C101.566 80.2008 101.463 80.4214 101.44 80.6735L100.045 80.3781C100.069 80.1496 100.14 79.9211 100.258 79.6926C100.376 79.4642 100.538 79.2593 100.743 79.0781C100.947 78.8969 101.199 78.7512 101.499 78.6409C101.798 78.5227 102.145 78.4636 102.539 78.4636C102.996 78.4636 103.386 78.5266 103.709 78.6527C104.032 78.7709 104.292 78.9324 104.489 79.1372C104.694 79.3342 104.839 79.5666 104.926 79.8345C105.021 80.1023 105.068 80.382 105.068 80.6735V83.5334C105.068 83.691 105.076 83.8604 105.091 84.0416C105.107 84.2149 105.123 84.3528 105.139 84.4552H103.697C103.681 84.3764 103.665 84.2701 103.65 84.1362C103.642 83.9943 103.638 83.8683 103.638 83.758C103.488 83.9865 103.272 84.1874 102.988 84.3607C102.712 84.534 102.358 84.6207 101.924 84.6207C101.617 84.6207 101.337 84.5695 101.085 84.4671C100.841 84.3725 100.632 84.2465 100.459 84.0889C100.286 83.9234 100.152 83.7383 100.057 83.5334C99.9704 83.3207 99.9271 83.1001 99.9271 82.8716ZM102.255 83.4507C102.421 83.4507 102.578 83.431 102.728 83.3916C102.885 83.3444 103.023 83.2695 103.142 83.1671C103.26 83.0568 103.354 82.9189 103.425 82.7535C103.496 82.5801 103.532 82.3635 103.532 82.1035V81.8435L102.22 82.0444C102.015 82.0759 101.842 82.1508 101.7 82.2689C101.566 82.3792 101.499 82.5486 101.499 82.7771C101.499 82.9504 101.562 83.108 101.688 83.2498C101.814 83.3838 102.003 83.4507 102.255 83.4507Z" fill="#043673"/>
<path d="M108.224 84.4552H106.652V78.6409H108.177V79.3617C108.358 79.0624 108.602 78.8418 108.909 78.6999C109.225 78.5581 109.54 78.4872 109.855 78.4872C110.217 78.4872 110.528 78.5503 110.788 78.6763C111.056 78.7945 111.277 78.956 111.45 79.1608C111.624 79.3657 111.75 79.6099 111.828 79.8935C111.915 80.1772 111.958 80.4766 111.958 80.7917V84.4552H110.387V81.0635C110.387 80.7326 110.3 80.4569 110.127 80.2363C109.961 80.0157 109.689 79.9054 109.311 79.9054C108.965 79.9054 108.697 80.0235 108.508 80.2599C108.318 80.4884 108.224 80.772 108.224 81.1108V84.4552Z" fill="#043673"/>
<path d="M116.863 81.0872L119.238 84.4552H117.312L115.775 82.2335L115.125 82.9189V84.4552H113.554V75.8991H115.125V80.8035L117.134 78.6409H119.191L116.863 81.0872Z" fill="#043673"/>
</g>
<path id="path2996" d="M10 62.5023V86.9084L26.7376 86.8132C28.4847 86.6362 30.4496 86.2193 31.8243 85.1491C32.6596 84.5221 33.3427 83.7147 33.8226 82.7871V86.8565L46.0068 86.7637C55.8573 86.103 59.1932 79.3055 59.1437 74.8501C59.0917 70.2055 56.012 63.0665 44.9241 62.5407L33.8251 62.4961V77.3432C33.1693 75.8944 31.7587 74.4839 28.7272 73.6413C31.0262 72.3298 32.0681 70.2834 31.8206 68.1368C31.5905 66.0941 30.7206 63.3115 25.3864 62.5877L10 62.5023ZM22.2275 65.7192C25.2849 66.2698 25.8937 68.0007 25.9011 69.3072C25.9098 70.7288 25.1055 72.5897 22.2275 72.7344L15.6844 72.7122V65.7674L22.2275 65.7192ZM39.7297 65.7414L43.297 65.7922C50.3425 65.7056 52.6179 70.6967 52.5932 74.7239C52.5722 78.0645 51.2321 83.6322 43.297 83.6112L39.6406 83.5666L39.7297 65.7414ZM24.1392 75.9414C27.2548 76.2581 28.4191 78.0732 28.4934 79.7324C28.559 81.1948 27.8747 83.3538 24.2283 83.6347H15.7054V76.0342L24.1392 75.9414Z" fill="#043673"/>
<path id="path3006" d="M69.7997 61.7871C61.8374 61.7871 55.3846 67.5961 55.3846 74.7561C55.3846 81.9161 61.8374 87.7188 69.7997 87.7188C77.7621 87.7188 84.221 81.9161 84.221 74.7561C84.221 67.5961 77.7633 61.7871 69.7997 61.7871ZM69.8777 64.712C74.472 64.712 78.1964 69.1661 78.1964 74.6657C78.1964 80.1654 74.472 84.6195 69.8777 84.6195C65.2834 84.6195 61.559 80.1654 61.559 74.6657C61.559 69.1661 65.2834 64.712 69.8777 64.712Z" fill="#FFB20C"/>
</g>
</g>
</svg>
