<svg width="150" height="150" viewBox="0 0 150 150" fill="none" xmlns="http://www.w3.org/2000/svg">
<g id="Bank Logos/bdo">
<g id="bdo">
<g id="Group 4182">
<path id="path2996" d="M9.99988 53.5427V96.2907L39.3162 96.1238C42.3763 95.8139 45.8179 95.0836 48.2257 93.2091C49.6887 92.1108 50.8851 90.6967 51.7258 89.0721V96.1996L73.0667 96.0371C90.3201 94.8799 96.163 82.9739 96.0763 75.1702C95.9853 67.035 90.591 54.5309 71.1704 53.6099L51.7302 53.5318V79.5369C50.5815 76.9992 48.1109 74.5288 42.8011 73.053C46.8279 70.7559 48.6527 67.1715 48.2192 63.4116C47.8161 59.8337 46.2926 54.96 36.9496 53.6922L9.99988 53.5427ZM31.4166 59.1771C36.7719 60.1415 37.8381 63.1732 37.8511 65.4617C37.8663 67.9516 36.4576 71.2109 31.4166 71.4645L19.9562 71.4255V59.2616L31.4166 59.1771ZM62.0723 59.2161L68.3204 59.305C80.6607 59.1533 84.6463 67.8953 84.6029 74.9492C84.5661 80.8003 82.219 90.5522 68.3204 90.5154L61.9162 90.4374L62.0723 59.2161ZM34.765 77.0816C40.2221 77.6364 42.2615 80.8155 42.3915 83.7215C42.5064 86.283 41.3079 90.0646 34.921 90.5565H19.993V77.2441L34.765 77.0816Z" fill="#0B2972"/>
<path id="path3006" d="M114.741 52.29C100.795 52.29 89.4925 62.4645 89.4925 75.0054C89.4925 87.5464 100.795 97.71 114.741 97.71C128.687 97.71 140 87.5464 140 75.0054C140 62.4645 128.689 52.29 114.741 52.29ZM114.877 57.413C122.924 57.413 129.448 65.2145 129.448 74.8472C129.448 84.4799 122.924 92.2815 114.877 92.2815C106.83 92.2815 100.307 84.4799 100.307 74.8472C100.307 65.2145 106.83 57.413 114.877 57.413Z" fill="#FFB20C"/>
</g>
</g>
</g>
</svg>
