<svg width="150" height="150" viewBox="0 0 150 150" fill="none" xmlns="http://www.w3.org/2000/svg">
<g id="Bank Logos/bpi-family">
<g id="bpi-family">
<g id="Group 4182">
<path id="Vector" d="M45.8507 86.9633C45.7249 86.5229 41.6978 69.6436 41.6978 69.6436C41.3989 68.6368 42.6573 68.5425 42.6573 68.5425V67.1581L36.2391 60.3624H34.2728L35.0908 61.1804C35.3897 61.4636 35.6728 62.2973 34.5087 62.5805H21.4521C20.288 62.2973 20.5869 61.4793 20.8701 61.1804L21.6881 60.3624H19.7532L13.3507 67.1581V68.5425C13.3507 68.5425 14.6092 68.6526 14.3103 69.6436C14.3103 69.6436 10.2517 86.5071 10.1573 86.9633C10.0315 87.5768 9.87419 88.3004 10.2675 89.2286C10.4405 89.6376 10.818 90.2196 11.8563 90.9432C13.4923 92.0916 28.0276 100.555 28.0276 100.555C28.7512 100.13 43.79 91.3522 44.7967 90.4713C45.2372 90.0466 45.5833 89.5275 45.8035 88.9454C45.9923 88.3162 46.008 87.624 45.8507 86.9633Z" fill="white"/>
<path id="Vector_2" d="M33.03 77.5248C33.1401 77.5248 33.1401 77.7293 33.03 77.7293H32.4165C32.3536 77.7293 32.3221 77.6821 32.3221 77.6349C32.3221 77.572 32.3693 77.5405 32.4165 77.5405H33.03V77.5248Z" fill="#BB932D"/>
<path id="Vector_3" d="M35.0121 81.898C34.9492 81.9452 34.902 82.0081 34.8548 82.071C34.8548 82.071 34.6188 82.1025 34.7919 81.7879C34.8705 81.6777 34.6975 81.6148 34.7447 81.489C34.8391 81.3946 34.8233 81.1586 34.9649 81.2687C34.9806 81.2373 34.9806 81.1901 34.9492 81.1429C34.9177 81.08 34.8233 81.0485 34.7604 81.08C34.6975 81.1114 34.6503 81.1586 34.6188 81.2215C34.5716 81.2687 34.4615 81.2373 34.5087 80.9698C34.5874 80.6395 34.6975 80.3091 34.8233 79.9945C34.9177 79.7428 34.8705 79.3496 34.8548 79.1451C34.8391 78.9563 34.7919 78.7675 34.7132 78.5945C34.6503 78.5158 34.6503 78.2327 34.8233 78.1698C35.0436 78.1068 35.1065 78.0282 34.902 77.981C34.6346 77.9338 34.4301 78.0911 34.4301 78.2641C34.4458 78.4057 34.4143 78.5473 34.3199 78.6574C34.2256 78.7518 34.1784 78.9248 34.0525 78.9091C33.9267 78.8934 33.9109 79.0507 33.8952 79.0979C33.8795 79.1451 33.8166 79.1451 33.7851 79.0349C33.7379 78.8776 33.7536 78.5316 33.5177 78.2169C33.3446 77.981 33.3446 77.9181 33.1873 77.9023C33.1244 77.9023 33.0772 77.9023 33.0143 77.8866C32.9356 77.8237 32.8098 77.8237 32.7311 77.9023C32.6367 77.9338 32.5424 77.9181 32.4637 77.8551C32.3536 77.8394 32.2435 77.8237 32.1176 77.8394C31.9446 77.8551 31.8187 77.9023 31.803 78.0911C31.7873 78.154 31.7873 78.2169 31.7873 78.2956C31.8345 78.5316 32.0547 78.6731 32.2907 78.6417C32.4008 78.6417 32.4952 78.7046 32.5424 78.799C32.5581 78.8619 32.5424 78.972 32.3536 78.8619C32.3536 78.8619 32.212 79.0035 32.385 79.0507C32.385 79.0507 31.7086 79.1923 31.5356 79.3496C31.3625 79.5069 31.3783 79.6485 31.5513 79.6642C31.6457 79.6799 31.7558 79.6485 31.8345 79.5855C31.9131 79.5541 32.0547 79.5383 31.9918 79.6799C31.9289 79.8058 31.803 79.9631 31.8817 80.0575C31.9603 80.1518 32.1334 80.0889 32.2277 80.0103C32.3221 79.9316 32.4165 79.853 32.5266 79.8058C32.6525 79.7428 32.6525 79.853 32.621 79.9001C32.5895 79.9631 32.5266 80.1361 32.6682 80.1676C32.8098 80.199 32.9199 80.0889 33.1244 80.026C33.3289 79.9631 33.3289 80.0103 33.1401 80.0889C32.9671 80.1518 32.8098 80.2462 32.6525 80.3563C32.5424 80.4665 32.4637 80.3406 32.448 80.2305C32.4322 80.1361 32.3693 79.9159 32.1334 80.1676C32.0075 80.3249 31.7873 80.3406 31.7715 80.1204C31.7558 79.9001 31.8502 79.7743 31.6457 79.7743C31.5356 79.79 31.4412 79.8215 31.3625 79.8844C31.2367 79.9945 31.0479 79.9945 30.9378 79.8844C30.7176 79.7271 30.4659 79.5541 30.4187 79.4125C30.3872 79.2866 30.403 79.1451 30.4659 79.0349C30.5131 78.9248 30.576 78.6102 30.2614 78.5788C30.1513 78.563 30.0097 78.6574 29.8838 78.6259C29.7423 78.5945 29.5692 78.4844 29.4119 78.5473H29.3962C29.2231 78.6102 29.1445 78.799 29.2074 78.972C29.2703 79.1765 29.3333 79.2866 29.2074 79.5226C29.0973 79.7271 29.3175 79.8687 29.4591 79.853C29.5692 79.8215 29.6951 79.8058 29.8052 79.8215C29.8996 79.8687 29.9625 79.9788 29.9625 80.0889C29.9782 80.1676 30.0569 80.2305 30.1355 80.2305C30.2142 80.2462 30.2771 80.3249 30.2928 80.4193C30.3086 80.5137 30.3558 80.6552 30.4187 80.6395C30.4973 80.608 30.5603 80.5294 30.576 80.4507H30.7018C30.7018 80.4507 30.7176 80.7811 30.985 80.7024C30.9535 80.7811 30.9693 80.8597 31.0322 80.9227C31.0322 80.9227 30.8434 80.9541 30.9063 81.08C30.9693 81.1901 31.0951 81.2373 31.221 81.2058L31.2996 81.3159C31.2367 81.2845 31.158 81.2845 31.0951 81.3002C31.0322 81.3474 30.9693 81.3946 30.9063 81.4418C30.8749 81.4103 30.8434 81.3946 30.7962 81.3946C30.7176 81.4103 30.6546 81.489 30.6704 81.5676C30.6704 81.5676 30.3872 81.8822 30.1985 81.898C30.0883 81.898 29.9782 81.8665 29.8838 81.8036C29.6479 81.7249 29.4906 81.7879 29.4119 81.9452C29.3333 82.1025 29.4434 82.2912 29.3804 82.4171C29.3175 82.5429 29.1759 82.7789 29.3333 82.9834C29.4434 83.125 29.7423 83.1407 29.9153 83.0621C30.0254 83.0149 30.1513 83.2351 30.3872 83.1564C30.7018 83.0621 30.6389 82.8418 30.6704 82.7002C30.6704 82.6059 30.7333 82.5115 30.8277 82.4957C30.9378 82.4486 31.1895 82.3542 31.221 82.1811C31.2367 82.1497 31.2682 82.1339 31.2996 82.1339C31.394 82.1025 31.5041 82.1497 31.5356 82.244C31.6614 82.48 31.8502 82.6845 32.0547 82.8418C32.2277 82.9519 32.7783 83.2666 32.9986 83.4081C32.9986 83.5182 32.9514 83.6284 32.857 83.707C32.7154 83.7857 32.4165 83.8171 32.3221 83.9273C32.212 84.0216 32.1491 84.1632 32.1334 84.3048C32.0862 84.2104 32.0862 84.116 32.1334 84.0374C32.212 83.8643 32.3693 83.7385 32.5738 83.7227C32.8412 83.6756 32.9986 83.4396 32.6525 83.298C32.4322 83.2036 32.1805 83.1407 31.9446 83.1407C31.7086 83.125 31.2682 83.1564 31.1108 83.4239C30.9535 83.6598 30.9535 83.9587 31.1266 84.1947C31.2996 84.4464 31.63 84.6509 31.63 85.0127C31.6457 85.2486 31.3783 85.5161 31.2996 85.5633C31.1738 85.7048 31.0479 85.8464 30.9063 85.988C30.7962 86.0667 30.6546 86.0824 30.5288 86.0352C30.3715 85.988 30.1985 86.0667 30.1355 86.2082C30.0883 86.3183 30.0883 86.4285 30.1355 86.5386C30.1827 86.633 30.1827 86.7273 30.1198 86.8217C30.0254 86.9633 30.0254 87.1521 30.1355 87.2937C30.3086 87.4352 30.5603 87.4352 30.7333 87.3094C30.8434 87.1993 30.8592 87.1835 30.9378 87.1993C31.0165 87.215 31.3468 87.2622 31.4569 86.9633C31.5041 86.7588 31.4569 86.633 31.5198 86.5543C31.6772 86.397 31.803 86.224 31.8974 86.0195C31.9603 85.9093 32.0862 85.8464 32.212 85.8622C32.3379 85.8936 32.4794 85.815 32.5109 85.6891C32.5424 85.5633 32.4637 85.6262 32.4008 85.5475C32.3379 85.4689 32.4165 85.4217 32.5581 85.4217C32.7311 85.4217 32.8884 85.3588 32.9986 85.2329C33.0772 85.17 33.0772 85.0599 32.9514 85.0441C32.8255 85.0284 32.7154 84.9812 32.6053 84.9183C32.5266 84.8711 32.3064 84.6509 32.6053 84.8396C32.7626 84.9183 32.9356 84.9498 33.1087 84.934C33.2974 84.9183 33.4076 84.9026 33.5334 84.9026C33.6592 84.9026 33.7379 85.0284 33.7379 85.2015C33.7222 85.3588 33.6435 85.5003 33.5177 85.5947C33.4233 85.6576 33.2345 85.8936 33.0772 86.0037C32.9828 86.0981 32.857 86.161 32.7154 86.161C32.5424 86.1768 32.1805 86.1925 32.1491 86.5228C32.1176 86.6644 32.1963 86.806 32.3379 86.8375C32.3064 87.0262 32.4008 87.1993 32.5581 87.2937C32.7311 87.4038 32.9671 87.388 33.1244 87.2465C33.2031 87.1835 33.2974 87.1678 33.3761 87.1835C33.5491 87.1993 33.7064 87.1049 33.7694 86.9476C33.848 86.7273 33.7379 86.6802 33.6907 86.57C33.6907 86.5543 33.675 86.5543 33.675 86.5386C33.6435 86.4442 33.6907 86.3341 33.8008 86.3026C33.9267 86.2712 34.0997 86.3183 34.1784 86.2554C34.2256 86.2082 34.2728 86.161 34.3042 86.0981C34.3042 86.0981 34.1154 85.8936 34.2098 85.8464C34.3042 85.7992 34.5402 85.7992 34.666 85.5947C34.7289 85.4531 34.7289 85.3902 34.6503 85.3902C34.5716 85.3902 34.3514 85.3273 34.3671 85.1543C34.4143 85.0441 34.5244 85.1071 34.6503 84.9183C34.7447 84.8082 34.9492 84.6037 34.7919 84.5408C34.6346 84.4778 34.5874 84.5408 34.4458 84.525C34.2413 84.4936 34.0368 84.3834 33.9267 84.1947C33.8008 83.9744 33.9739 84.0374 34.0525 84.0374C34.1312 84.0374 34.6188 84.0531 34.8076 83.6913C34.9334 83.4868 34.9964 83.2351 34.9492 82.9991C34.9177 82.7317 34.9334 82.4643 35.0121 82.2126C35.138 81.9609 35.0908 81.8665 35.0121 81.898ZM32.794 78.1698C32.6839 78.1698 32.6682 78.0282 32.7311 78.0124C32.8412 78.0124 32.8727 78.1698 32.794 78.1698ZM31.7244 81.8036C31.5828 81.8036 31.4884 81.6305 31.5985 81.662C31.8502 81.7564 31.8345 81.5362 31.8974 81.5362C32.0704 81.5362 31.9446 81.7879 31.7244 81.8036ZM32.0075 80.9541C31.9288 81.0328 31.8187 81.0485 31.7244 80.9856C31.6142 80.9384 31.6457 80.8597 31.7401 80.9069C31.8817 80.9698 31.9289 80.9384 31.976 80.8755C32.0704 80.7653 32.212 80.7024 32.2907 80.8283C32.4322 81.0328 32.4952 81.017 32.5738 81.0013C32.6682 80.9856 32.6682 81.0485 32.6053 81.08C32.5581 81.1114 32.4952 81.1272 32.4322 81.1272C32.3536 81.1272 32.3221 80.9698 32.2277 80.9069C32.1648 80.8755 32.0704 80.8912 32.0075 80.9541ZM32.9828 82.071C32.8727 82.0395 32.7626 82.0395 32.6367 82.0553C32.5424 82.071 32.6053 82.244 32.5109 82.2598C32.3064 82.2912 32.2749 82.0238 32.2749 82.0238C32.4952 82.2126 32.5266 82.0395 32.5424 82.0081C32.5738 81.9452 32.6525 81.898 32.7311 81.9137C33.0772 81.9294 32.9828 82.071 32.9828 82.071ZM32.9986 80.9384C32.9356 80.9227 32.8727 80.9227 32.8255 80.9698C32.7783 80.9384 32.857 80.8283 32.9828 80.8283C33.0615 80.844 33.1244 80.9069 33.1401 80.9698C33.0929 81.0013 33.0457 80.9856 32.9986 80.9384ZM34.5874 83.1092C34.4458 83.4868 34.2256 83.5025 33.9581 83.4868C33.6907 83.4711 33.5649 83.0149 33.5334 82.8733C33.5019 82.7317 33.4076 82.4485 33.4076 82.4485C33.5177 82.48 33.6278 82.5272 33.7379 82.5901C33.8952 82.6845 34.0211 82.5587 33.9424 82.4171C33.8323 82.2598 33.7222 82.1025 33.6121 81.9452C33.4547 81.7407 33.5491 81.6463 33.5491 81.6463C33.7379 81.6463 33.7222 81.5204 33.7222 81.2687C33.7222 81.08 33.6592 80.8755 33.5649 80.7182C33.5019 80.6395 33.4233 80.4822 33.4862 80.4822C33.5019 80.4822 33.5019 80.4822 33.5177 80.4822C33.6278 80.4665 33.7064 80.3721 33.7064 80.262C33.7064 80.1518 33.7379 79.853 33.7536 79.7428V79.7271C33.7694 79.6485 33.848 79.5855 33.9267 79.5855C34.084 79.6013 34.0997 79.3968 34.1784 79.208C34.1784 79.1923 34.1941 79.1765 34.1941 79.1608C34.257 79.0664 34.3829 79.0349 34.4773 79.0979C34.8391 79.2394 34.6818 79.79 34.4773 80.0732C34.2413 80.435 34.0997 80.8597 34.0683 81.3002C34.0053 81.7879 34.3671 82.3856 34.4458 82.5901C34.5087 82.8104 34.6031 82.9205 34.5874 83.1092Z" fill="#BB932D"/>
<path id="Vector_4" d="M32.6368 76.8326C32.4952 76.8956 32.1648 77.0214 31.9761 77.1001C31.8974 77.1315 31.8502 77.2416 31.8817 77.3203C31.8817 77.336 31.8974 77.3517 31.8974 77.3517C31.9761 77.3675 32.0547 77.336 32.0705 77.2574C32.0862 77.3517 32.1648 77.4147 32.275 77.4147C32.3693 77.4304 32.4637 77.3675 32.4795 77.2574C32.5109 77.3517 32.6053 77.4147 32.6997 77.4147C32.7941 77.4147 32.8885 77.3517 32.9199 77.2574C32.9356 77.3517 33.03 77.4304 33.1402 77.4147C33.2345 77.4147 33.3132 77.3517 33.3289 77.2574C33.3604 77.3203 33.439 77.3675 33.502 77.3517C33.5649 77.2731 33.5492 77.163 33.4705 77.1158C33.4548 77.1001 33.4548 77.1001 33.439 77.1001C33.2503 77.0214 32.9042 76.8956 32.7783 76.8326C32.7311 76.8169 32.684 76.8169 32.6368 76.8326Z" fill="#BB932D"/>
<g id="Group">
<path id="Vector_5" d="M14.9254 76.8328C15.1774 76.8319 15.3809 76.627 15.38 76.375C15.3792 76.1231 15.1742 75.9195 14.9223 75.9204C14.6703 75.9213 14.4668 76.1262 14.4676 76.3782C14.4685 76.6301 14.6735 76.8337 14.9254 76.8328Z" fill="#BB932D"/>
<path id="Vector_6" d="M18.5576 76.8169C18.8093 76.8169 19.0138 76.6124 19.0138 76.3607C19.0138 76.109 18.8093 75.9045 18.5576 75.9045C18.3059 75.9045 18.1014 76.109 18.1014 76.3607C18.1014 76.6281 18.3059 76.8169 18.5576 76.8169Z" fill="#BB932D"/>
<path id="Vector_7" d="M12.9574 86.7274C13.3918 86.7274 13.744 86.3752 13.744 85.9408C13.744 85.5064 13.3918 85.1543 12.9574 85.1543C12.523 85.1543 12.1709 85.5064 12.1709 85.9408C12.1709 86.3752 12.523 86.7274 12.9574 86.7274Z" fill="#BB932D"/>
<path id="Vector_8" d="M18.243 85.1543C17.8025 85.1543 17.4564 85.5003 17.4564 85.9408C17.4564 86.3813 17.8182 86.7274 18.243 86.7274C18.6834 86.7274 19.0295 86.3813 19.0295 85.9408C19.0295 85.5003 18.6834 85.1543 18.243 85.1543Z" fill="#BB932D"/>
<path id="Vector_9" d="M18.4947 78.2484C18.7779 78.2484 18.9981 78.0125 18.9981 77.7293C18.9981 77.4462 18.7621 77.2259 18.479 77.2259C18.1958 77.2259 17.9756 77.4619 17.9756 77.7293C17.9913 78.0125 18.2273 78.2484 18.4947 78.2484Z" fill="#BB932D"/>
<path id="Vector_10" d="M18.4632 79.8058C18.7778 79.8058 19.0295 79.5541 19.0295 79.2395C19.0295 78.9248 18.7778 78.6732 18.4632 78.6732C18.1485 78.6732 17.8969 78.9248 17.8969 79.2395C17.8969 79.5541 18.1485 79.8058 18.4632 79.8058Z" fill="#BB932D"/>
<path id="Vector_11" d="M18.4002 80.1204C18.0542 80.1204 17.7867 80.4035 17.771 80.7339C17.771 81.08 18.0384 81.3474 18.3845 81.3631C18.7306 81.3631 18.998 81.08 19.0137 80.7496C19.0295 80.3878 18.7463 80.1204 18.4002 80.1204Z" fill="#BB932D"/>
<path id="Vector_12" d="M18.3373 81.7407C17.9598 81.7407 17.6609 82.0395 17.6609 82.4171C17.6609 82.7946 17.9598 83.0935 18.3373 83.0935C18.7149 83.0935 19.0137 82.7946 19.0137 82.4171C19.0137 82.0395 18.7149 81.7407 18.3373 81.7407Z" fill="#BB932D"/>
<path id="Vector_13" d="M18.2744 83.3452C17.8654 83.3452 17.5508 83.6756 17.5508 84.0688C17.5508 84.4778 17.8811 84.7925 18.2744 84.7925C18.6834 84.7925 18.998 84.4621 18.998 84.0688C19.0138 83.6756 18.6834 83.3609 18.2744 83.3452Z" fill="#BB932D"/>
<path id="Vector_14" d="M14.6248 78.2484C14.908 78.2484 15.144 78.0125 15.1282 77.7293C15.1282 77.4462 14.8923 77.2259 14.6091 77.2259C14.3259 77.2259 14.1057 77.4619 14.1057 77.745C14.1057 78.0282 14.3417 78.2484 14.6248 78.2484Z" fill="#BB932D"/>
<path id="Vector_15" d="M14.2631 79.8058C14.5777 79.8058 14.8294 79.5541 14.8294 79.2395C14.8294 78.9248 14.5777 78.6732 14.2631 78.6732C13.9485 78.6732 13.6968 78.9248 13.6968 79.2395C13.6968 79.5541 13.9485 79.8058 14.2631 79.8058Z" fill="#BB932D"/>
<path id="Vector_16" d="M13.9642 81.3474C14.3102 81.3474 14.5934 81.0642 14.5934 80.7339C14.5934 80.3878 14.3102 80.1204 13.9799 80.1204C13.6338 80.1204 13.3664 80.4035 13.3664 80.7339C13.3507 81.08 13.6181 81.3474 13.9642 81.3474Z" fill="#BB932D"/>
<path id="Vector_17" d="M13.6023 83.0935C13.9799 83.0935 14.2788 82.7946 14.2788 82.4171C14.2788 82.0395 13.9799 81.7407 13.6023 81.7407C13.2248 81.7407 12.9259 82.0395 12.9259 82.4171C12.9416 82.7946 13.2405 83.0935 13.6023 83.0935Z" fill="#BB932D"/>
<path id="Vector_18" d="M13.2721 83.3452C12.8631 83.3452 12.5485 83.6756 12.5485 84.0688C12.5485 84.4778 12.8788 84.7925 13.2721 84.7925C13.6811 84.7925 13.9957 84.4621 13.9957 84.0688C13.9957 83.6756 13.6811 83.3452 13.2721 83.3452Z" fill="#BB932D"/>
<path id="Vector_19" d="M16.1193 76.8169C16.371 76.8169 16.5755 76.6124 16.5755 76.3607C16.5755 76.109 16.371 75.9045 16.1193 75.9045C15.8676 75.9045 15.6631 76.109 15.6631 76.3607C15.6788 76.6281 15.8676 76.8169 16.1193 76.8169Z" fill="#BB932D"/>
<path id="Vector_20" d="M17.3463 76.8169C17.598 76.8169 17.8025 76.6124 17.8025 76.3607C17.8025 76.109 17.598 75.9045 17.3463 75.9045C17.0946 75.9045 16.8901 76.109 16.8901 76.3607C16.8901 76.6281 17.0946 76.8169 17.3463 76.8169Z" fill="#BB932D"/>
<path id="Vector_21" d="M15.9149 78.2484C16.198 78.2484 16.434 78.0125 16.4183 77.7293C16.4183 77.4462 16.1823 77.2259 15.8991 77.2259C15.616 77.2259 15.3958 77.4619 15.3958 77.745C15.4115 78.0125 15.6317 78.2484 15.9149 78.2484Z" fill="#BB932D"/>
<path id="Vector_22" d="M17.2048 78.2484C17.488 78.2484 17.7082 78.0125 17.7082 77.7293C17.7082 77.4462 17.4722 77.2259 17.2048 77.2259C16.9216 77.2259 16.7014 77.4619 16.7014 77.7293C16.7014 78.0282 16.9374 78.2484 17.2048 78.2484Z" fill="#BB932D"/>
<path id="Vector_23" d="M15.6631 78.6732C15.3485 78.6732 15.0968 78.9248 15.0968 79.2395C15.0968 79.5541 15.3485 79.8058 15.6631 79.8058C15.9777 79.8058 16.2294 79.5541 16.2294 79.2395C16.2294 78.9248 15.962 78.6732 15.6631 78.6732Z" fill="#BB932D"/>
<path id="Vector_24" d="M16.4968 79.2395C16.4968 79.5541 16.7485 79.8058 17.0631 79.8058C17.3778 79.8058 17.6294 79.5541 17.6294 79.2395C17.6294 78.9248 17.3778 78.6732 17.0631 78.6732C16.7485 78.6732 16.4968 78.9248 16.4968 79.2395Z" fill="#BB932D"/>
<path id="Vector_25" d="M16.0564 80.7339C16.0564 80.3878 15.7732 80.1204 15.4428 80.1204C15.1125 80.1204 14.8293 80.4035 14.8293 80.7339C14.8293 81.08 15.0968 81.3474 15.4428 81.3474C15.7732 81.3474 16.0564 81.08 16.0564 80.7339Z" fill="#BB932D"/>
<path id="Vector_26" d="M16.9216 80.1047C16.5755 80.1047 16.3081 80.3878 16.3081 80.7182C16.3081 81.0643 16.5755 81.3317 16.9216 81.3317C17.2677 81.3317 17.5351 81.0485 17.5351 80.7182C17.5351 80.3878 17.252 80.1047 16.9216 80.1047Z" fill="#BB932D"/>
<path id="Vector_27" d="M14.5147 82.4328C14.5147 82.8104 14.8136 83.1093 15.1912 83.1093C15.5687 83.1093 15.8676 82.8104 15.8676 82.4328C15.8676 82.0553 15.5687 81.7564 15.1912 81.7564C14.8136 81.7564 14.499 82.0553 14.5147 82.4328Z" fill="#BB932D"/>
<path id="Vector_28" d="M16.7486 81.7407C16.371 81.7407 16.0721 82.0395 16.0721 82.4171C16.0721 82.7789 16.371 83.0778 16.7486 83.0935C17.1261 83.0935 17.425 82.7946 17.425 82.4171C17.425 82.0395 17.1261 81.7407 16.7486 81.7407Z" fill="#BB932D"/>
<path id="Vector_29" d="M14.9394 83.3452C14.5304 83.3452 14.2158 83.6756 14.2158 84.0688C14.2158 84.4778 14.5304 84.7925 14.9394 84.8082C15.3484 84.8082 15.6631 84.4778 15.6631 84.0846C15.6631 83.6913 15.3484 83.3452 14.9394 83.3452Z" fill="#BB932D"/>
<path id="Vector_30" d="M16.6069 83.361C16.1979 83.361 15.8833 83.6913 15.8833 84.0846C15.8833 84.4936 16.2136 84.8082 16.6069 84.8082C17.0159 84.8082 17.3305 84.4779 17.3305 84.0846C17.3305 83.6756 17.0002 83.361 16.6069 83.361Z" fill="#BB932D"/>
<path id="Vector_31" d="M14.7193 86.7274C15.1537 86.7274 15.5058 86.3752 15.5058 85.9408C15.5058 85.5064 15.1537 85.1543 14.7193 85.1543C14.2849 85.1543 13.9327 85.5064 13.9327 85.9408C13.9327 86.3752 14.2849 86.7274 14.7193 86.7274Z" fill="#BB932D"/>
<path id="Vector_32" d="M16.4811 86.7274C16.9155 86.7274 17.2677 86.3752 17.2677 85.9408C17.2677 85.5064 16.9155 85.1543 16.4811 85.1543C16.0467 85.1543 15.6946 85.5064 15.6946 85.9408C15.6946 86.3752 16.0467 86.7274 16.4811 86.7274Z" fill="#BB932D"/>
</g>
<g id="Group_2">
<path id="Vector_33" d="M40.6123 76.3765C40.6123 76.1248 40.8168 75.9203 41.0685 75.9203C41.3202 75.9203 41.5247 76.1248 41.5247 76.3765C41.5247 76.6281 41.3202 76.8326 41.0685 76.8326C40.8168 76.8169 40.6123 76.6281 40.6123 76.3765Z" fill="#BB932D"/>
<path id="Vector_34" d="M36.9785 76.3765C36.9785 76.1248 37.183 75.9203 37.4347 75.9203C37.6864 75.9203 37.8909 76.1248 37.8909 76.3765C37.8909 76.6281 37.6864 76.8326 37.4347 76.8326C37.183 76.8169 36.9785 76.6281 36.9785 76.3765Z" fill="#BB932D"/>
<path id="Vector_35" d="M42.2483 85.9408C42.2483 85.5004 42.5944 85.1543 43.0348 85.1543C43.4753 85.1543 43.8214 85.5004 43.8214 85.9408C43.8214 86.3813 43.4753 86.7274 43.0348 86.7274C42.6101 86.7117 42.2483 86.3656 42.2483 85.9408Z" fill="#BB932D"/>
<path id="Vector_36" d="M36.9628 85.9408C36.9628 85.5004 37.3088 85.1543 37.7493 85.1543C38.1898 85.1543 38.5359 85.5004 38.5359 85.9408C38.5359 86.3813 38.1898 86.7274 37.7493 86.7274C37.3088 86.7274 36.9628 86.3656 36.9628 85.9408Z" fill="#BB932D"/>
<path id="Vector_37" d="M40.864 77.745C40.864 77.4619 41.0842 77.2259 41.3674 77.2259C41.6506 77.2259 41.8865 77.4462 41.8865 77.7293C41.8865 78.0125 41.6663 78.2484 41.3831 78.2484C41.0842 78.2484 40.864 78.0125 40.864 77.745Z" fill="#BB932D"/>
<path id="Vector_38" d="M36.9785 77.745C36.9785 77.4619 37.1987 77.2416 37.4819 77.2416C37.7651 77.2416 37.9853 77.4619 37.9853 77.745C37.9853 78.0282 37.7651 78.2484 37.4819 78.2484C37.1987 78.2484 36.9785 78.0125 36.9785 77.745Z" fill="#BB932D"/>
<path id="Vector_39" d="M41.163 79.2395C41.163 78.9248 41.4147 78.6732 41.7293 78.6732C42.0439 78.6732 42.2956 78.9248 42.2956 79.2395C42.2956 79.5541 42.0439 79.8058 41.7293 79.8058C41.4147 79.8058 41.163 79.5541 41.163 79.2395Z" fill="#BB932D"/>
<path id="Vector_40" d="M36.9628 79.2395C36.9628 78.9248 37.2145 78.6732 37.5291 78.6732C37.8437 78.6732 38.0954 78.9248 38.0954 79.2395C38.0954 79.5541 37.8437 79.8058 37.5291 79.8058C37.2145 79.8058 36.9628 79.5541 36.9628 79.2395Z" fill="#BB932D"/>
<path id="Vector_41" d="M41.3989 80.7339C41.3989 80.3878 41.6821 80.1204 42.0124 80.1204C42.3585 80.1204 42.6259 80.4035 42.6259 80.7339C42.6259 81.08 42.3428 81.3474 42.0124 81.3474C41.6821 81.3474 41.3989 81.08 41.3989 80.7339Z" fill="#BB932D"/>
<path id="Vector_42" d="M36.9628 80.7339C36.9628 80.3878 37.2459 80.1204 37.5763 80.1204C37.9066 80.1204 38.1898 80.4035 38.1898 80.7339C38.1898 81.08 37.9066 81.3474 37.5763 81.3474C37.2459 81.3474 36.9628 81.08 36.9628 80.7339Z" fill="#BB932D"/>
<path id="Vector_43" d="M41.7135 82.4171C41.7135 82.0396 42.0124 81.7407 42.3899 81.7407C42.7675 81.7407 43.0664 82.0396 43.0664 82.4171C43.0664 82.7947 42.7675 83.0935 42.3899 83.0935C42.0124 83.0935 41.7135 82.7947 41.7135 82.4171Z" fill="#BB932D"/>
<path id="Vector_44" d="M36.9785 82.4171C36.9785 82.0396 37.2774 81.7407 37.6549 81.7407C38.0325 81.7407 38.3314 82.0396 38.3314 82.4171C38.3314 82.7947 38.0325 83.0935 37.6549 83.0935C37.2774 83.0935 36.9785 82.7947 36.9785 82.4171Z" fill="#BB932D"/>
<path id="Vector_45" d="M41.981 84.0846C41.981 83.6756 42.3113 83.361 42.7046 83.361C43.0978 83.361 43.4282 83.6913 43.4282 84.0846C43.4282 84.4779 43.0978 84.8082 42.7046 84.8082C42.3113 84.8082 41.981 84.4779 41.981 84.0846Z" fill="#BB932D"/>
<path id="Vector_46" d="M36.9785 84.0846C36.9785 83.6756 37.3089 83.361 37.7021 83.361C38.0954 83.361 38.4258 83.6913 38.4258 84.0846C38.4258 84.4779 38.0954 84.8082 37.7021 84.8082C37.3089 84.8082 36.9785 84.4779 36.9785 84.0846Z" fill="#BB932D"/>
<path id="Vector_47" d="M39.401 76.3765C39.401 76.1248 39.6055 75.9203 39.8572 75.9203C40.1089 75.9203 40.3134 76.1248 40.3134 76.3765C40.3134 76.6281 40.1089 76.8326 39.8572 76.8326C39.6055 76.8326 39.401 76.6281 39.401 76.3765Z" fill="#BB932D"/>
<path id="Vector_48" d="M38.1898 76.3765C38.1898 76.1248 38.3943 75.9203 38.646 75.9203C38.8977 75.9203 39.1022 76.1248 39.1022 76.3765C39.1022 76.6281 38.8977 76.8326 38.646 76.8326C38.3943 76.8169 38.1898 76.6281 38.1898 76.3765Z" fill="#BB932D"/>
<path id="Vector_49" d="M39.5583 77.745C39.5583 77.4619 39.7786 77.2416 40.0617 77.2416C40.3449 77.2416 40.5651 77.4619 40.5651 77.745C40.5651 78.0282 40.3449 78.2484 40.0617 78.2484C39.7943 78.2484 39.5583 78.0125 39.5583 77.745Z" fill="#BB932D"/>
<path id="Vector_50" d="M38.2684 77.745C38.2684 77.4619 38.4887 77.2259 38.7718 77.2259C39.055 77.2259 39.2909 77.4462 39.2909 77.7293C39.2909 78.0125 39.0707 78.2484 38.7876 78.2484C38.5044 78.2484 38.2684 78.0125 38.2684 77.745Z" fill="#BB932D"/>
<path id="Vector_51" d="M39.7628 79.2395C39.7628 78.9248 40.0145 78.6732 40.3291 78.6732C40.6437 78.6732 40.8954 78.9248 40.8954 79.2395C40.8954 79.5541 40.6437 79.8058 40.3291 79.8058C40.0145 79.8058 39.7628 79.5541 39.7628 79.2395Z" fill="#BB932D"/>
<path id="Vector_52" d="M38.3628 79.2395C38.3628 78.9248 38.6145 78.6732 38.9291 78.6732C39.2437 78.6732 39.4954 78.9248 39.4954 79.2395C39.4954 79.5541 39.2437 79.8058 38.9291 79.8058C38.6145 79.8058 38.3628 79.5541 38.3628 79.2395Z" fill="#BB932D"/>
<path id="Vector_53" d="M39.9202 80.7339C39.9202 80.3878 40.2033 80.1204 40.5337 80.1204C40.8798 80.1204 41.1472 80.4035 41.1472 80.7339C41.1472 81.08 40.864 81.3474 40.5337 81.3474C40.2033 81.3474 39.9202 81.08 39.9202 80.7339Z" fill="#BB932D"/>
<path id="Vector_54" d="M38.4415 80.7339C38.4415 80.3878 38.7247 80.1204 39.055 80.1204C39.3854 80.1204 39.6685 80.4035 39.6685 80.7339C39.6685 81.08 39.3854 81.3474 39.055 81.3474C38.7247 81.3474 38.4415 81.08 38.4415 80.7339Z" fill="#BB932D"/>
<path id="Vector_55" d="M40.1246 82.4171C40.1246 82.0396 40.4235 81.7407 40.8011 81.7407C41.1786 81.7407 41.4775 82.0396 41.4775 82.4171C41.4775 82.7947 41.1786 83.0935 40.8011 83.0935C40.4393 83.0935 40.1404 82.7947 40.1246 82.4171Z" fill="#BB932D"/>
<path id="Vector_56" d="M38.5516 82.4171C38.5516 82.0396 38.8505 81.7407 39.2281 81.7407C39.6056 81.7407 39.9045 82.0396 39.9045 82.4171C39.9045 82.7947 39.6056 83.0935 39.2281 83.0935C38.8663 83.0935 38.5516 82.7947 38.5516 82.4171C38.5516 82.4329 38.5516 82.4329 38.5516 82.4171Z" fill="#BB932D"/>
<path id="Vector_57" d="M40.3292 84.0846C40.3292 83.6756 40.6595 83.361 41.0528 83.361C41.4461 83.361 41.7764 83.6913 41.7764 84.0846C41.7764 84.4779 41.4461 84.8082 41.0528 84.8082C40.6438 84.8082 40.3135 84.4936 40.3292 84.0846C40.3135 84.0846 40.3135 84.0846 40.3292 84.0846Z" fill="#BB932D"/>
<path id="Vector_58" d="M38.6617 84.0846C38.6617 83.6756 38.992 83.361 39.3853 83.361C39.7786 83.361 40.1089 83.6913 40.1089 84.0846C40.1089 84.4779 39.7786 84.8082 39.3853 84.8082C38.9763 84.8082 38.646 84.4936 38.6617 84.0846C38.646 84.0846 38.646 84.0846 38.6617 84.0846Z" fill="#BB932D"/>
<path id="Vector_59" d="M40.5023 85.9408C40.5023 85.5004 40.8484 85.1543 41.2888 85.1543C41.7293 85.1543 42.0754 85.5004 42.0754 85.9408C42.0754 86.3813 41.7293 86.7274 41.2888 86.7274C40.8484 86.7274 40.5023 86.3813 40.5023 85.9408C40.4865 85.9408 40.4865 85.9408 40.5023 85.9408Z" fill="#BB932D"/>
<path id="Vector_60" d="M38.7403 85.9408C38.7403 85.5004 39.0864 85.1543 39.5269 85.1543C39.9673 85.1543 40.3134 85.5004 40.3134 85.9408C40.3134 86.3813 39.9673 86.7274 39.5269 86.7274C39.0864 86.7274 38.7246 86.3813 38.7403 85.9408C38.7246 85.9408 38.7246 85.9408 38.7403 85.9408Z" fill="#BB932D"/>
</g>
<path id="Vector_61" d="M33.0772 65.003H31.7872V70.4774H33.0772V65.003Z" fill="#BB932D"/>
<path id="Vector_62" d="M29.113 64.9244C28.5467 64.9086 27.9804 65.0187 27.4456 65.239V70.4774H28.704V68.4166L28.8771 68.4323C30.5288 68.5897 31.2052 67.7087 31.2052 66.6862C31.221 65.6952 30.6389 64.9244 29.113 64.9244ZM28.8928 67.6773L28.7198 67.6615V65.7109C28.8456 65.6637 28.9715 65.648 29.113 65.648C29.758 65.648 29.994 65.9783 29.994 66.6548C29.994 67.3784 29.7108 67.7245 28.8928 67.6773Z" fill="#BB932D"/>
<path id="Vector_63" d="M25.7466 67.5986C26.1871 67.4728 26.7219 67.0952 26.7219 66.3716C26.7219 65.5536 26.0455 64.9086 24.614 64.9086C23.9061 64.9086 23.2926 65.0345 22.9308 65.2232V70.2257C23.3398 70.4302 23.9218 70.5403 24.6769 70.5403C26.0298 70.5403 26.8792 70.0526 26.8792 68.9515C26.8792 68.2121 26.2343 67.7245 25.7466 67.5986ZM24.1421 65.7109C24.2994 65.6637 24.4567 65.648 24.614 65.648C25.196 65.648 25.4792 65.9154 25.4792 66.466C25.4792 67.0638 25.2118 67.3312 24.3938 67.3312H24.1263V65.7109H24.1421ZM24.6455 69.7852C24.4724 69.7852 24.3151 69.7695 24.1578 69.7065V67.9447H24.4095C25.2904 67.9447 25.5893 68.2593 25.5893 68.92C25.5893 69.5492 25.2432 69.7852 24.6455 69.7852Z" fill="#BB932D"/>
<path id="Vector_64" d="M31.6929 78.7833C31.7873 78.8462 32.0075 78.7833 32.1491 78.799C32.3221 78.8147 32.2906 79.0192 32.1019 79.0035C31.976 78.9878 31.7086 78.972 31.63 78.972C31.5198 78.9563 31.4412 78.8776 31.394 78.7675C31.3625 78.6731 31.2839 78.6259 31.1895 78.6102C31.0794 78.5788 31.1266 78.4372 31.2996 78.4529C31.5356 78.4686 31.4884 78.6417 31.6929 78.7833Z" fill="#BB932D"/>
<g id="Group_3">
<path id="Vector_65" d="M25.1488 78.626L25.7466 76.8798C25.4319 76.7854 25.0859 76.8641 24.8342 77.0843C24.6611 76.8641 24.378 76.5967 24.0633 76.5967C23.7487 76.5967 23.4656 76.8641 23.2925 77.0843C23.0408 76.8798 22.7105 76.8012 22.3959 76.8798L23.0094 78.626H25.1488Z" fill="#BB932D"/>
<path id="Vector_66" d="M25.1646 78.8305H22.9937L22.2386 85.2015H25.9197L25.1646 78.8305ZM23.6859 80.5137H24.4882V80.7968H23.6859V80.5137ZM24.5354 83.0621H23.6387V82.716H24.5354V83.0621Z" fill="#BB932D"/>
<path id="Vector_67" d="M25.1331 86.6802V87.0892H26.3286V85.815H21.8296V87.1049H23.0409V86.6959H25.1173L25.1331 86.6802Z" fill="#BB932D"/>
</g>
<path id="Vector_68" d="M45.8507 86.9633C45.7249 86.5229 41.6978 69.6436 41.6978 69.6436C41.3989 68.6368 42.6573 68.5425 42.6573 68.5425V67.1581L36.2391 60.3624H34.2728L35.0908 61.1804C35.3897 61.4636 35.6728 62.2973 34.5087 62.5805H21.4521C20.288 62.2973 20.5869 61.4793 20.8701 61.1804L21.6881 60.3624H19.7532L13.3507 67.1581V68.5425C13.3507 68.5425 14.6092 68.6526 14.3103 69.6436C14.3103 69.6436 10.2517 86.5071 10.1573 86.9633C10.0315 87.5768 9.87419 88.3004 10.2675 89.2286C10.4405 89.6376 10.818 90.2196 11.8563 90.9432C13.4923 92.0916 28.0276 100.555 28.0276 100.555C28.7512 100.13 43.79 91.3522 44.7967 90.4713C45.2372 90.0466 45.5833 89.5275 45.8035 88.9454C45.9923 88.3162 46.008 87.624 45.8507 86.9633ZM19.4543 62.722C19.5959 63.7917 20.1307 64.0749 20.76 64.0749H35.2638C35.8931 64.0749 36.4279 63.7917 36.5695 62.722L40.9741 67.4098C40.9741 67.4098 39.6213 68.1335 40.1089 69.6751L40.5179 71.3897L15.5058 71.4055L15.9306 69.6751C16.4182 68.1335 15.0654 67.4098 15.0654 67.4098L19.4543 62.722ZM15.1598 72.7583L40.8326 72.7426L41.1944 74.1741H14.798L15.1598 72.7583ZM35.311 75.5584V86.8217C35.311 87.6083 34.8706 88.3162 34.1784 88.6937L28.7198 91.8084V75.5584H35.311ZM27.3669 75.5584L27.3512 91.7612L21.8139 88.6937C21.1218 88.3319 20.697 87.6083 20.6813 86.8217V75.5584H27.3669ZM11.699 86.9948C11.7304 86.7116 11.7934 86.4285 11.8563 86.161C11.9664 85.6734 13.3507 80.0732 14.4676 75.5427H19.1397V87.0105H11.699V86.9948ZM43.4596 89.6376C42.6416 90.2983 27.9962 98.7772 27.9962 98.7772C27.9962 98.7772 13.3507 90.2668 12.5327 89.6218C12.1394 89.323 11.8877 89.0241 11.8563 88.5364H19.297C19.9891 89.3859 20.8701 89.8106 21.7195 90.2825C22.5533 90.7387 27.9962 93.8534 27.9962 93.8534C27.9962 93.8534 33.439 90.7387 34.2885 90.2825C35.138 89.8263 36.0189 89.4016 36.7111 88.5521H44.2147C44.0731 88.9611 43.8057 89.3544 43.4596 89.6376ZM36.8526 86.9948V75.5427H41.5247C42.6416 80.0889 44.0259 85.6891 44.136 86.161C44.199 86.4442 44.2619 86.7116 44.2934 86.9948H36.8526Z" fill="#BB932D"/>
<g id="Group_4">
<path id="Vector_69" d="M63.4063 69.7695C63.4063 72.5696 61.4714 73.9539 57.6016 73.9539C55.6195 73.9539 54.0779 73.6707 52.9924 73.1202V59.9691C54.0621 59.4028 55.5408 59.1354 57.4285 59.1354C59.2376 59.1354 60.6376 59.5129 61.613 60.2523C62.4939 60.8815 62.9973 61.904 62.9815 62.9737C62.9973 63.7917 62.6827 64.5783 62.1163 65.1603C61.6601 65.6637 61.0624 66.0098 60.4017 66.1671V66.2143C61.1568 66.4188 61.8489 66.8121 62.3995 67.3941C63.0445 68.0076 63.4063 68.8728 63.4063 69.7695ZM59.741 63.194C59.741 61.7625 58.9859 61.0388 57.4757 61.0388C57.0667 61.0231 56.642 61.086 56.2487 61.2119V65.4592H56.9094C57.9477 65.4592 58.687 65.2862 59.1117 64.9244C59.5365 64.5626 59.7567 63.9805 59.741 63.194ZM60.0241 69.6436C60.0241 68.7627 59.7882 68.1177 59.3162 67.7087C58.8443 67.2997 58.042 67.0952 56.9252 67.0952H56.2487V71.7358C56.6577 71.8774 57.0982 71.9561 57.5387 71.9403C59.1904 71.9403 60.0241 71.1695 60.0241 69.6436Z" fill="#AD1F23"/>
<path id="Vector_70" d="M74.7482 63.7446C74.7482 65.0974 74.3392 66.1986 73.5055 67.0166C72.5931 67.9604 71.2717 68.4166 69.5413 68.4166C69.2267 68.4166 68.912 68.4009 68.5974 68.3694L68.1412 68.3222V73.7494H64.8063V59.9691C65.9546 59.4028 67.4176 59.1354 69.1952 59.1354C71.0986 59.1354 72.5144 59.5759 73.474 60.4725C74.3235 61.2591 74.7482 62.3602 74.7482 63.7446ZM71.5076 63.7131C71.5076 62.785 71.3346 62.1243 70.9728 61.6838C70.611 61.2433 70.0132 61.0388 69.1795 61.0388C68.8334 61.0231 68.4873 61.086 68.157 61.2119V66.3873H68.6131C69.6514 66.4345 70.3907 66.23 70.8469 65.8053C71.2874 65.3806 71.5076 64.6884 71.5076 63.7131Z" fill="#AD1F23"/>
<path id="Vector_71" d="M79.5147 73.7494H76.1168V59.3399H79.5147V73.7494Z" fill="#AD1F23"/>
<path id="Vector_72" d="M93.6252 61.1332H89.2835V65.4907H93.1376V67.2368H89.2835V73.7809H86.625V59.3557H93.6252V61.1332Z" fill="#AD1F23"/>
<path id="Vector_73" d="M102.576 73.1674C101.554 73.7179 100.185 73.9854 98.4861 73.9854C95.4186 73.9854 93.877 72.837 93.877 70.5403C93.877 69.1717 94.5062 68.1492 95.7489 67.4571C96.7242 66.9222 98.2187 66.5604 100.201 66.3716V65.7581C100.201 64.5154 99.4457 63.8861 97.9512 63.8861C96.9602 63.9019 96.0006 64.1378 95.1197 64.5783L94.5377 63.1153C95.7489 62.5333 97.0703 62.2344 98.4232 62.2501C101.208 62.2501 102.592 63.5558 102.592 66.1514V73.1674H102.576ZM100.185 72.255V67.5986C98.8322 67.7717 97.8883 68.0234 97.322 68.3694C96.6141 68.8099 96.268 69.5021 96.268 70.4617C96.268 71.8617 97.0546 72.5539 98.6434 72.5539C99.1783 72.5696 99.6974 72.4752 100.185 72.255Z" fill="#AD1F23"/>
<path id="Vector_74" d="M119.77 73.7809H117.206V65.7581C117.206 64.5311 116.577 63.9176 115.302 63.9176C114.595 63.9019 113.902 64.185 113.415 64.6884V73.7809H110.851V65.7109C110.851 64.5154 110.143 63.9176 108.727 63.9176C108.145 63.9176 107.579 64.012 107.044 64.2322V73.7966H104.48V63.0996C105.612 62.5647 107.028 62.2816 108.711 62.2816C110.3 62.2816 111.48 62.6906 112.235 63.5243C113.132 62.7063 114.343 62.2816 115.853 62.2816C117.112 62.2816 118.103 62.6434 118.81 63.3513C119.424 63.9963 119.754 64.8457 119.739 65.7424V73.7809H119.77Z" fill="#AD1F23"/>
<path id="Vector_75" d="M124.521 59.277C124.521 59.6231 124.379 59.9534 124.112 60.1736C123.545 60.6613 122.696 60.6613 122.114 60.1736C121.847 59.9534 121.705 59.6231 121.705 59.277C121.705 58.9309 121.847 58.6005 122.114 58.3803C122.381 58.1286 122.743 57.987 123.105 58.0028C123.467 57.987 123.829 58.1286 124.096 58.3646C124.379 58.5848 124.521 58.9152 124.521 59.277ZM124.395 73.7808H121.831V62.4861H124.395V73.7808Z" fill="#AD1F23"/>
<path id="Vector_76" d="M129.114 73.7809H126.55V57.2949H129.114V73.7809Z" fill="#AD1F23"/>
<path id="Vector_77" d="M140 62.4861L134.84 78.2956H132.135L133.975 73.7966L130.247 62.5018H132.968L134.919 69.8167C135.06 70.3515 135.139 70.8864 135.155 71.437H135.202C135.265 71.028 135.375 70.4931 135.517 69.8167L137.609 62.5018H140V62.4861Z" fill="#AD1F23"/>
<path id="Vector_78" d="M59.0646 88.442C59.096 89.323 58.7499 90.1724 58.105 90.7859C57.46 91.3994 56.642 91.6983 55.651 91.6983C54.5183 91.6983 53.6374 91.4938 53.0082 91.0848L53.4958 89.7005C54.0307 90.0466 54.6442 90.2196 55.2734 90.2039C55.7296 90.2354 56.1858 90.0623 56.5162 89.7477C56.8308 89.4331 56.9881 88.9926 56.9724 88.5521C56.9881 88.1746 56.8465 87.8128 56.5948 87.5296C56.3431 87.2622 55.9184 86.9948 55.3206 86.7431C53.8576 86.1296 53.1183 85.1543 53.1183 83.8172C53.1026 82.9991 53.4172 82.1969 53.9992 81.5991C54.5813 81.0013 55.3521 80.6867 56.3274 80.6867C57.3184 80.6867 58.105 80.8912 58.6713 81.3002L58.2308 82.5115C57.7432 82.1969 57.1769 82.0238 56.5948 82.0238C56.1701 81.9924 55.7611 82.1497 55.4622 82.4486C55.179 82.7632 55.0375 83.1722 55.0689 83.5812C55.0689 83.9902 55.2262 84.3835 55.5409 84.6666C55.8869 84.9498 56.2645 85.1857 56.6892 85.3273C58.278 86.0195 59.0646 87.042 59.0646 88.442Z" fill="#AD1F23"/>
<path id="Vector_79" d="M66.5682 91.0848C65.8131 91.4781 64.8063 91.6826 63.5479 91.6826C61.2669 91.6826 60.1343 90.8331 60.1343 89.1342C60.1343 88.1274 60.5905 87.3566 61.5186 86.8532C62.2422 86.46 63.3434 86.1925 64.8063 86.0509V85.5948C64.8063 84.6666 64.2558 84.2104 63.1389 84.2104C62.4153 84.2262 61.6916 84.3992 61.0467 84.7296L60.6062 83.6441C61.5029 83.2194 62.4782 82.9992 63.485 83.0149C65.5457 83.0149 66.5682 83.9745 66.5682 85.9094V91.0848ZM64.8063 90.4084V86.9633C63.8153 87.0892 63.1074 87.278 62.6827 87.5297C62.1636 87.8443 61.8961 88.3634 61.8961 89.087C61.8961 90.1252 62.4782 90.6444 63.658 90.6444C64.0513 90.6444 64.4445 90.5657 64.8063 90.4084Z" fill="#AD1F23"/>
<path id="Vector_80" d="M74.528 83.1722L71.838 91.5253H70.0447L67.3232 83.1722H69.3368L70.8155 88.5679C70.9256 88.9454 70.9885 89.323 71.02 89.7162H71.0515C71.0987 89.4173 71.1773 89.0398 71.2717 88.5679L72.7819 83.1722H74.528Z" fill="#AD1F23"/>
<path id="Vector_81" d="M77.4854 80.7968C77.4854 81.0485 77.3753 81.2845 77.1865 81.4575C76.7618 81.8193 76.1326 81.8193 75.7078 81.4575C75.5191 81.3002 75.4089 81.0485 75.4089 80.7968C75.4089 80.5451 75.5191 80.2934 75.7078 80.1361C75.9123 79.9474 76.1797 79.853 76.4472 79.853C76.7146 79.853 76.982 79.9474 77.1865 80.1204C77.391 80.2934 77.5011 80.5451 77.4854 80.7968ZM77.391 91.5253H75.4876V83.1722H77.3753L77.391 91.5253Z" fill="#AD1F23"/>
<path id="Vector_82" d="M85.6812 91.5253H83.7935V85.6105C83.7935 84.6823 83.2901 84.2104 82.2833 84.2104C81.8429 84.2104 81.4024 84.2891 80.9777 84.4464V91.5253H79.09V83.6126C79.9552 83.2036 81.0406 82.9991 82.362 82.9991C83.5261 82.9991 84.3913 83.2508 84.9576 83.77C85.4452 84.2104 85.6812 84.7925 85.6812 85.5475V91.5253Z" fill="#AD1F23"/>
<path id="Vector_83" d="M93.7826 91.6669C93.7826 92.768 93.4837 93.6018 92.8702 94.1838C92.2567 94.7659 91.423 95.049 90.3533 95.049C89.1105 95.049 88.1667 94.8445 87.506 94.4512L88.0408 93.2085C88.6543 93.5389 89.3465 93.7119 90.0386 93.7119C91.3286 93.7119 91.9578 93.0827 91.9578 91.8399V91.3051C91.596 91.5253 91.0769 91.6354 90.3847 91.6354C89.4409 91.6669 88.5442 91.2579 87.9464 90.5343C87.3329 89.7949 87.0183 88.8039 87.0183 87.5454C87.0183 86.1453 87.3487 85.0599 88.0251 84.2576C88.733 83.4239 89.7555 83.0149 91.0611 83.0149C92.2567 83.0149 93.1533 83.2194 93.7826 83.6284V91.6669ZM91.9578 90.2668V84.3363C91.6589 84.1947 91.3128 84.1318 90.9825 84.1475C89.5982 84.1475 88.906 85.2487 88.906 87.451C88.906 89.496 89.5667 90.5185 90.8881 90.5185C91.2656 90.5343 91.6275 90.4556 91.9578 90.2668Z" fill="#AD1F23"/>
<path id="Vector_84" d="M100.201 89.1342C100.201 89.8264 99.902 90.4871 99.3829 90.9275C98.8323 91.4309 98.1087 91.6669 97.2277 91.6669C96.2681 91.6669 95.4973 91.4624 94.9153 91.0534L95.4187 89.8421C95.8749 90.1724 96.4254 90.3455 96.9918 90.3297C97.3378 90.3455 97.6682 90.2196 97.9199 89.9994C98.1559 89.7792 98.2817 89.4803 98.2817 89.1499C98.2974 88.851 98.203 88.5522 97.9985 88.3162C97.7311 88.0645 97.4008 87.8757 97.0547 87.7656C95.7805 87.278 95.1512 86.4914 95.1512 85.4217C95.1355 84.761 95.4029 84.1475 95.8906 83.707C96.3783 83.2351 97.0232 83.0149 97.8098 83.0149C98.5806 82.9992 99.3357 83.2037 99.9806 83.6127L99.5087 84.7138C99.1312 84.3992 98.6592 84.2419 98.1716 84.2419C97.8412 84.2262 97.5266 84.3363 97.2907 84.5565C97.0862 84.761 96.9603 85.0442 96.976 85.3431C96.976 85.8936 97.385 86.3341 98.2188 86.6644C99.5244 87.1993 100.201 88.0173 100.201 89.1342Z" fill="#AD1F23"/>
<path id="Vector_85" d="M112.628 88.6151C112.628 89.6376 112.251 90.4084 111.496 90.9432C110.803 91.4309 109.812 91.6826 108.554 91.6826C107.201 91.6826 106.147 91.4781 105.392 91.0691V81.3002C106.131 80.8912 107.138 80.6867 108.428 80.6867C109.671 80.6867 110.63 80.9541 111.307 81.4733C111.936 81.9294 112.298 82.6688 112.266 83.4396C112.282 84.0688 112.046 84.6666 111.621 85.1071C111.26 85.4846 110.803 85.752 110.284 85.8464V85.8779C110.866 86.0037 111.401 86.3026 111.826 86.7274C112.329 87.2465 112.628 87.9229 112.628 88.6151ZM110.379 83.5969C110.379 82.4171 109.734 81.8351 108.428 81.8351C108.035 81.8351 107.626 81.898 107.248 82.0238V85.4846H107.846C108.774 85.5004 109.419 85.3588 109.812 85.0284C110.19 84.7453 110.379 84.2733 110.379 83.5969ZM110.662 88.5993C110.662 87.1206 109.718 86.397 107.862 86.4442H107.264V90.2825C107.657 90.4241 108.082 90.5028 108.507 90.487C109.922 90.487 110.646 89.8578 110.662 88.5993Z" fill="#AD1F23"/>
<path id="Vector_86" d="M120.1 91.0848C119.345 91.4938 118.339 91.6983 117.08 91.6983C114.799 91.6983 113.667 90.8489 113.667 89.1499C113.667 88.1431 114.123 87.3723 115.051 86.8689C115.774 86.4757 116.876 86.2082 118.339 86.0667V85.6105C118.339 84.6823 117.788 84.2262 116.671 84.2262C115.947 84.2419 115.224 84.4149 114.579 84.7453L114.138 83.6598C115.035 83.2351 116.01 83.0149 117.017 83.0306C119.078 83.0306 120.1 83.9902 120.1 85.9251V91.0848ZM118.339 90.4084V86.9633C117.348 87.0892 116.64 87.2779 116.215 87.5296C115.696 87.8443 115.428 88.3634 115.428 89.087C115.428 90.1252 116.01 90.6443 117.19 90.6443C117.583 90.6443 117.977 90.5657 118.339 90.4084Z" fill="#AD1F23"/>
<path id="Vector_87" d="M128.312 91.5253H126.424V85.6105C126.424 84.6823 125.921 84.2104 124.914 84.2104C124.474 84.2104 124.033 84.2891 123.608 84.4464V91.5253H121.721V83.6126C122.586 83.2036 123.671 82.9991 124.993 82.9991C126.157 82.9991 127.022 83.2508 127.588 83.77C128.076 84.2104 128.312 84.7925 128.312 85.5475V91.5253Z" fill="#AD1F23"/>
<path id="Vector_88" d="M136.838 91.5253H134.699L131.883 87.2622V91.5253H130.011V79.3339H131.883V86.9476L134.557 83.1565H136.492L133.613 86.9948L136.838 91.5253Z" fill="#AD1F23"/>
</g>
<g id="Group_5">
<path id="Vector_89" d="M29.2231 52.0093V51.4745C29.2231 51.1756 29.0658 50.9082 28.8299 50.7508C29.0658 50.3261 28.8928 49.7755 28.468 49.5553C28.0433 49.3351 27.4927 49.4924 27.2725 49.9171C27.1309 50.1688 27.1309 50.4834 27.2725 50.7508C27.0208 50.9082 26.8635 51.1913 26.8478 51.4902V52.025C23.2454 52.3397 18.2902 54.2274 18.2902 56.76C18.2902 58.3017 20.1779 59.8905 22.4903 59.9534V60.9602H33.5806V59.9534C35.9087 59.9062 37.7807 58.3174 37.7807 56.76C37.765 54.2116 32.8255 52.3239 29.2231 52.0093Z" fill="#BB932D"/>
<path id="Vector_90" d="M19.7846 57.1376C19.7531 54.9982 22.4274 54.8566 22.4274 54.8566C22.1442 55.1869 21.6566 55.8162 21.6566 56.6971C21.6566 58.632 24.1263 59.45 24.1263 59.45C21.7195 59.7489 19.8003 58.8208 19.7846 57.1376Z" fill="white"/>
<path id="Vector_91" d="M27.241 58.5848C25.7623 58.5848 24.5668 57.578 24.5668 56.3353C24.5668 55.0926 25.7623 54.0858 27.241 54.0858V58.5848Z" fill="white"/>
<path id="Vector_92" d="M28.8141 58.5848V54.0701C30.2928 54.0701 31.4883 55.0768 31.4883 56.3196C31.4883 57.5623 30.2771 58.5848 28.8141 58.5848Z" fill="white"/>
<path id="Vector_93" d="M31.866 59.45C31.866 59.45 34.3357 58.632 34.3357 56.6971C34.3357 55.8162 33.8481 55.1869 33.5649 54.8566C33.5649 54.8566 36.2392 54.9982 36.2234 57.1218C36.192 58.8208 34.2885 59.7332 31.866 59.45Z" fill="white"/>
</g>
</g>
</g>
</g>
</svg>
