<svg width="150" height="150" viewBox="0 0 150 150" fill="none" xmlns="http://www.w3.org/2000/svg">
<g id="Bank Logos/bpi">
<g id="bpi">
<g id="Group 4182">
<g id="Group">
<g id="Group_2">
<path id="Vector" d="M74.3703 91.0444H78.0755C80.4085 91.0444 82.0748 90.7116 83.1139 90.0459C84.1529 89.3803 84.6626 88.3035 84.6626 86.8155C84.6626 85.4255 84.1333 84.4074 83.0747 83.7417C82.016 83.0761 80.3496 82.7432 78.0951 82.7432H74.3899L74.3703 91.0444ZM74.3703 76.8306H78.0755C80.134 76.8306 81.6435 76.5173 82.6042 75.8908C83.5648 75.2643 84.0353 74.2854 84.0353 72.9345C84.0353 71.6619 83.5452 70.7026 82.5453 70.0565C81.5455 69.4104 80.0556 69.0972 78.0951 69.0972H74.3899L74.3703 76.8306ZM65.1365 97.3095V62.8712H78.0951C83.3099 62.8712 87.172 63.5956 89.6618 65.0444C92.1516 66.4932 93.4062 68.7252 93.4062 71.7598C93.4062 73.7764 92.7985 75.4405 91.5634 76.7131C90.3283 78.0053 88.4855 78.9255 86.0153 79.4932C88.858 80.0023 90.9557 80.9616 92.3476 82.3321C93.7199 83.7026 94.4061 85.5625 94.4061 87.8728C94.4061 91.0249 93.2886 93.3743 91.0537 94.9405C88.8188 96.5068 85.4272 97.2899 80.8986 97.2899L65.1365 97.3095Z" fill="#9A191F"/>
</g>
<g id="Group_3">
<path id="Vector_2" d="M107.267 78.3381H111.521C113.56 78.3381 115.069 77.9661 116.05 77.2221C117.03 76.4782 117.52 75.3231 117.52 73.7372C117.52 72.1905 117.049 71.0746 116.089 70.3697C115.128 69.6649 113.619 69.3125 111.54 69.3125H107.286L107.267 78.3381ZM97.6605 97.3095V62.8712H113.501C118.01 62.8712 121.421 63.811 123.754 65.6514C126.067 67.5113 127.224 70.2523 127.224 73.8547C127.224 77.3788 126.067 80.1393 123.774 82.1167C121.48 84.0941 118.284 85.0731 114.167 85.0731H107.267V97.3095H97.6605Z" fill="#9A191F"/>
</g>
<g id="Group_4">
<path id="Vector_3" d="M139.987 62.8712H130.439V97.3095H139.987V62.8712Z" fill="#9A191F"/>
</g>
<g id="Group_5">
<path id="Vector_4" d="M23.4573 83.683H25.653V82.8803H23.4573V83.683ZM25.653 77.8095H23.4573V78.6122H25.653V77.8095ZM23.4769 81.1378H25.6726V80.3351H23.4769V81.1378ZM19.7717 87.5595H29.3583V90.7899H26.7901V89.9481H22.3399V90.7899H19.7717V87.5595ZM22.2418 74.1484H26.8881L28.4957 86.9722H20.6539L22.2418 74.1484ZM21.1048 70.3502H22.5555V71.192V71.6032H23.8298V70.2719H25.359V71.6032H26.5744V70.3502H28.0252V73.5806H21.1048V70.3502Z" fill="#D5B527"/>
</g>
<g id="Group_6">
<path id="Vector_5" d="M23.4377 49.1468C22.2026 50.6152 21.0852 54.6092 26.2804 56.7041C22.4967 57.1739 19.5168 55.686 19.4972 52.945C19.458 49.4992 23.4377 49.1468 23.4377 49.1468ZM31.456 47.1107C30.8482 48.1092 30.4365 49.8712 30.4365 51.927C30.4365 54.1393 30.907 56.0384 31.6128 56.9782C28.2016 56.7236 25.5158 54.6288 25.5158 52.0444C25.5158 49.4797 28.1036 47.4044 31.456 47.1107ZM33.8869 47.1107C37.2197 47.4044 39.8271 49.4797 39.8271 52.0248C39.8271 54.6092 37.1413 56.7041 33.7301 56.9586C34.4162 56.0384 34.9063 54.1393 34.9063 51.9074C34.9063 49.8712 34.4947 48.1092 33.8869 47.1107ZM41.9052 49.1468C41.9052 49.1468 45.8849 49.4992 45.8457 52.945C45.8261 55.686 42.8266 57.1739 39.0625 56.7041C44.2577 54.6092 43.1402 50.6152 41.9052 49.1468ZM22.0458 57.7026C21.144 57.82 20.5166 57.8983 19.6932 58.1529C19.556 58.8773 19.3012 60.2869 19.0659 61.4029C23.6337 60.7568 28.2996 60.4044 33.0243 60.4044C37.4745 60.4044 41.866 60.7372 46.1789 61.305C45.9437 60.2282 45.7084 58.8773 45.5712 58.1529C45.0027 57.9375 44.2577 57.7809 43.2971 57.7026C46.3358 56.9977 48.159 54.8833 48.159 52.8276C48.159 50.1258 46.0221 47.9917 40.7877 47.4631C38.9253 46.0143 36.3375 45.3878 34.1026 45.2116C34.6515 44.82 35.024 44.1544 35.024 43.4104C35.024 42.2161 33.8085 41.2372 32.6518 41.2372C31.4952 41.2372 30.2797 42.2161 30.2797 43.4104C30.2797 44.1544 30.6522 44.82 31.2011 45.2116C28.9662 45.3878 26.3784 46.0143 24.516 47.4631C19.2815 47.9917 17.1447 50.1453 17.1447 52.8276C17.1447 54.8833 19.0071 56.9977 22.0458 57.7026Z" fill="#D5B527"/>
</g>
<g id="Group_7">
<path id="Vector_6" d="M44.395 70.3306C44.395 69.9782 43.9833 69.6845 43.4736 69.6453C43.5716 69.7824 43.6304 70.0369 43.6304 70.311C43.6304 70.6242 43.552 70.8788 43.454 71.0158C43.9833 70.9766 44.395 70.683 44.395 70.3306Z" fill="#D5B527"/>
</g>
<g id="Group_8">
<path id="Vector_7" d="M43.1207 71.0158C43.003 70.8788 42.9442 70.6242 42.9442 70.311C42.9442 70.0173 43.003 69.7824 43.1011 69.6453C42.5717 69.6845 42.1797 69.9782 42.1797 70.3306C42.1601 70.683 42.5914 70.9766 43.1207 71.0158Z" fill="#D5B527"/>
</g>
<g id="Group_9">
<path id="Vector_8" d="M42.2189 70.9962C41.4543 70.7025 41.6111 70.1544 41.8072 69.939C41.8072 69.939 41.2191 69.9977 41.2191 70.4676C41.2191 70.8592 41.67 71.0745 42.2189 70.9962Z" fill="#D5B527"/>
</g>
<g id="Group_10">
<path id="Vector_9" d="M42.6501 72.2492V72.7583C43.003 72.6212 43.3559 72.4842 43.7284 72.3471C43.4931 72.1905 43.0226 72.2297 42.6501 72.2492Z" fill="#D5B527"/>
</g>
<g id="Group_11">
<path id="Vector_10" d="M46.2378 84.4466C45.3752 84.7011 44.9047 87.5399 46.179 87.6182C46.375 87.442 46.4142 87.2658 46.5711 87.0505L46.6299 87.1288C46.9828 88.8125 46.081 89.3607 45.6693 90.3396C45.5124 90.7312 45.5516 91.2206 45.3948 91.5535C45.2968 91.4164 45.1791 91.2402 44.9439 91.3577C44.4734 91.6514 44.5126 92.6499 44.0225 92.9631C43.7676 93.0023 43.5128 93.0414 43.2579 93.0806C43.2187 93.2372 43.1795 93.3938 43.1403 93.5309L42.9246 93.3743C42.807 92.8848 42.7678 92.2583 42.9638 91.8472C42.6698 92.1017 42.8266 92.4541 42.7874 92.8848C42.5325 92.8652 42.4541 92.924 42.3169 93.0414C42.2777 93.1393 42.2581 93.2176 42.2189 93.3155C42.1797 93.2764 42.1404 93.2372 42.1012 93.1981C41.964 92.6107 42.0424 92.0625 42.2189 91.5535C42.1993 91.5339 42.1993 91.5339 42.1797 91.5143C42.16 91.5339 42.1208 91.5731 42.0816 91.5926C42.0228 91.9059 41.964 92.2191 41.9052 92.552C41.866 92.552 41.8268 92.552 41.7876 92.552C41.7288 92.4737 41.6895 92.3953 41.6307 92.317C41.5915 92.317 41.5523 92.317 41.5131 92.317C41.4543 92.4149 41.3955 92.5128 41.3367 92.6303C41.3171 92.6107 41.2975 92.6107 41.2778 92.5911C41.2386 92.3562 41.219 92.18 41.2386 91.945C41.4151 91.6318 41.6111 91.2598 41.866 91.0249C41.8464 91.0053 41.8464 90.9661 41.8268 90.9465C41.6503 91.1423 41.4935 91.3381 41.3171 91.5143C41.2778 91.3773 41.2582 91.2402 41.219 91.1032C41.1014 91.0836 41.0034 91.0836 40.8858 91.064V90.9465C41.0622 90.5746 41.1406 90.7899 41.4151 90.6333C41.5131 90.5354 41.5915 90.4571 41.6895 90.3592C42.2973 90.1634 42.5521 90.9466 43.1991 90.7703C43.9049 90.5746 44.5518 89.302 44.9243 88.6167C44.7871 88.5972 44.6498 88.5972 44.5126 88.5776C44.3754 88.8908 44.1793 89.0475 43.8264 89.0866C44.0225 88.0685 43.4539 87.7357 43.2579 86.9134C43.0619 86.0911 43.1599 84.9752 43.2187 84.0941C42.5129 83.4089 41.9444 82.5475 40.9838 82.1755C40.6113 82.0188 39.9643 81.9797 39.7879 82.3713C39.7291 82.4496 39.7291 82.4691 39.7291 82.6453C39.8467 82.8803 39.9643 82.9782 40.1996 83.0565C40.1212 83.1544 40.0624 83.2523 39.9839 83.3697C39.5723 83.5655 39.2586 83.6243 38.8469 83.3697C37.9451 84.2312 38.9057 84.8577 38.1607 85.5821C38.1411 85.5821 38.1411 85.5821 38.1215 85.5821C38.1215 85.4646 38.1019 85.3472 38.0823 85.2297C37.8667 85.2101 37.7098 85.1905 37.553 85.0535C37.2785 85.4842 37.0041 86.0911 36.5336 85.6408L36.1807 85.9932C36.1415 85.5821 36.1807 85.2297 36.2199 84.9164C36.3963 84.7402 36.5532 84.564 36.7296 84.3878C36.71 84.3487 36.6904 84.3095 36.6708 84.2703C36.6708 84.2703 36.6512 84.2703 36.6316 84.2703C36.4355 84.4466 36.2591 84.6228 36.063 84.799C36.0042 84.7794 35.965 84.7402 35.9062 84.7206C35.867 84.5444 35.8866 84.5053 35.7298 84.4466C35.6513 84.5053 35.5925 84.5836 35.5141 84.6423V84.6032C35.4357 84.3291 35.7886 83.7222 35.9258 83.6047C36.1611 83.5264 36.3963 83.6438 36.6316 83.683C36.6316 83.6438 36.612 83.6047 36.5924 83.5655C36.3963 83.4676 36.1219 83.4676 35.9062 83.4089C35.9062 83.2523 35.9258 83.0956 35.9454 82.9586C35.8278 82.939 35.7298 82.8999 35.6121 82.8803C35.6514 82.7824 35.6906 82.7041 35.7298 82.6062C35.9846 82.5475 36.2199 82.4691 36.4747 82.4104C36.7296 82.4691 36.8668 82.7041 37.0041 82.8999C37.4158 82.8607 38.2784 81.6273 38.494 81.2553C38.0823 81.0399 37.5138 80.57 37.3962 80.0023C38.8273 79.6107 39.2586 77.2417 40.8465 76.6152C41.7091 76.2824 42.5521 76.5761 42.6894 75.3035C42.2385 75.2839 42.062 75.5188 42.0424 76.0279C41.5915 75.6167 41.5131 74.9706 41.6895 74.3441C41.7091 74.3441 41.7091 74.3441 41.7288 74.3441C41.8268 74.6574 42.0816 74.7161 42.3561 74.5987C42.5913 74.0309 42.3561 73.4044 42.0032 73.2282C41.7287 73.3652 41.7091 73.4827 41.5523 73.7959C41.1798 73.4631 41.121 72.7779 41.1994 72.5038C41.3563 72.445 41.5131 72.4059 41.6699 72.3472V72.308C41.4739 72.2884 41.2778 72.2884 41.0818 72.2688C41.121 72.1905 41.1406 72.1122 41.1798 72.0339C42.6698 71.6815 45.7085 70.82 45.8457 75.0098C45.6889 75.0098 45.5516 75.0098 45.3948 75.0098C45.7085 75.8908 45.336 76.8697 45.4536 77.8291C45.4144 77.8291 45.3752 77.8291 45.336 77.8291C45.238 77.7312 45.1595 77.6333 45.0615 77.5354C45.0419 78.5731 44.4342 79.5128 43.9049 79.9044C44.7871 80.7854 46.0613 81.9209 46.4142 82.6453C46.7671 83.3697 47.9434 85.6408 48.5511 84.4466C48.9628 83.6438 46.2378 81.2749 46.2182 79.0038C46.1986 77.183 47.7865 73.3456 45.8653 71.6619C46.4534 71.7598 47.6297 72.2688 47.7669 73.8351C47.7277 72.7779 48.6687 72.2884 49.2177 72.4255C48.5315 72.7975 48.2767 73.7176 48.159 74.2071C47.7277 75.8908 47.4337 78.0053 47.3945 79.0625C47.3749 79.5128 47.4729 79.9631 47.6101 80.3938C48.0022 79.5128 48.9824 79.0821 48.806 79.2975C48.5315 79.6694 48.2374 80.2764 48.0414 81.0203C48.4727 80.3155 49.2569 79.9827 49.1 80.1785C48.8256 80.57 48.5119 81.177 48.3355 81.9209C48.7472 81.1182 49.6294 80.7462 49.4725 80.9616C49.2177 81.3336 48.9236 81.9014 48.7472 82.6062C49.1981 83.311 49.5706 83.9179 49.5313 84.3682C49.5313 86.6197 46.8455 86.1303 46.2378 84.4466ZM40.6113 89.5565C40.6113 89.2237 40.5329 89.1453 40.3956 88.9887C39.8663 89.0083 39.8663 89.4978 39.5134 89.6348C39.1998 89.7719 39.0821 89.5173 38.8861 89.6348C38.8469 89.7719 38.8077 89.8893 38.7685 90.0264C38.7097 89.9676 38.6704 89.9089 38.6116 89.8306C38.4548 89.4194 38.6704 88.9104 38.7685 88.4993C38.7293 88.4993 38.6901 88.4993 38.6508 88.4993C38.6116 88.7342 38.5332 89.0475 38.4156 89.1845C38.3176 89.0866 38.2195 88.9887 38.1215 88.8908C37.9843 88.9691 37.8667 89.0866 37.7686 89.0866V89.0475C37.8078 88.3622 38.298 88.2056 38.396 87.6378C38.3764 87.6378 38.3764 87.6378 38.3568 87.6378C38.1803 87.8336 38.0039 88.049 37.8274 88.2447C37.8078 87.9902 37.749 87.8728 37.651 87.7161C37.553 87.7161 37.455 87.7161 37.3569 87.7161V87.677C37.553 87.1288 38.0431 87.1092 38.5528 87.2071V87.0505C38.5332 87.0505 38.5136 87.0505 38.494 87.0505C38.3176 86.9917 38.1607 86.9526 37.9843 86.8938V86.8547C38.0235 86.6981 38.1019 86.6393 38.0823 86.5023C38.0235 86.424 37.9843 86.3456 37.9255 86.2673V86.2282C38.8273 86.1499 38.9449 86.8155 39.4742 87.2462C39.9055 87.5987 40.6505 87.5008 41.2582 87.4225C41.2386 87.3833 41.2386 87.3441 41.219 87.305C40.7681 86.8743 40.376 86.1694 40.3956 85.1709C39.9643 85.1514 39.7291 84.7794 39.6899 84.2899C41.0426 84.3095 40.925 82.1559 42.5129 83.4285C42.2777 84.0746 42.8658 84.2312 43.1011 84.6032C43.0815 84.8773 43.0619 85.1318 43.0423 85.4059C42.7678 85.1709 42.3169 85.0535 42.1404 85.5234C41.7484 86.424 43.003 87.9315 43.3559 88.2252V88.2643C42.6306 89.1258 42.3953 88.6167 41.3563 88.9691C41.0622 89.1062 40.9642 89.4586 40.6113 89.5565ZM36.3767 75.5972C36.5139 75.7538 36.6512 75.93 36.7884 76.0866C36.8276 76.0866 36.8472 76.0866 36.8864 76.0866V75.93C36.7492 75.7146 36.6316 75.4993 36.4943 75.2839C36.4551 75.0685 36.5139 74.8532 36.4355 74.5987V74.5595C36.6904 74.5987 37.2197 74.8923 37.3177 75.1273C37.4158 75.3426 37.3962 75.5776 37.5334 75.7342C37.553 75.7342 37.553 75.7342 37.5726 75.7342V75.6559C37.553 75.4601 37.5334 75.2447 37.5138 75.049C37.553 74.8532 37.6902 74.7553 37.6902 74.4029C38.5724 74.8923 37.8863 75.8712 38.1019 76.5761C38.298 77.183 39.0233 77.4962 39.141 78.1228C38.8665 78.5143 38.6312 78.945 38.3176 79.2779C38.298 79.2779 38.2784 79.2779 38.2588 79.2779C37.9059 78.8276 37.5726 78.3969 37.2197 77.9466C37.2001 77.9466 37.1805 77.9466 37.1609 77.9466C37.0433 78.1032 36.9452 78.2794 36.8276 78.436C36.5336 78.436 36.1611 78.4947 36.0042 78.299V78.2598C37.0041 77.4571 36.0238 76.3215 35.8278 75.9691C35.7298 75.8712 35.6514 75.7734 35.5533 75.6755C35.7494 75.5972 36.1415 75.4797 36.3767 75.5972ZM40.5721 73.5806C39.9643 74.9119 41.5131 74.0505 41.8464 73.9722C42.0424 73.9134 42.1797 73.9722 42.3561 73.9917V74.0505C41.6307 74.0896 41.4151 74.8336 40.7485 74.8923C39.8663 74.9902 40.082 73.7764 40.5721 73.5806ZM42.0032 69.6258C42.2973 69.3908 42.6894 69.2929 43.0423 69.2734C42.9638 69.2146 42.905 69.1167 42.905 68.9993C42.905 68.8035 43.1011 68.6664 43.2775 68.6664C43.4539 68.6664 43.65 68.8231 43.65 68.9993C43.65 69.1167 43.5912 69.2146 43.5128 69.2734C43.8656 69.2929 44.2577 69.3908 44.5518 69.6258C45.3752 69.7041 45.7085 70.0369 45.7085 70.4676C45.7085 70.82 45.3556 71.192 44.8067 71.2703C44.7871 71.3878 44.7674 71.564 44.7478 71.6228C44.4146 71.5249 43.7872 71.4661 43.2775 71.4661C42.7678 71.4661 42.0816 71.5444 41.8072 71.6228C41.7876 71.564 41.768 71.3878 41.7484 71.2703C41.1798 71.192 40.8465 70.82 40.8465 70.4676C40.8662 70.0369 41.1994 69.7041 42.0032 69.6258ZM55.4519 88.4405V88.4014C55.3735 87.9511 52.7073 71.8773 51.2565 64.2417C45.3752 63.3215 39.3762 62.8321 33.24 62.8321C33.1028 62.8321 32.9655 62.8517 32.8283 62.8517V104.495C24.614 99.1107 16.635 93.942 15.3215 92.9044C14.5373 92.2779 14.0276 91.7101 13.8315 91.2011C13.4982 90.3592 13.6355 89.6544 13.7727 88.93C13.8707 88.4405 16.7526 71.2116 18.1445 63.8697C16.8898 64.0264 15.9096 64.2026 14.6745 64.4179C13.2238 72.0731 10.3027 87.9511 10.2243 88.4014C10.0282 89.3607 9.79299 90.6333 10.4203 92.2583C10.8124 93.2764 11.5966 94.2357 12.8121 95.1755C14.6157 96.5655 28.0644 105.513 32.1421 108.175L33.0439 108.763L33.7889 108.273C34.4751 107.803 50.8449 96.7417 52.8641 95.1755C54.0796 94.2161 54.8638 93.2764 55.2559 92.2583C55.8832 90.6529 55.6284 89.3803 55.4519 88.4405Z" fill="#D5B527"/>
</g>
<g id="Group_12">
<path id="Vector_11" d="M45.336 70.4676C45.336 69.9977 44.7675 69.939 44.7675 69.939C44.9439 70.1348 45.1204 70.683 44.3558 70.9766C44.9047 71.055 45.336 70.8592 45.336 70.4676Z" fill="#D5B527"/>
</g>
</g>
</g>
</g>
</g>
</svg>
