<svg width="150" height="150" viewBox="0 0 150 150" fill="none" xmlns="http://www.w3.org/2000/svg">
<g id="Bank Logos/chinabanksavings">
<g id="china-bank-savings" clip-path="url(#clip0_3421_74)">
<path id="Vector" d="M28.7086 54.6226C33.847 52.7359 39.4004 53.1195 44.7841 53.1384C44.8344 57.0566 44.7841 60.9686 44.7841 64.8868C41.3753 64.9371 37.8658 64.5346 34.5577 65.6478C27.5199 67.7296 22.3753 75.0063 22.8973 82.3459C23.0929 85.5299 24.191 88.5925 26.0632 91.1753C27.9355 93.7581 30.5044 95.7544 33.4696 96.9308C37.6206 98.8176 42.2432 97.8553 46.6331 98.1887C49.086 103.107 53.2306 106.887 57.7526 109.881C50.2055 109.698 42.696 109.987 35.1803 109.673C27.8054 109.058 20.973 105.552 16.174 99.9182C13.1515 96.3923 11.043 92.1768 10.0347 87.6434C9.02631 83.1101 9.14904 78.3983 10.392 73.9236C11.635 69.4489 13.96 65.3488 17.162 61.985C20.364 58.6212 24.3446 56.0971 28.7526 54.6352L28.7086 54.6226Z" fill="#E01E1C"/>
<path id="Vector_2" d="M95.9854 67.0377C97.0294 59.1384 104.834 53.5472 112.47 53.1384C119.683 53.0755 126.897 53.1384 134.105 53.1384C134.105 57.0881 134.105 61.0315 134.105 64.9811C127.589 65.0377 121.061 64.8931 114.545 65.044C110.771 65.1824 108.319 69.7296 110.099 72.9874C110.908 74.4264 112.245 75.4935 113.828 75.9623C119.187 76.4591 124.816 75.0818 129.935 77.2201C133.364 78.5835 136.256 81.0269 138.173 84.1805C140.09 87.3341 140.927 91.0262 140.558 94.6981C139.929 102.918 132.432 109.893 124.205 109.893C114.772 109.893 105.394 109.893 95.9854 109.893C100.741 107.199 104.642 103.222 107.243 98.4151C111.841 98.4151 116.432 98.2264 121.023 98.1509C122.02 98.1156 122.984 97.7846 123.793 97.2001C124.601 96.6155 125.218 95.8037 125.564 94.8679C127.281 91.6227 124.715 87.239 121.092 86.9748C117.193 86.6415 113.256 87.044 109.344 86.7233C108.847 78.2579 102.79 71.3837 95.9854 67.0377Z" fill="#E01E1C"/>
<path id="Vector_3" d="M63.8406 77.2013C69.023 77.2327 74.218 77.0189 79.3941 77.3082C85.1929 77.8994 91.1803 83.195 89.8029 89.4403C88.0985 96.2956 79.8344 99.3774 73.4507 97.7988C68.9601 96.8742 64.5262 93.4717 63.9538 88.6793C63.6582 84.868 63.8784 81.0252 63.8406 77.2013Z" fill="white"/>
<path id="Vector_4" d="M47.7842 38C53.1238 38 58.476 38 63.8093 38C63.8093 46.956 63.8093 55.912 63.8093 64.8679C71.6206 65.1321 79.6835 63.9686 87.2559 66.434C94.2999 68.478 100.822 73.1447 104.08 79.8302C107.438 86.3774 106.382 94.6856 101.985 100.491C92.8974 112.321 75.1112 114.956 62.0483 108.667C56.0483 105.943 50.9225 100.931 48.7716 94.6164C47.5955 91.5346 47.7716 88.1824 47.7716 84.9434C47.7841 69.2998 47.7883 53.652 47.7842 38ZM63.8408 77.2013C63.8785 81.0252 63.6458 84.8616 63.954 88.673C64.5263 93.4654 68.9854 96.8491 73.4508 97.7925C79.8345 99.3711 88.1049 96.2893 89.803 89.434C91.1804 83.1887 85.1992 77.8994 79.3942 77.3019C74.2181 77.0189 69.0231 77.239 63.8408 77.2013Z" fill="#F8D346"/>
</g>
</g>
<defs>
<clipPath id="clip0_3421_74">
<rect width="131.358" height="74" fill="white" transform="translate(9.2998 38)"/>
</clipPath>
</defs>
</svg>
