<svg width="150" height="150" viewBox="0 0 150 150" fill="none" xmlns="http://www.w3.org/2000/svg">
<g id="Bank Logos/chinabank">
<g id="chinabank">
<g id="Group 4182">
<g id="Group">
<path id="Vector" d="M25.8637 100.418C24.6896 99.811 23.4286 99.486 21.8197 99.356C21.3196 99.3127 19.9716 99.3127 19.4715 99.356C17.6235 99.486 16.1885 99.8544 14.8188 100.504C13.8621 100.981 13.1229 101.501 12.3402 102.281C10.9705 103.646 10.2312 105.119 10.0573 106.809C10.0138 107.199 10.0355 108.131 10.1008 108.456C10.3617 109.929 11.1009 111.121 12.4272 112.118C13.7099 113.071 15.4493 113.656 17.493 113.786C17.9496 113.808 19.0802 113.808 19.5585 113.786C21.037 113.699 22.3632 113.396 23.4938 112.898C24.4287 112.486 25.3636 111.858 26.1028 111.143C26.7768 110.493 27.2769 109.821 27.69 108.998C27.7987 108.803 27.8639 108.629 27.8639 108.629C27.8639 108.629 26.929 108.543 24.1678 108.304C22.7546 108.174 22.3197 108.153 22.298 108.174C22.2545 108.283 21.9501 108.846 21.7979 109.063C21.5588 109.431 21.1022 109.886 20.7978 110.059C20.3847 110.298 19.8412 110.449 19.1889 110.471C18.5366 110.493 17.9496 110.406 17.493 110.168C17.2973 110.059 17.2104 110.016 17.0364 109.843C16.6668 109.474 16.5364 109.106 16.5146 108.413C16.4929 107.633 16.6668 106.766 17.0799 105.488C17.3843 104.578 17.5365 104.188 17.7974 103.798C18.2757 103.061 18.9062 102.649 19.8194 102.476C20.1021 102.411 20.9065 102.411 21.2109 102.454C21.9719 102.584 22.4067 102.888 22.7111 103.451C22.885 103.776 23.0155 104.361 23.0155 104.729C23.0155 104.816 23.0155 104.903 23.0372 104.924C23.059 104.946 23.7112 104.924 25.9506 104.816L28.864 104.664C28.864 104.664 28.864 104.534 28.864 104.404C28.7119 102.779 27.6682 101.349 25.8637 100.418Z" fill="#FE041F"/>
<path id="Vector_2" d="M39.6263 102.866L39.1697 104.838L38.7567 106.636H36.7999C34.9301 106.636 34.8431 106.593 34.8431 106.571C34.9953 105.921 35.1475 105.271 35.2997 104.643C35.5388 103.603 35.7563 102.736 35.7563 102.714C35.7563 102.693 35.6476 102.671 33.6038 102.671C32.408 102.671 31.4296 102.671 31.4296 102.671C31.4296 102.671 31.2774 103.343 31.0818 104.166C30.7121 105.726 29.3641 111.468 29.1032 112.573C29.0163 112.941 28.951 113.288 28.951 113.288C28.951 113.288 29.9294 113.353 31.1252 113.353H33.2994L33.3864 112.941C33.4951 112.486 34.0169 110.254 34.1909 109.539C34.2561 109.258 34.2996 109.019 34.2996 109.019C34.2996 109.019 35.191 108.998 36.2563 108.998C37.4304 108.998 38.2131 108.998 38.2131 109.019C38.2131 109.019 38.0609 109.669 37.887 110.428C37.2782 113.028 37.213 113.288 37.213 113.288C37.213 113.288 38.1914 113.353 39.3872 113.353H41.5614L41.9092 111.793L44.0399 102.758V102.736H39.7133L39.6263 102.866Z" fill="#FE041F"/>
<path id="Vector_3" d="M48.7362 102.736H46.6272L46.6055 102.758C46.1924 104.513 45.8228 106.268 45.4097 108.023C44.7357 110.883 44.2356 113.223 44.2356 113.244C44.2356 113.266 44.6052 113.266 46.3011 113.266H48.3883L48.4535 112.898C48.6927 111.923 49.8668 106.874 50.3233 104.924C50.606 103.711 50.8451 102.758 50.8451 102.736C50.8669 102.693 50.7582 102.736 48.7362 102.736Z" fill="#FE041F"/>
<path id="Vector_4" d="M64.4121 102.736H62.6292L62.4553 103.451C62.3466 103.863 62.1509 104.708 61.9987 105.314C61.4117 107.741 61.3682 108.023 61.3899 108.564L61.4117 108.868L61.216 108.456C60.7159 107.459 60.2376 106.679 58.607 104.231L57.5416 102.649H55.5196C54.4108 102.649 53.4976 102.649 53.4976 102.649C53.3454 103.278 53.215 103.884 53.0628 104.513C51.7365 110.168 50.9973 113.223 50.9973 113.244C50.9973 113.244 51.8235 113.244 52.8236 113.244C54.5412 113.244 54.65 113.244 54.65 113.223C54.65 113.201 54.9543 112.334 55.6501 109.409C56.1284 107.438 56.2154 107.373 56.2154 106.874V106.549L56.1936 106.744C56.3676 107.199 56.7154 107.914 57.172 108.608C57.3894 108.933 57.6069 109.279 59.2375 111.598C59.5419 112.031 59.8463 112.486 60.1507 112.919L60.3898 113.266H62.0422H63.6946L63.7163 113.201C64.1294 111.446 64.5425 109.691 64.9556 107.914C65.3687 106.159 65.7818 104.469 66.1949 102.714C66.1949 102.693 65.8253 102.736 64.4121 102.736Z" fill="#FE041F"/>
<path id="Vector_5" d="M77.0659 103.668L76.8485 102.714V102.671H74.5004H72.1522L70.6738 104.924L68.9127 107.633C68.7605 107.893 68.3909 108.413 68.13 108.824C67.8691 109.236 67.5212 109.778 67.3473 110.016L66.695 111.013L66.1515 111.836C65.7818 112.378 65.2166 113.309 65.2166 113.309C65.2166 113.309 66.0427 113.353 67.0646 113.353H68.9127L69.6084 112.269L70.3042 111.186H74.3482L74.3699 111.229C74.4351 111.598 74.5003 111.966 74.5873 112.334L74.783 113.353H76.9789C78.6965 113.353 79.1749 113.309 79.1749 113.288C79.1749 113.266 79.1531 113.071 79.1096 112.898C78.9357 112.204 77.2616 104.556 77.0659 103.668ZM73.5872 108.911C73.3698 108.911 73.1306 108.911 72.9132 108.911C72.8045 108.911 72.4349 108.911 72.087 108.889H71.4782L72.4566 107.351C73.0002 106.506 73.4567 105.813 73.4567 105.834C73.4567 105.834 74.0655 108.846 74.0655 108.868C74.0655 108.889 74.0003 108.889 73.5872 108.911Z" fill="#FE041F"/>
<path id="Vector_6" d="M94.1332 106.463C94.2854 106.246 94.3942 106.008 94.4811 105.769C94.5246 105.596 94.5246 105.553 94.5246 105.293C94.5246 105.033 94.5246 104.968 94.4811 104.816C94.3507 104.296 93.9811 103.819 93.4158 103.451C92.6983 102.974 91.8069 102.693 90.198 102.628C89.9588 102.628 88.3499 102.541 86.4149 102.541H83.0449V102.671C83.0449 102.693 82.697 103.776 82.3926 105.033C81.3707 109.323 80.3489 113.266 80.3489 113.288C80.3489 113.309 88.5673 113.288 89.0674 113.288C90.6763 113.223 91.8069 112.963 92.5461 112.399C92.7853 112.226 93.2201 111.814 93.3505 111.619C93.568 111.294 93.7201 110.969 93.7854 110.623C93.8289 110.428 93.8289 110.016 93.8071 109.864C93.6549 108.976 92.9374 108.348 91.6329 107.979C91.4807 107.936 91.372 107.893 91.3938 107.893C91.4155 107.893 91.546 107.871 91.6764 107.828C92.7418 107.568 93.6549 107.091 94.1332 106.463ZM89.4152 110.233C89.2413 110.579 88.8934 110.796 88.3499 110.883C88.176 110.904 87.9585 110.904 86.7845 110.926C85.48 110.926 85.4147 110.926 85.4147 110.904C85.4147 110.883 85.4582 110.709 85.5017 110.514L85.7191 109.583C85.8061 109.258 85.8713 108.976 85.8713 108.954C85.8713 108.933 85.9365 108.911 87.0671 108.933C88.3282 108.933 88.3716 108.933 88.6978 109.041C89.35 109.214 89.6762 109.756 89.4152 110.233ZM90.198 105.856C90.1327 106.354 89.6327 106.614 88.6543 106.701C88.5238 106.723 87.9585 106.723 87.415 106.723C86.4801 106.723 86.4366 106.723 86.4366 106.701C86.5018 106.398 86.5671 106.094 86.654 105.791L86.8714 104.924H87.8716C88.9369 104.924 89.1544 104.924 89.4805 105.011C89.9805 105.098 90.2414 105.423 90.198 105.856Z" fill="#FE041F"/>
<path id="Vector_7" d="M106.178 105.314C105.809 103.603 105.613 102.758 105.591 102.714L105.57 102.671H103.221H100.873L100.525 103.213C100.33 103.516 100.004 103.993 99.8079 104.296C99.3948 104.946 98.9165 105.639 98.6339 106.094L97.6337 107.611C94.242 112.811 93.9594 113.288 93.9594 113.309C93.9594 113.309 94.7855 113.353 95.8074 113.353H97.6555L98.0686 112.659L98.7643 111.598L99.047 111.186H103.091L103.113 111.208C103.178 111.576 103.243 111.944 103.33 112.313L103.526 113.331H105.722C107.548 113.331 107.918 113.288 107.918 113.266C107.918 113.244 107.613 111.771 106.7 107.633L106.178 105.314ZM102.656 108.911C102.46 108.933 102.156 108.933 101.004 108.911H100.243L101.243 107.373C101.808 106.506 102.243 105.856 102.243 105.856C102.352 106.376 102.439 106.874 102.547 107.394L102.852 108.911H102.656Z" fill="#FE041F"/>
<path id="Vector_8" d="M120.941 102.693C120.919 102.801 119.963 106.853 119.897 107.134C119.723 107.893 119.68 108.283 119.723 108.651C119.723 108.781 119.745 108.889 119.745 108.889C119.745 108.889 119.723 108.868 119.723 108.846C119.658 108.694 119.31 108.001 119.136 107.719C118.658 106.874 118.31 106.354 116.984 104.361L115.875 102.693H113.853H111.831L111.809 102.758C111.788 102.844 110.048 110.254 109.396 113.028L109.331 113.374H112.94L112.983 113.158L113.614 110.471C113.94 109.106 114.223 107.871 114.244 107.763C114.31 107.394 114.353 107.113 114.331 106.831C114.331 106.679 114.331 106.549 114.331 106.571C114.331 106.571 114.375 106.658 114.397 106.766C114.527 107.113 114.81 107.676 115.114 108.174C115.44 108.694 115.636 109.041 117.897 112.226L118.68 113.374H121.985L122.072 112.963L123.311 107.654C123.941 104.946 124.485 102.714 124.485 102.714C124.485 102.714 123.68 102.693 122.702 102.693C121.05 102.671 120.941 102.671 120.941 102.693Z" fill="#FE041F"/>
<path id="Vector_9" d="M137.878 104.318L139.965 102.671H137.835H135.704L134.638 103.516C134.03 104.014 133.421 104.513 132.812 105.011C132.399 105.358 131.812 105.856 131.529 106.094C130.812 106.701 130.551 106.961 130.268 107.373C130.203 107.459 130.16 107.524 130.16 107.503C130.529 105.899 130.921 104.318 131.29 102.714C131.29 102.693 130.877 102.736 129.225 102.736H127.137L126.681 104.751C125.376 110.298 124.681 113.266 124.681 113.266V113.288C124.681 113.288 125.572 113.353 126.724 113.353H128.812L128.833 113.244C128.92 112.898 128.986 112.529 129.073 112.204C129.203 111.684 129.333 111.121 129.355 110.969C129.399 110.818 129.42 110.688 129.442 110.688C129.464 110.666 129.747 110.428 130.116 110.146C130.464 109.864 130.986 109.474 131.225 109.258C131.486 109.063 131.703 108.889 131.703 108.889C131.703 108.889 131.834 109.236 132.008 109.648C132.399 110.644 133.16 112.659 133.29 113.028L133.399 113.353H137.813L137.791 113.266C137.769 113.201 137.074 111.576 135.943 108.976C135.052 106.939 134.943 106.679 134.965 106.679C134.986 106.636 135.769 106.008 137.878 104.318Z" fill="#FE041F"/>
</g>
<g id="Group_2">
<path id="Vector_10" d="M71.065 51.9277C67.2602 51.8844 42.4744 51.8627 42.4744 51.8627L35.8431 77.6027H63.7598C63.7598 77.6027 68.1299 77.646 69.1735 74.2227C70.2171 70.7994 70.8476 68.3294 70.8476 68.3294C70.8476 68.3294 71.3694 66.856 70.8911 66.2277C70.4128 65.5994 69.7388 64.7544 69.7388 64.7544L70.9998 63.9094C70.9998 63.9094 71.9347 63.216 72.3043 61.916C72.6739 60.616 74.1089 55.7194 74.1089 55.7194C74.1089 55.7194 74.8699 51.971 71.065 51.9277ZM65.9992 68.4594C65.9992 68.4594 65.7383 69.1527 65.2382 70.756C64.7381 72.3594 62.4335 72.6194 62.4335 72.6194H42.1918L43.7789 66.7694C43.7789 66.7694 61.9552 66.7694 64.2163 66.7694C66.4775 66.7694 65.9992 68.4594 65.9992 68.4594ZM68.6517 57.951C68.6517 57.951 68.3908 58.601 67.8907 60.2044C67.3906 61.8077 65.086 62.0027 65.086 62.0027H44.9313L46.4315 56.3694C46.4315 56.3694 64.6077 56.3694 66.8688 56.3694C69.13 56.3694 68.6517 57.951 68.6517 57.951Z" fill="#FE041F"/>
<path id="Vector_11" d="M105.135 67.2027L104.308 70.1927C103.961 71.4927 101.939 72.6194 100.525 72.6194H83.0449C81.6316 72.6194 80.7837 71.5144 81.1316 70.2144L84.1972 59.1644C84.5451 57.8644 85.98 56.8027 87.3933 56.8027H105.613C107.026 56.8027 107.744 57.8427 107.396 59.1427L106.765 61.396L111.657 61.331L113.136 55.4377C113.636 53.3577 112.396 51.841 110.353 51.841H84.9582C82.9144 51.841 80.8489 53.401 80.3271 55.481L75.8918 73.486C75.3917 75.566 76.631 77.1694 78.6747 77.1694H104.026C106.07 77.1694 108.135 75.4794 108.657 73.4211L110.157 67.311L105.135 67.2027Z" fill="#FE041F"/>
<path id="Vector_12" d="M114.636 72.641L113.136 78.2527C112.005 81.1777 107.635 83.4744 103.113 83.4744H39.8872C32.2775 83.4744 29.4076 81.676 30.1468 77.9927L36.6259 52.946C37.7565 50.021 39.7785 45.7527 48.0621 45.7527H115.071C119.615 45.7527 121.071 49.6744 119.941 52.621L118.723 56.326L129.79 56.2827L132.051 47.876C133.682 43.2177 128.116 36.1977 121.528 36.1977H39.9524C33.3863 36.1977 28.4292 39.881 26.7985 44.5394L17.7104 81.0044C16.0798 87.0494 21.9718 93.4194 28.5596 93.4194H107.809C114.375 93.4194 121.115 89.7144 122.746 85.056L125.768 72.836L114.636 72.641Z" fill="#FE041F"/>
</g>
</g>
</g>
</g>
</svg>
