<svg width="150" height="150" viewBox="0 0 150 150" fill="none" xmlns="http://www.w3.org/2000/svg">
<g id="Bank Logos/cimb">
<g id="cimb">
<g id="cimb_2">
<path id="Vector" d="M50.6293 77.9497C54.1958 73.1154 54.1154 73.1806 50.5347 68.7431C43.0023 59.4081 33.5903 47.7417 22.8187 34.308C23.5172 34.2387 24.745 34.2591 25.3838 34.2588C47.181 34.2492 68.9782 34.232 90.7752 34.308C91.8424 34.3117 93.2124 34.8641 93.9235 35.6391C98.9912 41.1621 103.914 46.8184 108.903 52.4145C112.614 56.5766 116.357 60.7095 120.08 64.8603C122.305 67.341 124.554 69.8017 126.698 72.3514C126.991 72.6999 126.988 73.7188 126.696 74.081C120.293 82.0101 113.829 89.8889 107.379 97.7801C103.039 103.09 98.6687 108.376 94.3924 113.738C93.3419 115.055 92.2512 115.685 90.5149 115.681C69.0384 115.628 47.5618 115.648 26.0851 115.642C25.3433 115.642 24.6015 115.573 23.1649 115.503C32.515 102.712 41.5278 90.3838 50.6293 77.9497Z" fill="#5F2E30"/>
<path id="Vector_2" d="M126.25 73.2302C124.117 75.9493 122.026 78.7026 119.844 81.3815C111.124 92.0868 102.368 102.763 93.6495 113.47C92.8685 114.429 92.0649 114.934 90.7455 114.932C69.3953 114.889 48.0451 114.903 26.6949 114.897C26.1454 114.897 25.5959 114.823 24.6528 114.755C34.8233 100.82 44.7998 87.1507 55.0076 73.3425C78.9092 73.2124 102.58 73.2213 126.25 73.2302Z" fill="#76101C"/>
<path id="Vector_3" d="M126.256 73.0978C102.58 73.2214 78.9091 73.2125 55.0708 73.222C49.8827 66.9094 44.8731 60.5697 39.8389 54.2499C35.1624 48.3793 30.4583 42.5308 25.771 36.6689C25.4243 36.2354 25.1152 35.7716 24.572 35.0236C25.4236 35.0236 25.9651 35.0236 26.5065 35.0236C47.8973 35.0236 69.288 35.0135 90.6787 35.0611C91.5283 35.063 92.6562 35.3603 93.1846 35.9462C104.181 48.1414 115.11 60.3981 126.049 72.6445C126.134 72.739 126.191 72.8578 126.256 73.0978Z" fill="#ED2229"/>
</g>
</g>
</g>
</svg>
