<svg width="150" height="150" viewBox="0 0 150 150" fill="none" xmlns="http://www.w3.org/2000/svg">
<g id="Bank Logos/citi">
<g id="citi" clip-path="url(#clip0_3421_74)">
<path id="Vector" d="M10.6003 88.3263C10.6003 74.983 21.4721 64.5948 35.641 64.5948C43.8394 64.5948 51.3249 68.2664 55.6023 73.8187L49.4535 79.9979C47.8226 77.8994 45.7416 76.1976 43.3656 75.0192C40.9896 73.8409 38.3797 73.2163 35.7301 73.1919C27.2644 73.1919 20.4918 79.5501 20.4918 88.3263C20.4918 97.192 27.2644 103.55 35.7301 103.55C38.4744 103.547 41.1809 102.907 43.6386 101.68C46.0963 100.452 48.2388 98.6715 49.8991 96.4757L55.9587 102.475C51.8596 108.297 44.0176 112.147 35.641 112.147C21.4721 112.147 10.6003 101.759 10.6003 88.3263Z" fill="#255BE3"/>
<path id="Vector_2" d="M63.9789 66.2068H73.6924V110.535H63.9789V66.2068Z" fill="#255BE3"/>
<path id="Vector_3" d="M91.7821 98.6249V74.4456H81.1776V66.2068H92.2281V56.7141L101.317 52.2365V66.2068H115.754V74.4456H101.317V97.0129C101.317 101.491 103.813 103.461 108.535 103.461C110.993 103.473 113.424 102.954 115.664 101.938V110.356C112.858 111.594 109.817 112.205 106.753 112.147C98.1094 112.147 91.7821 107.401 91.7821 98.6249Z" fill="#255BE3"/>
<path id="Vector_4" d="M123.417 66.2068H133.13V110.535H123.417V66.2068Z" fill="#255BE3"/>
<path id="Vector_5" d="M98.4648 37.9976C106.442 37.9784 114.308 39.8888 121.396 43.5672C128.484 47.2457 134.587 52.5842 139.19 59.132H127.872C124.163 54.9886 119.628 51.6754 114.562 49.4074C109.496 47.1394 104.011 45.9674 98.4648 45.9674C92.9186 45.9674 87.4345 47.1394 82.3686 49.4074C77.3026 51.6754 72.7673 54.9886 69.0578 59.132H57.7405C62.3433 52.5842 68.4465 47.2457 75.5345 43.5672C82.6226 39.8888 90.4873 37.9784 98.4648 37.9976Z" fill="#FF3C28"/>
</g>
</g>
<defs>
<clipPath id="clip0_3421_74">
<rect width="129.231" height="75" fill="white" transform="translate(10 37.5)"/>
</clipPath>
</defs>
</svg>
