<svg width="150" height="150" viewBox="0 0 150 150" fill="none" xmlns="http://www.w3.org/2000/svg">
<g id="Bank Logos/chinatrust">
<g id="chinatrust">
<path id="Vector" d="M10 75C10 39.1219 39.0688 10 75 10C110.854 10 140 39.1219 140 75C140 110.878 110.931 140 75 140C39.1459 140 10 110.878 10 75Z" fill="#D51B19"/>
<path id="Vector_2" d="M73.2265 115.227V120.974C73.2265 122.139 74.2289 123.148 75.3854 123.148H85.4863V98.919H75.3854C74.1518 98.919 73.2265 99.9286 73.2265 101.093V106.452H79.1636C80.3973 106.452 81.3226 107.461 81.3226 108.626V112.975C81.3226 114.14 80.3202 115.15 79.1636 115.15H73.2265V115.227ZM71.2989 115.227V120.974C71.2989 122.139 70.2965 123.148 69.1399 123.148H59.0391V98.919H69.1399C70.3736 98.919 71.2989 99.9286 71.2989 101.093V106.452H65.3617C64.128 106.452 63.2028 107.461 63.2028 108.626V112.975C63.2028 114.14 64.2051 115.15 65.3617 115.15H71.2989V115.227Z" fill="#009944"/>
<path id="Vector_3" d="M133.446 69.4864C133.446 104.743 105.148 133.244 70.2962 133.244C52.2535 133.244 35.9842 125.633 24.4955 113.363C36.0613 127.885 53.7956 137.204 73.766 137.204C108.695 137.204 136.915 108.626 136.915 73.447C136.915 56.4398 130.284 40.9858 119.567 29.4924C128.202 40.4422 133.446 54.3431 133.446 69.4864Z" fill="#F54B49"/>
<path id="Vector_4" d="M105.996 60.4004H95.2784C95.3555 64.6716 97.206 67.0014 100.599 67.0014C101.678 67.0014 102.989 66.8461 104.917 65.2152C104.762 65.4482 104.685 65.7588 104.685 66.0695C104.685 66.3024 104.762 66.6131 104.839 66.7684C104.3 67.2343 102.912 68.2439 99.8276 68.2439C95.5868 68.2439 92.5797 64.9823 92.5797 60.4781C92.5797 56.0516 95.5097 52.9452 99.7505 52.9452C102.912 52.9452 105.996 54.4207 105.996 60.4004ZM103.606 59.3132C103.606 55.8962 101.987 53.7995 99.7505 53.7995C97.3602 53.7995 95.4326 55.9739 95.4326 59.3132H103.606ZM99.4421 68.9428C100.444 68.8652 101.215 69.4864 101.293 70.1854C101.37 70.8843 100.676 71.5832 99.6734 71.6609C98.671 71.7385 97.8999 71.1173 97.8228 70.4183C97.7457 69.7194 98.4397 69.0205 99.4421 68.9428ZM61.1977 52.2463H58.8845C57.1111 46.1889 55.9545 41.6848 51.8679 29.8807H55.3377L61.0435 49.14L66.8264 29.8807H68.9082L75.2309 48.8293L80.7054 29.8807H82.9415C80.0886 36.9476 75.5393 52.2463 75.5393 52.2463H73.2262L67.1348 33.9189L61.1977 52.2463ZM87.1823 38.6561C84.792 38.6561 82.8644 40.9082 82.8644 44.1698H91.0375C90.9604 40.7529 89.4183 38.6561 87.1823 38.6561ZM80.0886 45.3347C80.0886 40.9082 83.0186 37.8019 87.2594 37.8019C90.4207 37.8019 93.5049 39.2774 93.5049 45.257H82.7873C82.8644 49.5283 84.7149 51.858 88.1075 51.858C89.2641 51.858 90.652 51.625 92.811 49.7612C92.7339 50.0719 92.7339 50.3048 92.7339 51.3144C92.2712 51.7027 90.8062 53.1005 87.4136 53.1005C83.0957 53.1005 80.0886 49.8389 80.0886 45.3347ZM80.6283 60.5557L77.3128 61.2547C75.2309 61.7206 74.2285 62.7302 74.3056 64.4387C74.3056 66.1471 75.3851 67.3897 77.0043 67.3897C78.0067 67.3897 79.2404 66.8461 80.1657 65.9918C80.5512 65.6812 80.7054 65.2152 80.7054 64.5163L80.6283 60.5557ZM71.7612 64.6716C71.7612 62.2642 73.3804 61.177 76.4646 60.4781C79.5488 59.8568 80.0115 59.7792 80.7825 59.2355C80.7825 55.9739 80.3199 54.4984 77.2357 54.4984C75.6935 54.4984 74.3827 55.1973 73.3804 56.6728H72.9948V55.042C74.537 53.8771 76.1562 53.3335 78.1609 53.3335C82.1704 53.3335 82.9415 55.7409 82.9415 58.226C82.9415 66.8461 82.8644 67.545 84.4065 67.545H84.792L84.8691 68.1662C83.8667 68.4769 83.0957 68.3216 82.5559 68.3216C81.4765 68.3216 80.9367 67.778 80.6283 66.4578C79.9343 67.079 78.7007 68.5545 76.002 68.5545C73.3033 68.5545 71.7612 67.079 71.7612 64.6716ZM91.5002 55.7409C89.9581 55.7409 88.2618 56.2845 88.2618 63.1185C88.2618 64.5163 88.3389 66.0695 88.4931 68.3216C87.2594 68.1662 86.1028 68.2439 86.0257 68.2439C86.1799 64.7493 86.4883 59.7792 86.0257 53.3335C86.4883 53.4112 86.951 53.4888 87.4136 53.4888C87.7991 53.4888 88.1846 53.4888 88.5702 53.4112C88.5702 54.1101 88.4931 55.275 88.416 57.0611C89.8039 54.2654 90.8062 53.4888 92.5797 53.4888C92.8881 53.4888 93.1965 53.4888 93.5049 53.5665C93.4278 54.576 93.3507 54.9643 93.3507 55.9739L93.1194 56.1292C92.3484 55.8186 91.9628 55.7409 91.5002 55.7409ZM46.085 88.1244L46.1621 88.0468L46.085 87.8138C45.0826 76.864 31.7434 64.0504 22.6449 69.7971C18.327 72.5151 15.6283 81.0575 19.8691 85.8723C27.5797 94.3371 41.3816 91.9297 46.085 88.1244ZM58.8845 69.1758C58.2677 70.8843 57.4195 73.7576 55.9545 77.097C54.4895 80.4363 52.3306 84.0862 49.2463 87.2702C40.6105 96.2009 25.1123 95.4243 18.4812 88.9787C15.3199 85.95 12.0043 77.8735 20.7173 70.4183C31.9747 60.7887 46.4705 72.7481 46.9332 86.8819V87.5808L47.3958 87.0372C49.8632 84.0862 51.7908 80.1256 53.1016 76.5533C54.4124 73.0587 55.2606 70.03 55.6461 69.0205L55.8003 68.7099H55.4148C54.3353 68.6322 50.7884 68.7099 47.4729 68.7099C45.7766 68.7099 44.1574 68.7875 42.9237 68.7875H40.7647C40.9189 68.3992 41.8442 67.2343 42.0755 66.8461C43.3863 66.8461 54.9521 66.6907 56.2629 66.5354H56.4171L56.4943 66.3801C56.9569 65.4482 57.5737 63.1185 58.8845 60.6334C60.1953 58.1483 62.123 55.4303 65.2072 53.5665C65.9011 53.1782 67.2119 52.4793 68.5227 52.0133C69.1396 51.7803 69.7564 51.625 70.2962 51.5474C70.8359 51.4697 71.0672 51.5474 71.1443 51.7027C71.2214 51.7803 71.2214 51.858 71.1443 52.1686C71.0672 52.4793 70.913 52.7899 70.6817 53.2559C70.2962 54.0324 69.8335 54.9643 69.448 55.8186C69.3709 55.7409 69.3709 55.6633 69.2938 55.5079C69.2167 55.275 69.0625 54.9643 68.8311 54.7314C68.2914 54.1878 67.3661 53.9548 65.824 54.576C63.588 55.5079 62.123 58.3813 61.1977 60.944C60.2724 63.5068 59.8098 66.2248 59.8098 66.2248C59.8098 66.2248 63.1253 66.2248 64.8217 66.1471C64.9759 66.1471 65.1301 66.1471 65.2843 66.0695C65.4385 66.0695 65.5156 65.9918 65.5927 65.9918C65.7469 65.9142 65.824 65.9142 65.9782 65.9918C66.0553 65.9918 66.1325 66.0695 66.1325 66.4578C66.1325 66.7684 66.0553 67.2343 65.9782 67.778C65.7469 68.7875 65.4385 70.1854 65.2072 71.6609C65.1301 71.6609 65.053 71.5832 65.053 71.5056C64.359 70.03 63.4338 69.4088 62.4314 69.0981C61.8916 68.9428 61.3519 68.8652 60.8122 68.8652C60.2724 68.8652 59.7327 68.8652 59.2701 68.7875H59.0387L58.8845 69.1758ZM64.4361 88.8234C64.5132 88.901 64.7446 88.8234 64.7446 88.8234C65.2072 88.668 65.9011 88.4351 66.4409 88.2798C65.9011 88.668 65.053 89.2893 64.1277 89.9106C62.6627 90.9978 61.8145 91.6191 61.2748 92.085H60.9664C60.8893 92.085 60.8122 92.0073 60.7351 92.0073C60.7351 91.4637 61.5061 87.8138 62.3543 86.3383L61.9688 86.0277C61.5832 86.4159 61.0435 87.0372 60.3495 87.7361C59.6556 88.4351 58.8845 89.134 58.0364 89.7553C56.34 91.0754 54.4124 91.9297 52.8703 91.3861C50.9427 90.6872 52.5619 82.6884 62.0459 77.5629C64.5132 76.2427 67.6746 74.9225 71.5298 75.1555C71.6069 75.7768 71.4527 76.7087 71.4527 76.7087L71.3756 77.0193L71.1443 77.2523C71.1443 77.2523 70.913 77.4852 70.6817 77.6406C69.7564 76.5533 64.6674 77.0193 62.2772 78.2618C58.5761 80.2809 53.1016 86.5713 55.9545 88.7457C58.0364 90.3765 64.1277 83.1543 64.7446 78.6501L65.6698 78.4171C65.7469 79.2714 65.3614 80.5139 64.8217 81.6011C64.2819 82.8437 63.6651 83.8532 63.588 83.9309L63.9735 84.3192C64.2048 84.1639 64.1277 84.3192 64.8217 84.0085C65.1301 83.8532 65.4385 83.6979 65.7469 83.6203C65.9011 83.6203 65.9782 83.5426 66.0553 83.5426C66.0553 83.6979 65.9782 83.9309 65.9782 84.1639C65.9011 84.7851 65.7469 85.1734 65.5156 85.7947C65.2072 86.8042 64.9759 87.2702 64.5903 88.2798C64.359 88.5904 64.359 88.7457 64.4361 88.8234ZM88.1075 88.668L88.5702 88.5127C89.187 88.2797 89.9581 88.2021 90.1894 88.2021C89.9581 88.4351 89.4954 88.668 89.0328 88.9787C88.1075 89.5999 86.8738 90.3765 85.8715 91.2308C85.4088 91.619 84.7149 91.9297 84.4065 91.852C84.3294 91.7744 84.2523 91.6967 84.2523 91.5414C84.2523 91.2308 84.3294 90.7648 84.5607 90.1435C84.9462 88.901 85.6402 87.2702 86.4112 85.5617C87.1823 83.8532 87.8762 82.1447 88.416 80.7469C88.6473 80.048 88.8786 79.4267 88.9557 78.8831C89.0328 78.4171 89.1099 77.9512 88.8786 77.6406C88.7244 77.4076 88.416 77.4076 88.2618 77.4852C88.0304 77.5629 87.7991 77.6406 87.5678 77.7959C87.1052 78.1065 86.4883 78.4948 85.8715 78.9608C84.7149 79.8927 83.5583 80.9022 83.5583 80.9022C83.5583 80.9022 82.7873 82.766 82.0162 84.7851C81.3223 86.6489 80.5512 88.668 80.3199 89.5223C79.0862 90.1435 78.1609 90.6872 77.467 91.0754C77.0814 91.3084 76.8501 91.4637 76.5417 91.5414C76.3104 91.6967 76.0791 91.7744 75.9249 91.852C75.7707 91.9297 75.6164 91.9297 75.5393 91.9297C76.002 91.0755 77.3128 88.4351 78.5464 85.717C79.3175 84.0862 80.0115 82.3777 80.5512 81.1352C80.7825 80.5139 81.0138 79.8927 81.0909 79.5044C81.168 79.2714 81.168 79.1161 81.168 78.9608C81.168 78.8054 81.168 78.6501 81.0138 78.4948C80.2428 77.9512 77.3128 79.7373 75.9249 81.2905C74.8454 83.1543 73.072 86.416 72.0696 89.8329C71.9154 90.2989 68.6769 92.0074 68.0601 91.7744C67.7517 91.6967 67.7517 91.3861 67.983 91.1531C70.6046 88.8234 73.4575 80.7469 74.1514 78.0288C74.2285 77.8735 74.0743 77.7182 73.9972 77.6406C73.9201 77.5629 73.843 77.4852 73.6888 77.4852C73.4575 77.4076 73.2262 77.3299 72.9177 77.3299C72.4551 77.2523 71.9154 77.3299 71.5298 77.5629C71.4527 77.4076 71.2214 77.097 71.2214 77.0193C71.3756 77.0193 72.4551 76.864 73.4575 76.5533C74.537 76.2427 75.8478 75.6214 76.8501 74.6119C76.9272 74.5342 77.1586 74.3789 77.3128 74.3013C77.467 74.2236 77.6212 74.2236 77.6212 74.2236C77.6212 74.3789 77.6212 74.5342 77.5441 74.7672C77.467 75.1555 77.3899 75.6991 77.2357 76.3204C77.0043 77.4852 76.6188 78.6501 76.3875 78.9608L76.773 79.2714C78.1609 77.7959 83.0186 75.0002 83.7896 75.4661C84.2523 75.6991 84.4065 76.3204 84.3294 77.0193C84.3294 77.4076 84.2523 77.7182 84.1752 78.0288C84.0981 78.3395 84.0209 78.6501 83.9438 78.8054L83.7125 79.582L84.3294 79.0384C85.5631 78.0289 87.1823 76.9416 88.5702 76.2427C89.2641 75.8544 89.881 75.6214 90.4207 75.4661C90.9604 75.3108 91.2689 75.3885 91.346 75.4661C91.9628 76.0097 91.4231 78.4171 90.4978 81.2905C89.5725 84.0862 88.3389 86.9596 87.9533 88.2021L88.1075 88.668ZM105.456 72.1268C106.227 70.263 106.767 68.8652 106.921 68.5545C107.153 68.1662 106.921 67.8556 106.613 67.7003C106.304 67.545 105.996 67.545 105.611 67.4673H104.3V67.312C104.685 67.2343 105.533 67.079 106.459 66.8461C107.692 66.5354 109.08 66.0695 109.928 65.3705H111.471C110.854 66.6907 108.772 71.4279 106.767 76.0097C104.454 81.3682 102.064 87.1149 102.449 87.8138L102.526 88.0468C102.526 88.1244 102.603 88.2021 102.68 88.2798C102.835 88.4351 102.989 88.5127 103.22 88.4351C103.683 88.4351 104.068 88.1244 104.377 87.8138C104.531 87.6585 104.685 87.5032 104.839 87.4255C104.994 87.3478 105.071 87.2702 105.148 87.1925H105.302C105.225 87.3478 105.148 87.4255 105.071 87.5032C104.685 88.1244 100.907 91.2308 99.4421 91.3861C98.671 91.4637 98.4397 91.3084 98.3626 91.1531C98.2855 91.0755 98.2855 90.9978 98.2084 90.8425C98.1313 90.6872 98.1313 90.5318 98.1313 90.4542C98.1313 90.3765 100.213 85.0181 102.526 79.4267L105.456 72.1268ZM114.863 90.5318L115.172 89.8329L114.478 90.1435C113.398 90.6872 111.856 91.1531 110.083 91.619C108.309 92.085 106.304 92.6286 104.3 93.2499C100.367 94.4924 96.4349 96.1232 94.5844 98.8413C92.1941 102.414 93.4278 106.84 98.7481 105.908C103.683 105.209 111.933 96.9775 114.863 90.5318ZM129.205 58.3813C132.058 59.4685 136.761 64.7493 136.838 68.9428C136.915 78.0289 128.434 85.7947 116.945 89.2893H116.791L116.714 89.4446C111.008 103.268 99.9818 110.956 93.7362 109.48C89.1099 108.393 89.7268 101.326 93.4278 97.6764C96.0494 95.1137 99.2878 93.7935 103.066 92.6286C106.844 91.4637 111.162 90.3765 115.711 88.2798L115.788 88.2021V88.1244C116.02 87.5808 116.945 85.2511 117.639 82.9213C118.025 81.7564 118.333 80.5916 118.41 79.7373C118.487 79.2714 118.487 78.8831 118.41 78.4948C118.333 78.1842 118.256 77.8735 117.947 77.7182C116.405 76.864 109.851 84.9404 106.69 90.2989C106.613 90.1435 106.536 90.0659 106.536 89.9882C107.924 86.8819 110.006 79.0384 108.541 77.6406C108.386 77.4852 108.155 77.4852 108.078 77.4852C107.924 77.4852 107.769 77.5629 107.615 77.7182C107.384 77.8735 107.23 78.0289 107.076 78.1065L106.844 77.9512C107.847 77.1746 110.854 74.8449 111.625 75.3885C111.779 75.5438 111.933 75.8544 111.933 76.398C111.933 76.9416 111.856 77.6406 111.779 78.3395C111.548 79.7373 111.162 81.2128 111.008 81.6788L111.471 81.9118C113.707 78.0288 118.873 74.0683 119.875 74.0683C120.338 74.0683 121.186 75.1555 121.34 75.6214C121.648 76.7863 120.877 79.2714 119.875 81.6788C118.873 84.0862 117.793 86.3383 117.562 86.9596L117.331 87.5032L117.87 87.3478C123.576 85.717 135.913 78.3395 135.836 69.0981C135.99 64.128 132.058 60.0898 129.205 58.3813ZM93.1194 78.0288C92.9652 78.0288 92.6568 77.8735 92.7339 77.6406C93.0423 77.4852 93.8905 77.1746 94.6615 76.9416L95.8952 76.5533C96.2807 76.398 96.5891 76.3204 96.6663 76.2427C96.9747 76.0874 97.5144 75.7768 98.1313 75.4661C98.7481 75.1555 99.365 75.0778 99.7505 75.2332C99.7505 75.2332 99.7505 75.3108 99.8276 75.3108V75.7768C99.7505 76.1651 99.5963 76.7087 99.365 77.3299C98.9023 78.6501 98.1313 80.2809 97.3602 81.9894C96.5892 83.6979 95.8181 85.4064 95.3555 86.7266C95.1241 87.4255 94.9699 87.9691 94.8928 88.4351C94.8928 88.668 94.8157 88.901 94.8928 89.0563C94.8928 89.2117 95.047 89.4446 95.2013 89.5223C95.9723 89.9106 96.6663 89.5999 97.206 89.2893C97.3602 89.2116 97.4373 89.134 97.5144 89.134C97.5915 89.0563 97.7457 89.0563 97.8228 88.9787H98.0542C97.8999 89.134 97.7457 89.2116 97.4373 89.367C96.8976 89.6776 96.0494 90.0659 95.2013 90.3765C93.3507 91.0755 91.5773 91.4637 91.1918 91.3084C90.1123 90.8425 96.1265 78.1065 96.2036 77.7959L96.4349 77.3299L93.1194 78.0288Z" fill="#FEFEFE"/>
</g>
</g>
</svg>
