<svg width="150" height="150" viewBox="0 0 150 150" fill="none" xmlns="http://www.w3.org/2000/svg">
<g id="Bank Logos/dbp">
<g id="dbp" clip-path="url(#clip0_3421_74)">
<path id="Vector" d="M21.0557 15.892C57.3255 15.8997 93.5954 15.8852 129.865 15.8989C130.905 16.1242 131.967 16.17 132.994 16.4304C136.083 17.5904 138.831 20.1013 139.694 23.3078C139.852 23.6483 140.284 25.1112 140.155 25.4392C140.158 54.2494 140.145 93.7116 140.125 122.521C140.125 125.285 137.956 133.973 130.07 133.973H10.1972C10.1972 133.973 10.1595 54.758 10.1496 26.5083C10.075 25.943 10.2139 24.1623 10.4889 23.7118C11.1111 21.488 12.4753 19.43 14.3556 18.0448C16.2862 16.7583 18.6875 15.7824 21.0557 15.892Z" fill="#0508D3"/>
<path id="Vector_2" d="M10.1494 111.655C10.1494 111.464 10.1493 111.464 10.1493 111.258C32.8703 128.642 110.354 130.222 140.149 111.87C140.171 115.845 140.159 118.072 140.159 122.324C140.159 126.575 137.167 133.954 130.07 133.954C90.7794 133.948 49.531 133.964 10.2416 133.945C10.0304 126.539 10.2165 119.082 10.1494 111.655Z" fill="#E7000E"/>
<path id="Vector_3" d="M99.9925 25.4033C100.256 25.4071 100.51 25.5178 100.682 25.724C102.801 27.853 104.927 29.9752 107.046 32.1035C107.251 32.3021 107.45 31.9271 107.6 31.8538C108.582 30.7503 109.779 29.8576 110.672 28.6686C111.739 27.627 112.755 26.5044 113.824 25.485C119.459 25.3842 125.121 25.4567 130.766 25.4483C130.967 31.0642 130.817 36.7351 130.84 42.3716C128.671 44.5373 126.569 46.7465 124.36 48.8672C124.254 48.9909 124.176 49.1589 124.238 49.3223C126.439 51.5751 128.766 53.7163 130.84 56.0829C130.88 61.4208 130.842 66.7602 130.859 72.0989C130.884 72.3532 130.846 72.6121 130.759 72.8519C125.301 72.8763 119.843 72.8526 114.385 72.8633C114.109 72.9244 113.865 72.8244 113.641 72.69C111.571 70.6388 109.532 68.5586 107.508 66.4647C107.386 66.3608 107.276 66.1531 107.088 66.2333C104.861 68.4044 102.721 70.6907 100.461 72.816C94.8715 72.9236 89.2557 72.8305 83.6559 72.8626C83.4409 72.913 83.2823 72.5716 83.4287 72.4044C83.4264 67.1856 83.4333 61.9676 83.4257 56.7488C83.1992 55.8584 84.2194 55.5117 84.6037 54.8664C86.3742 53.1604 88.1044 51.3964 89.8421 49.6552C89.9687 49.462 90.3118 49.2116 90.0449 48.9764C87.8436 46.7748 85.64 44.5754 83.447 42.3662C83.4043 36.9023 83.4394 31.4376 83.4295 25.9729C83.2587 25.7186 83.4706 25.5835 83.6033 25.4529C89.0651 25.3971 94.5307 25.4957 99.9925 25.4033ZM86.9553 28.8847C86.7395 29.0321 86.9522 29.3788 86.8561 29.5629C86.8767 33.3719 86.8325 37.1826 86.8783 40.9916C87.9633 42.0928 89.0598 43.1841 90.1555 44.2753C90.2508 44.3517 90.2988 44.1432 90.292 44.0737C90.2912 40.2547 90.2904 36.4357 90.2912 32.6167C90.1433 32.4319 90.3042 32.1142 90.5184 32.1585C94.3218 32.1417 98.1274 32.1952 101.929 32.1325C102.211 32.1234 102.123 31.7996 101.912 31.7423C100.869 30.8519 100.059 29.7171 98.9639 28.8954C94.9646 28.8542 90.9569 28.8771 86.9553 28.8847ZM115.402 28.8954C114.338 29.7408 113.464 30.8313 112.459 31.7545C112.286 31.8278 112.331 32.0134 112.327 32.1547C116.185 32.1715 120.043 32.1448 123.902 32.1669C124.226 32.538 123.998 33.0924 124.072 33.5338C124.128 37.1047 123.973 40.674 124.076 44.2372C124.224 44.2005 124.37 44.1363 124.47 44.0134C125.426 43.0634 126.373 42.1035 127.33 41.1543C127.533 40.9542 127.346 40.6358 127.428 40.4067C127.414 36.5945 127.441 32.7824 127.415 28.971C127.394 28.9496 127.353 28.9076 127.332 28.8863C123.356 28.874 119.378 28.8557 115.402 28.8954ZM94.1274 35.5537C93.8727 35.5369 93.6027 35.7217 93.6836 36.002C93.7583 44.7343 93.7309 53.4926 93.6874 62.2211C93.5761 62.4899 93.8391 62.9 94.1792 62.706C102.821 62.7045 111.464 62.7053 120.106 62.7053C120.267 62.8274 120.614 62.7014 120.563 62.4769C120.555 53.5483 120.575 44.619 120.553 35.6911C120.532 35.6705 120.489 35.6293 120.469 35.6087C111.69 35.5506 102.904 35.6606 94.1274 35.5537ZM90.0846 54.1715C89.0369 55.2093 88.0014 56.2608 86.9545 57.2994C86.7593 57.5025 86.9217 57.8118 86.8569 58.047C86.8645 61.7385 86.8577 65.4292 86.86 69.1207C86.7128 69.2887 86.8729 69.6293 87.0872 69.5789C90.9004 69.5758 94.7137 69.5819 98.5262 69.5758C98.8091 69.6583 99.0615 69.491 99.2331 69.2925C100.109 68.4135 100.982 67.5315 101.865 66.6602C101.999 66.5128 102.213 66.3738 102.193 66.1478C98.2578 66.1264 94.3225 66.1592 90.388 66.1325C90.3659 66.1104 90.3225 66.0668 90.3004 66.0447C90.2775 62.2333 90.2988 58.4219 90.2912 54.6098C90.3766 54.5113 90.3065 54.063 90.0846 54.1715ZM124.088 54.16C123.833 54.4342 124.255 54.8626 124.028 55.1909C124.104 58.6846 124.078 62.1875 124.043 65.6835C124.023 65.8599 123.953 66.0966 123.761 66.1371C119.896 66.1791 116.029 66.0905 112.17 66.1463C112.175 66.1982 112.186 66.3005 112.191 66.3524C113.274 67.3857 114.209 68.564 115.326 69.5613C119.322 69.5705 123.328 69.5964 127.328 69.5689C127.35 69.5468 127.394 69.5033 127.416 69.4811C127.427 65.4238 127.441 61.3643 127.408 57.307C126.472 56.3586 125.52 55.4254 124.588 54.4739C124.438 54.3586 124.31 54.0951 124.088 54.16Z" fill="#F6F6F7"/>
<path id="Vector_4" d="M16.4287 79.391C16.3074 79.126 16.6887 79.1283 16.8602 79.1191C22.5287 79.1703 28.2017 79.0328 33.8663 79.1993C37.37 79.2123 40.8515 79.7629 44.1768 80.8763C45.6484 81.2986 46.9744 82.0943 48.3721 82.7037C50.1251 83.546 51.612 84.8786 52.9479 86.2829C56.6079 89.5811 58.2289 94.5105 58.7253 99.284C58.7497 100.814 58.7482 102.348 58.6719 103.877C58.6171 104.941 58.2289 105.942 58.1069 106.994C57.5076 110.499 55.6791 113.668 53.4839 116.41C52.5758 117.336 51.6356 118.232 50.6459 119.069C49.8025 119.509 49.2688 120.329 48.3835 120.701C46.7823 121.621 45.1383 122.481 43.3815 123.063C40.9194 124.061 38.2339 124.356 35.6193 124.705C29.6466 124.727 23.6732 124.704 17.7005 124.717C17.2903 124.701 16.8511 124.749 16.4729 124.556C16.9647 123.89 17.744 123.459 18.1336 122.703C18.6086 122.114 18.8351 121.386 19.0921 120.688C19.1645 119.252 19.4573 117.838 19.3178 116.391C19.487 106.766 19.2842 97.1084 19.4215 87.4788C19.4321 86.3203 19.4992 85.1527 19.3063 84.0042C19.009 82.8969 19.0051 81.656 18.2312 80.7304C17.8827 79.9927 17.0783 79.7659 16.4287 79.391ZM33.1312 84.1997C31.1098 84.2172 29.1296 84.3814 27.1586 84.7854C26.9649 84.877 26.3717 84.7037 26.393 85.0794C26.4029 96.4257 26.377 107.773 26.406 119.119C26.7666 119.512 27.3888 119.254 27.8349 119.457C28.1902 119.636 28.5951 119.648 28.9855 119.673C31.0008 119.654 33.0291 119.749 35.0329 119.542C35.559 119.22 36.2201 119.495 36.7485 119.202C38.2979 118.832 39.8885 118.488 41.3418 117.77C43.1299 116.98 44.7228 115.805 46.1624 114.501C48.0793 112.811 49.3046 110.505 50.074 108.115C50.6748 105.9 51.0729 103.621 50.9097 101.307C50.6169 100.928 51.1606 100.47 50.8312 100.093C50.7153 99.2886 50.7595 98.4463 50.5132 97.6575C50.4926 96.1913 49.7438 94.8717 49.3511 93.4734C48.5406 91.6117 47.4098 89.8835 45.8574 88.5731C45.5333 88.2631 45.2809 87.7934 44.7967 87.7178C44.3209 87.3177 43.868 86.8954 43.2931 86.6426C41.6796 85.8881 40.0761 85.0275 38.2895 84.7701C36.6464 84.3051 34.872 84.1676 33.1312 84.1997Z" fill="#F6F6F7"/>
<path id="Vector_5" d="M60.63 79.1321C66.0019 79.1703 71.3859 79.0519 76.76 79.1657C80.8188 79.2199 85.1055 79.9087 88.369 82.4998C89.8811 83.9263 91.0225 85.8301 91.2757 87.9064C91.5845 89.2184 91.1529 90.5273 90.992 91.8232C90.4972 92.8457 90.2509 94.0416 89.2825 94.761C88.183 96.0416 86.8379 97.1092 85.2847 97.7819C85.0537 97.8957 84.7037 98.0019 84.6496 98.2791C87.419 98.9206 90.2402 100.081 92.2159 102.244C94.7474 104.398 95.8751 107.858 95.6128 111.118C95.5617 113.389 94.6398 115.531 93.4755 117.441C91.5647 120.012 88.9585 122.058 85.9679 123.211C84.1944 123.93 82.2614 124.252 80.362 124.46C79.187 124.686 77.9861 124.644 76.795 124.717C71.3943 124.662 65.9698 124.811 60.5828 124.643C60.8832 124.205 61.4398 124.047 61.8264 123.697C62.4722 123.068 62.8863 122.253 63.2134 121.428C63.5916 120.246 63.465 118.99 63.5306 117.764C63.5237 108.601 63.5291 99.4368 63.5275 90.273C63.375 87.4337 63.9301 84.4227 62.9305 81.6995C62.4959 80.9481 61.9187 80.276 61.2332 79.7445C60.9991 79.5567 60.5172 79.5246 60.63 79.1321ZM72.8605 83.5155C72.2132 83.9431 71.0816 83.4017 70.6409 84.1088C70.5891 88.373 70.631 92.6487 70.6211 96.9167C70.5403 97.1344 70.676 97.5735 70.9749 97.4933C72.3786 97.5002 73.8289 97.6567 75.2235 97.4108C76.4527 97.2581 77.6094 96.8366 78.7905 96.554C80.558 95.9034 82.3987 94.8877 83.184 93.0779C83.6476 92.2623 83.6461 91.3054 83.8833 90.4242C83.9077 89.74 83.5729 89.0985 83.6034 88.4158C83.1086 87.0977 82.3316 85.8224 81.152 84.9893C80.3048 84.4868 79.3837 84.0531 78.4123 83.8392C76.6364 83.2673 74.7149 83.5269 72.8605 83.5155ZM75.1488 101.85C74.6776 101.939 74.1461 101.768 73.713 101.997C72.7324 102.234 71.5117 101.735 70.6318 102.203C70.599 107.567 70.6302 112.934 70.6165 118.3C70.6447 118.641 70.5601 119.062 70.7835 119.36C71.305 119.374 71.8533 119.308 72.3237 119.57C75.4774 119.664 78.7715 119.983 81.7963 119.097C83.5043 118.66 85.12 117.785 86.3446 116.485C87.0774 115.466 87.512 114.267 87.9192 113.099C87.9085 111.905 87.9939 110.703 87.8612 109.515C87.8772 109.038 87.5135 108.661 87.5837 108.172C87.0743 106.632 86.0411 105.259 84.706 104.342C83.5844 103.527 82.3354 102.756 80.9751 102.501C80.6884 102.185 80.1927 102.446 79.887 102.147C78.3216 101.935 76.7493 101.662 75.1488 101.85Z" fill="#F6F6F7"/>
<path id="Vector_6" d="M98.2214 79.4269C97.818 79.3536 98.3114 78.861 98.5264 79.1237C104.55 79.1634 110.578 79.0359 116.599 79.2024C120.091 79.4803 123.632 80.4326 126.433 82.6373C127.921 83.5254 128.963 85.0114 129.681 86.5609C130.786 89.278 130.988 92.4318 129.913 95.197C129.273 96.4463 128.86 97.8369 127.841 98.8564C126.232 101.042 123.785 102.366 121.305 103.31C118.046 104.45 114.4 104.567 111.084 103.58C110.939 103.563 110.692 103.264 110.902 103.205C113.817 103.005 116.721 102.005 119.039 100.202C120.93 98.5258 122.44 96.2149 122.669 93.6644C122.653 92.5028 122.827 91.2833 122.432 90.1676C122.063 87.9981 120.512 86.0737 118.469 85.255C116.984 84.4922 115.294 84.1646 113.624 84.2386C112.219 84.2967 110.781 84.089 109.4 84.428C109.006 84.5815 108.054 84.2478 108.129 84.9259C108.146 95.9988 108.119 107.073 108.142 118.145C108.281 118.862 108.378 119.585 108.417 120.317C108.758 121.318 109.191 122.333 110.012 123.04C110.338 123.762 111.277 123.899 111.646 124.559C110.733 124.822 109.757 124.676 108.82 124.714C105.239 124.641 101.644 124.85 98.0712 124.622C98.0331 124.312 98.5089 124.399 98.6286 124.124C99.5382 123.567 100.104 122.518 100.568 121.57C100.92 120.433 100.81 119.215 101.104 118.064C101.132 107.249 101.12 96.4318 101.111 85.6155C100.915 84.4364 100.848 83.2497 100.512 82.1012C100.176 80.9343 99.2691 79.9996 98.2214 79.4269Z" fill="#F6F6F7"/>
</g>
</g>
<defs>
<clipPath id="clip0_3421_74">
<rect width="130.388" height="119" fill="white" transform="translate(10 15.5)"/>
</clipPath>
</defs>
</svg>
