<svg width="150" height="150" viewBox="0 0 150 150" fill="none" xmlns="http://www.w3.org/2000/svg">
<g id="Bank Logos/eastwest">
<g id="eastwest">
<g id="Group 4182">
<g id="Group">
<path id="Vector" d="M75.0496 91.7885C74.9403 90.2068 74.5906 88.7118 74.9184 86.8485C75.7053 82.4068 76.8201 77.6185 74.8092 73.4801C74.7654 73.3718 75.0714 73.1768 75.0277 73.0685C76.1425 71.2052 77.3884 69.4718 79.0714 68.0852C81.4976 66.1135 84.0987 64.3585 86.6124 62.4735C87.3118 61.9535 88.0331 61.4335 88.7544 60.9135C88.8637 60.8268 89.2572 60.5668 89.2572 60.5668C89.2572 60.5668 89.3665 60.3501 89.4539 60.4151C92.0768 62.2135 94.809 64.3152 96.9948 66.6768C98.1751 67.9552 99.4866 69.2768 99.7271 71.0535C99.8582 72.0068 99.574 73.4585 99.1369 74.0001C98.6342 74.4335 98.4156 74.5851 97.891 74.9535C90.4156 80.4351 82.984 85.9818 75.5305 91.5068C75.3775 91.6368 75.2026 91.7018 75.0496 91.7885Z" fill="url(#paint0_linear_3421_74)"/>
<path id="Vector_2" d="M75.0933 29.1285C74.7435 30.3852 74.7654 30.7102 74.4594 31.9885C73.4758 36.1918 73.0168 41.6302 74.4594 45.7685C74.7217 46.5052 74.678 47.1118 74.984 47.8485C73.7381 50.3618 71.8365 52.3552 69.5851 54.0018C66.9184 55.9735 64.2299 57.9235 61.5633 59.8952C61.2573 60.1118 61.0387 60.2418 60.6671 60.3068C60.5578 60.2852 60.3392 60.3285 60.2081 60.2418C57.7819 58.5518 55.1589 57.0568 53.1043 54.9118C51.7491 53.5035 50.1535 51.5318 49.9568 49.5168C49.8256 48.1302 50.6562 47.8268 50.9841 46.9602C58.4158 41.5435 66.9403 35.1302 74.3282 29.6485C74.525 29.5185 74.831 29.3018 75.0933 29.1285Z" fill="url(#paint1_linear_3421_74)"/>
<path id="Vector_3" d="M75.0496 91.7885C72.9731 90.2718 70.8966 88.7552 68.8201 87.2168C61.9568 82.1252 55.0934 77.0335 48.2519 71.9418C46.3503 70.5118 44.6235 68.9085 43.2246 66.9585C39.9897 62.4735 40.1645 57.5768 43.6836 53.3302C45.629 50.9685 48.4705 48.7585 51.0279 46.9385C50.7 47.5885 50.4158 48.9535 50.5688 49.8418C50.8967 51.7268 51.9459 53.1785 53.2136 54.5218C55.159 56.5802 57.5196 58.1185 59.8365 59.7218C63.7054 62.4085 67.3994 65.2468 71.0715 68.1718C72.7327 69.4935 74.0004 71.2052 74.984 73.0902C75.0277 73.1985 75.0496 73.3068 75.0933 73.4152C77.1042 77.5535 77.3009 81.9085 76.5359 86.3502C76.2299 88.2135 75.6397 90.0118 75.0496 91.7885Z" fill="url(#paint2_linear_3421_74)"/>
<path id="Vector_4" d="M75.0932 29.1285C75.2462 29.2368 90.5904 40.6335 98.1969 46.2452C100.536 47.9785 102.918 49.6252 104.951 51.7052C106.306 53.0918 107.486 54.5868 108.273 56.3635C109.672 59.5918 109.476 62.7335 107.683 65.7452C105.672 69.1252 102.35 71.6385 99.1149 73.9785C100.273 70.6635 98.4592 68.2152 96.2734 66.0485C94.1095 63.9035 91.5084 62.1918 89.0603 60.4152C85.9565 58.1835 82.9838 55.8002 79.9019 53.5035C78.0003 52.0952 76.4702 50.3402 75.3118 48.2602C75.2243 48.1085 75.115 47.9568 75.0057 47.8052C74.6997 47.0902 74.35 46.3752 74.0877 45.6385C72.6451 41.5002 72.7762 37.2968 73.7599 33.0935C74.044 31.8802 75.0495 29.1285 75.0932 29.1285Z" fill="url(#paint3_linear_3421_74)"/>
<path id="Vector_5" d="M89.2353 60.5668C89.0604 60.4368 89.1041 60.4802 89.0604 60.4368C85.9566 58.2052 82.9839 55.8218 79.902 53.5252C78.0003 52.1168 76.4703 50.3618 75.3118 48.2818C75.2244 48.1302 75.1151 47.9785 75.0058 47.8268C73.7599 50.3402 71.8583 52.3335 69.6069 53.9802C66.9403 55.9518 64.2518 57.9018 61.5851 59.8735C61.2791 60.0902 61.0605 60.2202 60.689 60.2852C64.2518 62.7985 67.6835 65.4202 71.1151 68.1502C72.7763 69.4718 74.0441 71.1835 75.0277 73.0685C76.1424 71.2052 77.3883 69.4718 79.0714 68.0852C81.4976 66.1135 84.0987 64.3585 86.6123 62.4735C87.3118 61.9535 88.0331 61.4335 88.7544 60.9135C88.8637 60.8268 89.2353 60.5668 89.2353 60.5668Z" fill="#D5DE4E"/>
</g>
<g id="Group_2">
<path id="Vector_6" d="M70.241 106.088V106.067C69.9131 104.355 69.2792 102.86 67.312 102.427C68.5798 102.405 69.8694 102.318 71.1371 102.622C72.3393 102.925 73.0606 103.618 73.3229 104.853C74.1972 109.013 75.0715 113.152 75.9896 117.29C76.0551 117.572 75.924 117.983 76.383 118.07C76.8857 118.178 77.1043 117.962 77.2136 117.442C78.1972 112.978 79.2027 108.537 80.1863 104.073C80.3393 103.337 80.689 103.055 81.4322 103.098C82.4595 103.142 83.4868 103.12 84.5141 103.098C85.1261 103.098 85.4321 103.337 85.5633 103.943C86.5469 108.472 87.5742 113 88.5797 117.528C88.6671 117.897 88.7327 118.092 89.1698 118.092C89.6507 118.092 89.6288 117.767 89.6944 117.507C90.6999 112.783 91.7053 108.082 92.6671 103.358C92.8201 102.643 93.0824 102.297 93.8692 102.383C94.3501 102.448 94.8529 102.383 95.3337 102.405C96.1643 102.405 96.3173 102.6 96.0987 103.423C95.749 104.853 95.3774 106.283 95.0059 107.713C94.0223 111.548 93.0387 115.405 92.0769 119.24C91.7928 120.323 91.749 120.367 90.6124 120.367C89.4758 120.367 88.3174 120.367 87.1808 120.367C86.2409 120.367 86.1097 120.258 85.913 119.348C84.9513 114.95 83.9677 110.573 82.9841 106.175C82.9622 106.067 82.9185 105.98 82.7655 105.872C82.4595 107.128 82.1535 108.385 81.8693 109.663C81.1043 112.935 80.3393 116.228 79.618 119.5C79.4868 120.128 79.1589 120.388 78.5032 120.367C77.1917 120.345 75.9021 120.345 74.5907 120.367C74.0661 120.367 73.7601 120.172 73.6508 119.652C72.5579 115.21 71.465 110.79 70.394 106.348C70.3065 106.262 70.2847 106.175 70.241 106.088Z" fill="#B12273"/>
<path id="Vector_7" d="M121.585 101.972C123.334 101.972 125.06 102.188 126.765 102.622C127.224 102.73 127.399 102.947 127.312 103.402C127.312 103.445 127.312 103.488 127.29 103.532C127.049 105.157 127.049 105.157 125.388 104.897C123.705 104.637 122.044 104.312 120.317 104.593C119.727 104.68 119.181 104.832 118.656 105.113C117.804 105.568 117.432 106.283 117.454 107.215C117.476 108.147 117.913 108.797 118.765 109.165C119.858 109.663 121.06 109.685 122.241 109.88C122.918 109.988 123.618 110.097 124.295 110.27C126.765 110.898 127.924 112.35 127.989 114.885C128.077 118.33 126.131 120.345 122.547 120.713C119.902 120.995 117.366 120.627 114.831 119.868C114.197 119.673 114 119.392 114.153 118.72C114.503 117.225 114.459 117.247 115.924 117.615C118.088 118.178 120.252 118.525 122.481 118.048C124.186 117.68 124.929 116.532 124.689 114.842C124.536 113.888 123.967 113.325 123.071 113.065C121.804 112.675 120.47 112.61 119.159 112.372C118.131 112.177 117.104 111.917 116.23 111.332C115.071 110.573 114.437 109.49 114.328 108.103C114.088 105.092 115.268 103.25 117.869 102.427C118.722 102.167 119.596 102.015 120.47 101.972C120.842 101.95 121.213 101.972 121.585 101.972Z" fill="#B12273"/>
<path id="Vector_8" d="M52.3395 101.95C54.11 101.972 55.8587 102.188 57.5854 102.622C58.0444 102.73 58.2193 102.947 58.11 103.402C58.0444 103.64 58.0444 103.9 57.9789 104.16C57.7821 105.157 57.7821 105.178 56.733 104.983C55.2685 104.723 53.804 104.442 52.2958 104.485C51.4215 104.507 50.5691 104.593 49.7822 104.94C48.7549 105.395 48.2303 106.153 48.274 107.215C48.2959 108.212 48.8423 108.927 49.9352 109.295C51.2248 109.728 52.6018 109.75 53.9133 110.01C54.263 110.075 54.6128 110.118 54.9406 110.205C57.4761 110.79 58.7002 112.22 58.7876 114.69C58.9187 117.658 57.7821 119.5 55.2466 120.28C52.4925 121.125 49.7166 120.908 46.9844 120.215C46.4379 120.085 45.9133 119.89 45.3888 119.738C45.1702 119.673 44.9079 119.587 44.9297 119.305C44.9516 118.698 45.0828 118.113 45.3232 117.55C45.4762 117.16 45.8915 117.355 46.1975 117.442C47.9243 117.94 49.6729 118.287 51.4871 118.265C52.2521 118.243 53.0171 118.2 53.7603 117.94C55.0936 117.485 55.6619 116.597 55.5745 115.188C55.5089 113.953 54.8532 113.238 53.498 112.957C52.0991 112.675 50.7002 112.523 49.3013 112.242C45.9133 111.548 44.3833 108.948 45.345 105.655C45.8696 103.878 47.1592 102.925 48.8423 102.405C49.957 102.037 51.1374 101.907 52.3395 101.95Z" fill="#552E84"/>
<path id="Vector_9" d="M67.3119 102.405C69.2791 102.838 69.913 104.333 70.2409 106.045C69.607 105.135 68.689 104.875 67.6398 104.875C66.678 104.897 65.7382 104.897 64.7764 104.875C64.3611 104.853 64.2081 104.94 64.2081 105.395C64.23 109.013 64.2081 112.653 64.23 116.272C64.23 117.42 64.8638 118.027 66.0223 118.178C67.2682 118.33 68.4922 118.135 69.6944 117.875C70.1753 117.767 70.372 117.918 70.4813 118.352C70.9622 120.042 70.9622 120.042 69.2136 120.432C67.5742 120.778 65.9349 120.908 64.2955 120.562C62.3283 120.15 61.2355 118.915 61.0387 116.922C60.995 116.423 60.9732 115.903 60.9513 115.405C60.9513 109.577 60.9513 103.77 60.9294 97.9418C60.9294 97.2485 61.0606 96.8585 61.8256 96.7718C62.3283 96.7285 62.8092 96.5335 63.3119 96.4252C64.0333 96.2735 64.1863 96.4035 64.2081 97.1402C64.23 98.6785 64.23 100.238 64.2081 101.777C64.2081 102.253 64.3174 102.427 64.8201 102.405C65.6289 102.362 66.4813 102.405 67.3119 102.405Z" fill="#552E84"/>
<path id="Vector_10" d="M130.11 107.063C130.11 103.965 130.131 100.867 130.088 97.7685C130.088 97.1618 130.263 96.8802 130.875 96.7935C131.421 96.7285 131.967 96.5335 132.514 96.4252C133.082 96.2952 133.388 96.4468 133.366 97.1185C133.344 98.6785 133.366 100.26 133.344 101.82C133.344 102.275 133.476 102.405 133.935 102.405C135.487 102.383 137.06 102.405 138.612 102.383C139.18 102.383 139.399 102.6 139.443 103.142C139.53 104.897 139.552 104.897 137.803 104.897C136.514 104.897 135.246 104.918 133.956 104.897C133.519 104.897 133.344 104.983 133.344 105.46C133.366 109.013 133.344 112.567 133.366 116.142C133.366 117.463 133.978 118.092 135.29 118.222C136.514 118.352 137.716 118.157 138.896 117.897C139.355 117.788 139.53 117.94 139.64 118.352C140.12 120.085 140.12 120.085 138.328 120.475C136.885 120.778 135.421 120.887 133.956 120.692C131.508 120.388 130.153 118.828 130.131 116.228C130.088 113.152 130.11 110.097 130.11 107.063Z" fill="#B12273"/>
<path id="Vector_11" d="M26.1538 108.017C25.7603 104.745 24.0773 102.86 20.8423 102.188C19.05 101.82 17.2358 101.863 15.4216 102.21C12.6894 102.73 11.0719 104.398 10.5254 107.063C9.95715 109.772 9.93529 112.523 10.5036 115.253C11.1375 118.265 13.0391 120.042 16.0992 120.562C18.7877 121.017 21.4325 120.843 24.0554 120.128C25.5855 119.717 25.5855 119.695 25.1483 118.222C24.9079 117.42 24.8423 117.355 24.0336 117.593C22.1975 118.135 20.3177 118.438 18.3943 118.308C15.2467 118.092 13.8041 116.792 13.4981 113.888C13.4325 113.39 13.52 113.195 14.0883 113.195C15.9899 113.238 17.9134 113.217 19.815 113.217C21.7166 113.217 23.6401 113.217 25.5418 113.217C26.1101 113.217 26.3505 113 26.3286 112.437C26.3068 110.963 26.3505 109.49 26.1538 108.017ZM22.4817 110.768C21.2795 110.768 20.0555 110.768 18.8533 110.768C18.8533 110.79 18.8533 110.812 18.8533 110.833C17.2139 110.833 15.5965 110.833 13.9571 110.833C13.673 110.833 13.4107 110.877 13.4325 110.422C13.4981 109.273 13.5418 108.125 13.8697 106.998C14.285 105.482 15.3123 104.68 16.8642 104.507C17.9352 104.398 19.0063 104.377 20.0555 104.593C21.3013 104.853 22.0882 105.568 22.4817 106.738C22.8751 107.908 22.9625 109.122 23.0281 110.357C23.0281 110.768 22.7877 110.768 22.4817 110.768Z" fill="#552E84"/>
<path id="Vector_12" d="M112.339 107.735C111.88 104.593 110.197 102.817 107.071 102.188C105.279 101.82 103.465 101.863 101.651 102.21C99.0497 102.708 97.4103 104.225 96.7983 106.782C96.1207 109.663 96.0989 112.545 96.7328 115.427C97.3448 118.135 99.0497 119.847 101.804 120.432C104.689 121.06 107.552 120.843 110.372 120.063C111.749 119.673 111.727 119.652 111.356 118.287C111.115 117.377 111.05 117.355 110.153 117.593C108.055 118.2 105.935 118.503 103.727 118.2C101.257 117.875 99.7928 116.358 99.6617 113.888C99.6398 113.39 99.7273 113.195 100.296 113.195C102.175 113.238 104.077 113.217 105.957 113.217C107.858 113.217 109.782 113.217 111.683 113.217C112.143 113.217 112.47 113.13 112.47 112.588C112.492 110.963 112.58 109.338 112.339 107.735ZM108.733 110.747C107.531 110.725 106.306 110.747 105.104 110.747C105.104 110.768 105.104 110.79 105.104 110.812C103.465 110.812 101.847 110.79 100.208 110.812C99.7491 110.812 99.5743 110.682 99.618 110.227C99.7273 109.23 99.7491 108.212 99.9896 107.215C100.383 105.677 101.279 104.745 102.875 104.528C103.858 104.398 104.842 104.355 105.804 104.507C107.771 104.81 108.623 105.742 108.951 107.908C109.061 108.688 109.082 109.468 109.192 110.248C109.279 110.66 109.126 110.747 108.733 110.747Z" fill="#B12273"/>
<path id="Vector_13" d="M43.0717 106.522C43.028 103.943 42.0007 102.73 39.4215 102.253C36.2521 101.668 33.1046 101.972 30.0008 102.73C28.0554 103.207 28.4051 103.012 28.733 104.788C28.7549 104.853 28.7767 104.918 28.7767 104.983C28.8204 105.503 29.0609 105.612 29.5855 105.503C30.9844 105.157 32.3833 104.81 33.8259 104.68C35.2248 104.55 36.6237 104.507 38.0007 104.745C39.334 104.983 39.8586 105.59 39.8805 106.912C39.8805 107.323 39.8586 107.757 39.8805 108.168C39.9242 108.602 39.7493 108.753 39.3122 108.818C36.6018 109.252 33.8914 109.663 31.2029 110.205C28.9079 110.66 27.8805 111.765 27.6183 114.018C27.2467 117.268 28.2303 119.803 31.8805 120.518C34.9406 121.125 38.0007 120.93 41.0171 120.085C42.5253 119.673 43.028 118.98 43.0499 117.42C43.0936 115.578 43.0499 113.715 43.0499 111.873C43.0717 110.075 43.0936 108.298 43.0717 106.522ZM39.5308 117.918C37.4324 118.438 35.2903 118.633 33.1701 118.135C31.1592 117.658 30.1975 115.015 31.3122 113.238C31.6838 112.653 32.274 112.393 32.9297 112.242C33.1483 112.177 33.3887 112.155 33.6073 112.112C35.6838 111.787 37.7384 111.462 39.8805 111.115C39.8805 113.26 39.8805 115.383 39.8805 117.507C39.8805 117.767 39.7712 117.853 39.5308 117.918Z" fill="#552E84"/>
</g>
</g>
</g>
</g>
<defs>
<linearGradient id="paint0_linear_3421_74" x1="94.5551" y1="76.2805" x2="70.588" y2="75.9321" gradientUnits="userSpaceOnUse">
<stop offset="0.0647" stop-color="#442D7A"/>
<stop offset="0.5124" stop-color="#7A2B85"/>
<stop offset="0.6766" stop-color="#8D2A8C"/>
<stop offset="0.796" stop-color="#902A8D"/>
<stop offset="0.8905" stop-color="#442D7A"/>
</linearGradient>
<linearGradient id="paint1_linear_3421_74" x1="48.3503" y1="44.7148" x2="82.7869" y2="44.7148" gradientUnits="userSpaceOnUse">
<stop offset="0.0846" stop-color="#72135E"/>
<stop offset="0.8806" stop-color="#DC0B83"/>
</linearGradient>
<linearGradient id="paint2_linear_3421_74" x1="78.1412" y1="69.3714" x2="37.3626" y2="69.3646" gradientUnits="userSpaceOnUse">
<stop offset="0.0846" stop-color="#72135E"/>
<stop offset="0.8806" stop-color="#DC0B83"/>
</linearGradient>
<linearGradient id="paint3_linear_3421_74" x1="80.6883" y1="38.5775" x2="107.929" y2="72.5013" gradientUnits="userSpaceOnUse">
<stop offset="0.0647" stop-color="#442D7A"/>
<stop offset="0.5124" stop-color="#7A2B85"/>
<stop offset="0.6766" stop-color="#8D2A8C"/>
<stop offset="0.796" stop-color="#902A8D"/>
<stop offset="0.8905" stop-color="#442D7A"/>
</linearGradient>
</defs>
</svg>
