<svg width="150" height="150" viewBox="0 0 150 150" fill="none" xmlns="http://www.w3.org/2000/svg">
<g id="Bank Logos/gcash">
<g id="gcash">
<g id="Group 4214">
<path id="Vector" d="M119.462 100.645C119.583 100.162 120.067 99.8002 120.584 99.8222C121.575 99.8222 122.565 99.8112 123.555 99.8222C124.128 99.8002 124.656 100.305 124.656 100.876C124.678 103.774 124.645 106.672 124.667 109.559C126.108 108.263 127.979 107.517 129.894 107.33C132.062 107.111 134.35 107.484 136.188 108.702C138.488 110.195 139.754 112.906 139.963 115.574C140.029 118.142 139.985 120.711 139.996 123.279C139.985 125.145 140.018 127.022 139.974 128.888C139.831 129.36 139.346 129.668 138.862 129.646C137.905 129.646 136.936 129.657 135.979 129.646C135.462 129.668 134.978 129.284 134.868 128.79C134.879 125.453 134.868 122.116 134.868 118.779C134.868 118.109 134.89 117.44 134.824 116.77C134.692 115.135 134.075 113.4 132.689 112.401C131.566 111.567 130.07 111.381 128.716 111.611C127.66 111.798 126.67 112.358 125.987 113.192C125.041 114.355 124.678 115.881 124.667 117.352C124.656 121.084 124.667 124.827 124.656 128.559C124.667 129.108 124.205 129.602 123.654 129.635C122.884 129.668 122.125 129.635 121.355 129.646C120.991 129.646 120.639 129.668 120.287 129.613C119.88 129.525 119.55 129.185 119.462 128.79C119.462 119.405 119.462 110.031 119.462 100.645Z" fill="#002CB8" stroke="#002CB8" stroke-width="0.0340402"/>
<path id="Vector_2" opacity="0.52" d="M119.396 101.096C119.407 100.953 119.429 100.799 119.462 100.646C119.462 110.031 119.462 119.405 119.462 128.79C119.363 128.307 119.407 127.824 119.407 127.341C119.396 118.592 119.418 109.844 119.396 101.096Z" fill="#000B31" stroke="#000B31" stroke-width="0.0340402"/>
<path id="Vector_3" d="M22.7358 101.161C25.0026 100.909 27.3355 101.096 29.4923 101.842C32.0672 102.731 34.4001 104.345 36.0287 106.529C36.3809 106.935 36.5459 107.539 36.3038 108.044C36.0177 108.702 35.2584 108.911 34.6972 109.284C34.059 109.603 33.4428 110.217 32.6615 110.031C32.0562 109.954 31.7591 109.372 31.385 108.955C29.9435 107.363 27.8747 106.397 25.7399 106.178C24.0452 106.013 22.2956 106.2 20.711 106.858C18.8513 107.638 17.2997 109.076 16.3313 110.832C15.374 112.577 15.0659 114.619 15.2529 116.584C15.385 118.142 15.9132 119.679 16.8265 120.963C18.081 122.731 19.9517 124.059 22.0645 124.619C23.5611 124.992 25.1567 125.124 26.6752 124.739C28.6009 124.278 30.4386 123.323 31.8032 121.864C32.7715 120.832 33.4318 119.514 33.7069 118.131C33.7179 118.077 33.7399 117.956 33.7509 117.901C31.0659 117.912 28.3809 117.901 25.7069 117.912C25.1236 117.802 24.6175 117.297 24.5844 116.693C24.5514 116.145 24.5844 115.596 24.5734 115.047C24.5734 114.652 24.5294 114.213 24.7605 113.861C25.0246 113.411 25.5418 113.17 26.048 113.203C29.7234 113.203 33.3987 113.203 37.0741 113.203C38.0535 113.17 38.9228 114.07 38.8458 115.047C38.8018 116.43 38.8348 117.846 38.4937 119.196C38.0865 120.92 37.3932 122.577 36.4029 124.048C35.5776 125.288 34.4661 126.309 33.2447 127.154C31.6491 128.241 29.8664 129.042 27.9957 129.503C25.4868 130.14 22.8238 129.986 20.3369 129.317C16.9146 128.384 13.9325 126.068 12.0728 123.071C10.07 119.866 9.57482 115.87 10.3451 112.215C11.0934 108.615 13.4153 105.431 16.4634 103.39C18.3231 102.149 20.5019 101.403 22.7358 101.161Z" fill="#002CB8" stroke="#002CB8" stroke-width="0.0340402"/>
<path id="Vector_4" d="M54.8128 101.129C56.8155 100.942 58.8733 101.085 60.799 101.688C63.7261 102.588 66.4001 104.465 68.0947 107.034C68.4249 107.517 68.2708 108.263 67.7536 108.56C67.0274 108.999 66.2681 109.416 65.5308 109.855C65.2007 110.042 64.8595 110.283 64.4634 110.228C64.0892 110.217 63.7921 109.954 63.5941 109.657C62.4276 107.923 60.5239 106.749 58.4992 106.321C56.8485 105.991 55.1099 106.068 53.4923 106.518C51.6986 107.023 50.103 108.132 48.9916 109.603C47.9242 110.975 47.319 112.665 47.1759 114.388C46.9888 116.353 47.275 118.406 48.2213 120.162C49.1346 121.864 50.5982 123.269 52.3699 124.037C54.0205 124.761 55.8692 124.948 57.6408 124.772C59.7866 124.542 61.8664 123.51 63.2309 121.831C63.495 121.512 63.6711 121.106 64.0232 120.876C64.3754 120.656 64.8485 120.689 65.2007 120.909C66.037 121.392 66.8843 121.864 67.7206 122.347C68.1498 122.577 68.3699 123.126 68.2378 123.598C68.1058 123.96 67.8416 124.256 67.6216 124.564C65.0576 127.967 60.788 129.953 56.5404 129.898C53.2282 129.953 49.8499 128.933 47.2639 126.825C45.7564 125.607 44.4799 124.103 43.5666 122.39C42.6092 120.601 42.092 118.603 41.971 116.573C41.8279 114.388 42.092 112.149 42.8733 110.086C44.0177 107.1 46.2516 104.542 49.0246 102.94C50.7853 101.919 52.788 101.326 54.8128 101.129Z" fill="#002CB8" stroke="#002CB8" stroke-width="0.0340402"/>
<path id="Vector_5" d="M79.1648 107.122C81.2446 106.705 83.4894 106.825 85.4042 107.78C86.8347 108.483 88.0451 109.701 88.5623 111.227C88.6284 110.239 88.5513 109.24 88.5953 108.241C88.6064 107.704 89.1235 107.254 89.6627 107.254C90.6971 107.243 91.7205 107.243 92.7549 107.254C93.3381 107.243 93.8553 107.758 93.8333 108.351C93.8333 114.86 93.8333 121.37 93.8333 127.89C93.8333 128.175 93.8443 128.472 93.8113 128.768C93.7343 129.273 93.2501 129.646 92.7439 129.646C91.8966 129.657 91.0603 129.635 90.2129 129.646C89.9268 129.646 89.6407 129.668 89.3766 129.602C88.9475 129.481 88.6174 129.097 88.5953 128.658C88.5623 127.989 88.6063 127.319 88.5733 126.66C88.0011 127.165 87.4729 127.714 86.8457 128.153C85.2831 129.317 83.3574 129.997 81.4097 129.997C79.2638 130.019 77.118 129.35 75.3904 128.076C73.7068 126.858 72.4413 125.113 71.693 123.192C70.7907 120.898 70.6036 118.362 71.0108 115.947C71.3959 113.697 72.4193 111.524 74.0369 109.888C75.4234 108.483 77.2391 107.517 79.1648 107.122ZM81.3436 111.589C79.77 111.82 78.3285 112.731 77.4372 114.048C75.8086 116.408 75.7425 119.69 77.118 122.182C77.8663 123.587 79.1648 124.739 80.7274 125.157C82.7191 125.727 84.997 125.179 86.4936 123.741C87.803 122.533 88.4743 120.755 88.5623 118.999C88.6944 116.968 88.1442 114.784 86.6696 113.313C85.3161 111.908 83.2583 111.282 81.3436 111.589Z" fill="#002CB8" stroke="#002CB8" stroke-width="0.0340402"/>
<path id="Vector_6" d="M105.212 106.957C107.522 106.749 109.965 107.045 111.957 108.296C113.74 109.394 114.917 111.337 115.17 113.4C115.236 114.004 114.708 114.597 114.103 114.575C113.146 114.586 112.177 114.575 111.231 114.586C110.901 114.597 110.549 114.553 110.307 114.322C109.965 114.048 109.943 113.587 109.767 113.214C109.437 112.445 108.733 111.886 107.941 111.633C107.104 111.37 106.213 111.359 105.355 111.469C104.65 111.567 103.924 111.787 103.44 112.336C102.912 112.917 102.89 113.905 103.407 114.498C103.946 115.124 104.749 115.431 105.509 115.706C107.677 116.43 109.965 116.814 112.012 117.879C113.201 118.494 114.301 119.394 114.906 120.601C115.864 122.5 115.699 124.893 114.488 126.638C113.465 128.153 111.803 129.108 110.064 129.58C107.941 130.151 105.652 130.14 103.539 129.547C101.921 129.086 100.392 128.23 99.2584 126.99C98.367 126.024 97.7288 124.805 97.5197 123.499C97.4097 122.884 97.9489 122.27 98.5761 122.27C99.6435 122.259 100.711 122.27 101.767 122.27C102.273 122.248 102.747 122.588 102.879 123.071C103.044 123.631 103.374 124.147 103.825 124.52C104.738 125.288 105.982 125.563 107.159 125.486C108.073 125.442 109.03 125.255 109.745 124.652C110.362 124.136 110.593 123.17 110.152 122.478C109.767 121.896 109.085 121.589 108.447 121.326C106.598 120.634 104.639 120.316 102.791 119.624C101.437 119.13 100.095 118.45 99.1263 117.352C97.7178 115.771 97.4207 113.389 98.158 111.447C98.7742 109.844 100.128 108.626 101.657 107.912C102.769 107.374 103.99 107.078 105.212 106.957Z" fill="#002CB8" stroke="#002CB8" stroke-width="0.0340402"/>
<path id="Vector_7" opacity="0.27" d="M25.7068 117.912C28.3808 117.901 31.0658 117.912 33.7508 117.901C33.7398 117.956 33.7178 118.076 33.7068 118.131C33.4867 118.011 33.2336 117.967 32.9915 117.967C30.7577 117.989 28.5128 117.956 26.279 117.989C26.0809 117.989 25.8939 117.945 25.7068 117.912Z" fill="#00030E" stroke="#00030E" stroke-width="0.0340402"/>
</g>
<g id="Group 4215">
<path id="Vector_8" d="M58.3078 21.6716C62.381 20.3442 66.7138 19.7938 70.998 20.069C77.2781 20.409 83.4123 22.6266 88.524 26.2688C89.0758 26.6735 89.6762 27.0458 90.1468 27.5638C90.9582 28.4865 91.2828 29.7976 90.9907 30.9955C90.6986 32.2905 89.6762 33.3912 88.4104 33.7797C87.1771 34.1682 85.7653 33.9092 84.7754 33.0837C80.9619 30.1538 76.3207 28.3084 71.5335 27.8552C69.7809 27.6609 67.9958 27.6609 66.2432 27.8552C61.1964 28.357 56.3118 30.3804 52.3846 33.6017C47.9544 37.2115 44.7251 42.2943 43.4593 47.8628C42.2909 52.9132 42.6479 58.3198 44.5304 63.1599C46.5102 68.3075 50.1939 72.759 54.835 75.7375C58.3078 77.9551 62.3161 79.3311 66.4055 79.7196C67.9958 79.9138 69.6186 79.9138 71.1927 79.7358C76.1422 79.3149 80.9294 77.421 84.8565 74.3939C85.8464 73.6169 87.2583 73.3903 88.4591 73.795C90.1144 74.3615 91.299 76.126 91.088 77.8742C90.9907 78.894 90.4551 79.8652 89.6437 80.4804C86.528 82.9085 82.9903 84.77 79.2255 85.9679C74.3734 87.5219 69.148 87.9266 64.1011 87.2305C58.5025 86.4535 53.1149 84.2197 48.6036 80.8203C44.222 77.5505 40.6519 73.196 38.2989 68.2589C35.9945 63.4189 34.8748 58.0123 35.0695 52.6542C35.248 46.066 37.4388 39.5586 41.301 34.2006C45.4554 28.3732 51.4759 23.8892 58.3078 21.6716Z" fill="#007CFF" stroke="#007CFF" stroke-width="0.0340402"/>
<path id="Vector_9" d="M105.79 30.8662C107.478 30.3644 109.458 31.1576 110.269 32.744C114.164 40.3359 115.868 49.0123 115.17 57.5107C114.683 63.5648 113.012 69.5379 110.204 74.9283C109.182 76.8546 106.44 77.4698 104.671 76.2071C103.032 75.155 102.496 72.8078 103.47 71.1081C108.89 60.4892 108.939 47.3288 103.583 36.6775C103.097 35.8034 102.837 34.7674 103.08 33.78C103.356 32.4041 104.444 31.2386 105.79 30.8662Z" fill="#6FBAF7" stroke="#6FBAF7" stroke-width="0.0340402"/>
<path id="Vector_10" d="M57.7885 35.4144C64.6691 31.2704 73.9677 31.3837 80.6536 35.9C82.3088 37.114 82.6496 39.704 81.3676 41.3066C80.2154 42.8767 77.8299 43.3462 76.1909 42.294C73.5944 40.6429 70.4462 39.9306 67.3954 40.2868C64.3446 40.6105 61.4236 42.0188 59.2815 44.2041C57.1394 46.3247 55.7438 49.1736 55.403 52.1683C55.0947 54.5964 55.5004 57.1055 56.5065 59.3393C57.8372 62.2854 60.2552 64.7297 63.2086 66.0895C66.227 67.514 69.7647 67.7406 72.9453 66.7532C77.197 65.4582 80.7185 61.9455 81.9356 57.6882C78.8847 57.7044 75.8339 57.6882 72.7831 57.6882C71.3226 57.6882 69.9107 56.7817 69.3103 55.4705C68.5638 53.9651 68.9533 52.0064 70.2191 50.9057C70.8682 50.3229 71.7282 49.9344 72.6045 49.9021C77.2133 49.8697 81.8057 49.8859 86.4144 49.8859C87.9236 49.8373 89.3841 50.7762 89.9846 52.1521C90.5039 53.2205 90.3416 54.4345 90.2767 55.5838C89.871 60.5696 87.6153 65.3772 84.0452 68.9061C80.6211 72.3378 75.9962 74.5555 71.1603 75.0411C66.4055 75.5591 61.4885 74.4098 57.4477 71.836C53.3746 69.2622 50.1939 65.2639 48.636 60.6991C47.0457 56.0857 47.1268 50.9219 48.7821 46.3408C50.4049 41.8084 53.6504 37.891 57.7885 35.4144Z" fill="#002CB8" stroke="#002CB8" stroke-width="0.0340402"/>
<path id="Vector_11" d="M95.2425 37.5353C96.914 37.0983 98.8126 37.9562 99.5916 39.494C103.811 48.3971 103.811 59.1779 99.5916 68.081C99.0561 69.1331 97.985 69.9101 96.8004 70.1044C95.421 70.3472 93.9443 69.7644 93.0842 68.6637C92.1917 67.5144 92.0294 65.8633 92.6785 64.5683C95.8267 57.7534 95.778 49.5788 92.5974 42.7801C91.6399 40.6919 93.0031 38.021 95.2425 37.5353Z" fill="#6FBAF7" stroke="#6FBAF7" stroke-width="0.0340402"/>
<path id="Vector_12" opacity="0.46" d="M66.4055 79.7195C68.0121 79.7519 69.6024 79.7519 71.1927 79.7357C69.6186 79.9138 67.9958 79.9138 66.4055 79.7195Z" fill="#001E3E" stroke="#001E3E" stroke-width="0.0340402"/>
</g>
</g>
</g>
</svg>
