<svg width="150" height="150" viewBox="0 0 150 150" fill="none" xmlns="http://www.w3.org/2000/svg">
<g id="Bank Logos/gotyme">
<g id="gotyme " clip-path="url(#clip0_3421_74)">
<path id="path1829" d="M88.9062 75.1381L84.3439 64.4533H80.7504L87.2191 79.0495L84.0944 86.4491H87.5294L96.7499 64.4533H93.219L88.9072 75.1381H88.9062ZM116.061 64.145C113.748 64.145 111.843 65.2229 110.78 66.9158C109.874 65.1887 108.123 64.145 105.625 64.145C103.624 64.145 102.03 64.9449 101.032 66.3028V64.4524H97.7168V79.8446H101.061V71.2903C101.061 68.4549 102.683 67.0078 104.873 67.0078C107.123 67.0078 108.404 68.4245 108.404 70.6735V79.8513H111.776V71.1659C111.776 68.4236 113.402 67.0069 115.496 67.0069C117.832 67.0069 119.119 68.5175 119.119 70.8262V79.8503H122.526V70.6099C122.528 66.669 120.31 64.144 116.06 64.144L116.061 64.145ZM76.6009 59.0028L73.2199 60.8181V64.4524H70.5649V67.4092H73.2199V73.5648C73.2199 78.3691 74.6575 79.8465 79.4068 79.8465H79.9078V76.7408C77.0345 76.7408 76.5942 76.309 76.5942 73.5382V67.4082H79.9078V64.4533H76.6009V59.0028ZM139.995 72.0579C139.995 67.4709 136.526 64.1468 131.932 64.1468C127.34 64.1468 123.841 67.6882 123.841 72.2154C123.841 76.5871 126.966 80.1597 131.902 80.1597C135.902 80.1597 138.56 78.0655 139.746 74.6798H136.152C135.558 76.2787 134.09 77.2959 131.932 77.2959C129.184 77.2959 127.408 75.5698 127.028 73.1995H139.995V72.0579ZM127.249 70.4258C127.566 69.4371 128.196 68.5781 129.043 67.9776C129.896 67.372 130.92 67.0545 131.967 67.0714C134.31 67.0714 136.03 68.2727 136.592 70.4258H127.249ZM36.3749 58.1725C36.3861 58.1599 36.3947 58.1451 36.4001 58.1291C36.4055 58.1131 36.4076 58.0961 36.4062 58.0793C36.4049 58.0624 36.4002 58.046 36.3923 58.031C36.3844 58.0161 36.3736 58.0028 36.3605 57.9921C33.5945 55.7575 29.8435 54.6956 26.0488 54.6956C16.7742 54.6956 10 61.5401 10 70.2976C10 79.0561 16.7742 85.9024 26.1342 85.9024C33.4968 85.9024 39.7311 81.8743 41.1146 73.7583C41.1687 73.4431 41.2143 73.1216 41.253 72.7951V72.7593L41.2817 72.4802C41.2817 72.4551 41.2817 72.4279 41.2889 72.4024C41.2996 72.317 41.3068 72.2299 41.314 72.1435V72.0402C41.3212 71.9584 41.3283 71.8759 41.3319 71.7945L41.3427 71.6722C41.3427 71.5944 41.3534 71.5158 41.3534 71.4369C41.3534 71.3896 41.3534 71.3419 41.3606 71.2928C41.3606 71.2178 41.3678 71.1486 41.3714 71.0697V69.4025C41.3714 69.3017 41.3642 69.2013 41.3606 69.0987V69.0029C41.3606 68.89 41.3498 68.7781 41.3427 68.6662V68.598C41.3355 68.4682 41.3247 68.3352 41.314 68.2014V68.1906C41.3032 68.0339 41.2889 67.8758 41.2731 67.7171C41.2619 67.605 41.209 67.5011 41.125 67.4259C41.0405 67.35 40.9312 67.3077 40.8176 67.3072H26.4408C26.3509 67.3076 26.2631 67.3342 26.1881 67.3838C26.1131 67.4333 26.0541 67.5037 26.0185 67.5862C25.9951 67.6409 25.9829 67.6996 25.9827 67.7591V72.7845C25.9836 72.867 26.0185 72.9459 26.0766 73.0036C26.1362 73.0621 26.2162 73.0951 26.2997 73.0958H34.7658C34.075 77.2682 31.0973 79.9422 26.1365 79.9422C20.183 79.9422 16.3001 75.6901 16.3001 70.2899C16.3001 66.8264 17.9057 63.9246 20.5987 62.2337C20.5987 62.2337 20.7676 62.12 21.0826 61.9539C22.0068 61.451 23.0032 61.0904 24.0384 60.8836C26.3613 60.3806 29.8229 60.5125 33.3804 62.7396C33.4117 62.7578 33.4466 62.769 33.4826 62.7723C33.5187 62.7757 33.555 62.7712 33.5891 62.7591C33.6233 62.747 33.6543 62.7277 33.6802 62.7024C33.7061 62.6771 33.7262 62.6465 33.7391 62.6126C34.1234 61.7824 35.2099 59.5961 36.3723 58.1736L36.3749 58.1725ZM68.6927 72.3018L62.6387 71.5123C62.6094 71.5088 62.58 71.5165 62.5562 71.5338C62.5327 71.5516 62.517 71.5779 62.5124 71.607C62.4664 71.9171 62.4043 72.2247 62.3263 72.5284C62.3205 72.5497 62.3213 72.5724 62.3288 72.5932C62.3362 72.614 62.3499 72.6321 62.3679 72.6449C62.3797 72.6533 62.3929 72.6594 62.407 72.6629L68.313 74.1973C68.3418 74.2049 68.3724 74.201 68.3984 74.1865C68.4114 74.1792 68.4229 74.1692 68.432 74.1573C68.4412 74.1454 68.4478 74.1318 68.4515 74.1173C68.5958 73.5612 68.7077 72.9966 68.7903 72.4283C68.7926 72.4134 68.7919 72.3983 68.7881 72.3838C68.7844 72.3692 68.7778 72.3556 68.7686 72.3437C68.7595 72.3318 68.7481 72.3219 68.735 72.3145C68.7219 72.3072 68.7075 72.3025 68.6926 72.3009L68.6927 72.3018ZM62.0133 66.9661C62.0711 67.1178 62.1252 67.2727 62.1747 67.4263C62.1938 67.4815 62.2335 67.5273 62.2854 67.5542C62.3374 67.581 62.3976 67.5868 62.4538 67.5705L68.1026 65.9687C68.147 65.9566 68.1867 65.9312 68.2164 65.896C68.246 65.8607 68.2643 65.8173 68.2686 65.7714C68.271 65.741 68.2671 65.7103 68.2572 65.6814C68.1488 65.3303 68.0272 64.9834 67.8928 64.6414C67.882 64.614 67.8658 64.589 67.8453 64.5678C67.8248 64.5466 67.8003 64.5297 67.7732 64.518C67.7183 64.4944 67.6562 64.4932 67.6004 64.5146L62.1461 66.6724C62.1177 66.683 62.0917 66.6991 62.0695 66.7198C62.0474 66.7405 62.0295 66.7653 62.0169 66.7929C62.0047 66.8203 61.998 66.8499 61.9974 66.8799C61.9968 66.9099 62.0022 66.9397 62.0134 66.9676L62.0133 66.9661ZM62.4422 68.4691C62.4849 68.6872 62.5201 68.9009 62.5477 69.1268C62.5549 69.1741 62.5764 69.2189 62.6169 69.2501C62.6557 69.2804 62.7047 69.2944 62.7535 69.2892L68.6785 68.7142C68.7281 68.7092 68.7737 68.685 68.8057 68.6468C68.8214 68.6279 68.8332 68.6062 68.8404 68.5827C68.8476 68.5592 68.85 68.5345 68.8474 68.5101C68.7963 68.0602 68.7251 67.6128 68.6339 67.1693C68.629 67.145 68.6192 67.122 68.6052 67.1016C68.5912 67.0812 68.5732 67.0639 68.5523 67.0506C68.51 67.0238 68.4589 67.0147 68.41 67.0255L62.5884 68.2534C62.5403 68.2636 62.4981 68.2921 62.4708 68.333C62.4572 68.3529 62.4476 68.3753 62.4427 68.399C62.4378 68.4226 62.4376 68.447 62.4421 68.4707L62.4422 68.4691ZM62.6101 69.9684C62.6173 70.2456 62.613 70.5216 62.5957 70.7968C62.5936 70.817 62.5957 70.8375 62.6021 70.8568C62.6084 70.8761 62.6188 70.8939 62.6326 70.9089C62.6463 70.9239 62.6631 70.9358 62.6818 70.9438C62.7005 70.9518 62.7207 70.9557 62.741 70.9553L68.7552 71.4051C68.796 71.4077 68.8363 71.394 68.8671 71.3671C68.8824 71.3539 68.8947 71.3377 68.9036 71.3196C68.9124 71.3015 68.9174 71.2818 68.9184 71.2616C68.9532 70.7348 68.9611 70.2065 68.942 69.6788C68.9423 69.6485 68.9329 69.6189 68.9151 69.5943C68.8973 69.5698 68.8722 69.5515 68.8433 69.5422C68.8241 69.5358 68.8038 69.5333 68.7836 69.535L62.7542 69.8244C62.7162 69.8244 62.6782 69.8424 62.6517 69.8671C62.6384 69.8805 62.6278 69.8963 62.6207 69.9137C62.6135 69.9311 62.61 69.9496 62.6101 69.9684ZM68.1346 74.9397L62.2381 73.1084C62.2189 73.1035 62.1985 73.1061 62.1811 73.1155C62.1632 73.1245 62.1495 73.1403 62.1431 73.1593C62.0305 73.5047 61.8974 73.8431 61.7445 74.1727C61.7379 74.1859 61.7354 74.2007 61.7373 74.2153C61.7392 74.2299 61.7455 74.2435 61.7553 74.2545C61.7624 74.2621 61.7709 74.2682 61.7804 74.2724L67.3752 76.863C67.3934 76.871 67.4141 76.8717 67.4329 76.8648C67.4516 76.8579 67.4669 76.844 67.4756 76.826C67.7479 76.2445 67.9843 75.6468 68.1835 75.0363C68.1865 75.027 68.1877 75.0172 68.1869 75.0074C68.1861 74.9976 68.1833 74.988 68.1788 74.9793C68.1692 74.9619 68.1532 74.9489 68.1342 74.9431L68.1346 74.9397ZM61.4695 65.221C61.4071 65.2575 61.3615 65.317 61.3427 65.3868C61.3238 65.4566 61.3332 65.531 61.3687 65.5939L61.4372 65.7162L61.5046 65.8396C61.541 65.9024 61.5997 65.9491 61.6691 65.9704C61.7384 65.9916 61.8132 65.9859 61.8785 65.9544L67.0472 63.4493C67.0809 63.433 67.111 63.4102 67.1358 63.3822C67.1605 63.3542 67.1794 63.3215 67.1914 63.2861C67.2032 63.2508 67.2078 63.2135 67.2047 63.1764C67.2016 63.1394 67.191 63.1033 67.1735 63.0705C67.0502 62.8302 66.9188 62.5941 66.7796 62.3627C66.7387 62.2997 66.6753 62.2547 66.6024 62.2367C66.5294 62.2187 66.4524 62.2291 66.3868 62.2658L61.4695 65.221Z" fill="#2D2D3A"/>
<path id="path1831" d="M61.5844 74.5849C61.5755 74.5804 61.5653 74.5794 61.5557 74.5819C61.5466 74.585 61.5389 74.5914 61.5342 74.5999C60.6411 76.2846 59.2608 77.661 57.5735 78.5492C55.8764 79.4443 53.9513 79.8142 52.0433 79.612C50.1378 79.412 48.3354 78.6478 46.867 77.4172C45.4092 76.1961 44.3561 74.5616 43.8467 72.7295C43.3675 71.0742 43.3668 69.3171 43.8447 67.6614C44.3262 66.0001 45.2646 64.5075 46.5529 63.3534C47.5354 62.4574 48.6931 61.775 49.9528 61.3493C51.2158 60.9223 52.5557 60.76 53.886 60.8729C53.895 60.8736 53.9039 60.871 53.9111 60.8657C53.9191 60.8596 53.9242 60.8506 53.9255 60.8406L54.4901 54.6993C54.4897 54.6899 54.4859 54.681 54.4793 54.6742C54.4732 54.6663 54.4641 54.6611 54.4542 54.6599C51.6168 54.4094 48.764 54.9218 46.1911 56.1439C37.6045 60.2224 34.5623 70.852 39.7291 78.7432C41.2464 81.0514 43.3423 82.9215 45.8078 84.1671C48.2861 85.4211 51.0469 86.0115 53.8213 85.8809C56.5939 85.7521 59.2857 84.9063 61.6336 83.426C63.9677 81.9554 65.8741 79.8971 67.1619 77.4574C67.1661 77.4483 67.1666 77.438 67.1633 77.4286C67.1599 77.4192 67.153 77.4115 67.144 77.4072L61.5844 74.5849Z" fill="#2D2D3A"/>
<path id="path1833" d="M59.7029 56.1589L57.1276 61.6133C57.1144 61.639 57.0921 61.6589 57.065 61.6691C57.038 61.6793 57.0081 61.6789 56.9812 61.6681C56.6912 61.5405 56.3951 61.4271 56.094 61.3285C56.0795 61.324 56.0661 61.3166 56.0545 61.3068C56.0429 61.297 56.0334 61.285 56.0266 61.2715C56.0195 61.2582 56.0151 61.2436 56.0139 61.2286C56.0127 61.2136 56.0145 61.1985 56.0194 61.1843L57.8774 55.4519C57.8817 55.4374 57.8891 55.4239 57.8989 55.4123C57.9087 55.4007 57.9208 55.3913 57.9344 55.3845C57.948 55.3774 57.963 55.3731 57.9783 55.3719C57.9936 55.3706 58.0091 55.3725 58.0237 55.3773C58.576 55.5606 59.1168 55.774 59.6463 56.015C59.6726 56.0271 59.6931 56.0488 59.7035 56.0758C59.714 56.1027 59.7135 56.1326 59.7023 56.1592L59.7029 56.1589ZM60.6907 64.5767C60.591 64.4471 60.4885 64.3196 60.3833 64.1943C60.3454 64.1497 60.3268 64.0918 60.3315 64.0334C60.3362 63.9751 60.3639 63.921 60.4084 63.883L64.8057 60.0428C64.8516 60.0027 64.9116 59.9825 64.9724 59.9865C65.0332 59.9906 65.09 60.0185 65.1302 60.0643C65.3694 60.3422 65.6009 60.6298 65.8248 60.9278C65.8428 60.9516 65.8557 60.9788 65.8629 61.0077C65.8701 61.0367 65.8715 61.0668 65.8669 61.0962C65.8622 61.1257 65.8518 61.1539 65.8361 61.1793C65.8203 61.2046 65.7997 61.2265 65.7754 61.2437L60.9976 64.618C60.9506 64.65 60.8934 64.6634 60.8371 64.6555C60.7808 64.6476 60.7295 64.619 60.6931 64.5753L60.6907 64.5767ZM59.626 63.4114C59.4636 63.2578 59.2949 63.1108 59.1203 62.9711C59.0823 62.9405 59.058 62.8961 59.0526 62.8476C59.0473 62.7991 59.0613 62.7504 59.0916 62.7122L62.7695 58.0976C62.785 58.0781 62.8042 58.0618 62.8261 58.0497C62.848 58.0376 62.872 58.03 62.8968 58.0274C62.9469 58.0211 62.9973 58.0348 63.0374 58.0654C63.3932 58.3537 63.7377 58.6537 64.0689 58.964C64.0954 58.99 64.1135 59.0233 64.1209 59.0597C64.1283 59.096 64.1247 59.1338 64.1105 59.1681C64.1008 59.1908 64.0866 59.2115 64.0689 59.2287L59.8889 63.4067C59.8539 63.4404 59.8073 63.4595 59.7587 63.4601C59.7101 63.4608 59.6631 63.4429 59.6271 63.4102L59.626 63.4114ZM58.4304 62.4663C58.1987 62.3114 57.9599 62.1674 57.7149 62.0346C57.697 62.026 57.6809 62.0139 57.6679 61.9989C57.6548 61.9839 57.6449 61.9664 57.6389 61.9474C57.6332 61.9285 57.6316 61.9085 57.6341 61.8889C57.6365 61.8693 57.6431 61.8504 57.6532 61.8334L60.4981 56.5906C60.507 56.5728 60.5195 56.557 60.5349 56.5443C60.5503 56.5315 60.5682 56.5222 60.5874 56.5167C60.6067 56.5111 60.6271 56.5094 60.6471 56.5119C60.6672 56.5143 60.6865 56.5209 60.7039 56.5311C61.1755 56.7843 61.6338 57.0625 62.076 57.3623C62.0931 57.373 62.1077 57.3872 62.119 57.4038C62.1303 57.4205 62.1381 57.4394 62.1417 57.4592C62.1452 57.4791 62.1445 57.4995 62.1396 57.5191C62.1346 57.5387 62.1256 57.557 62.113 57.5729L58.6476 62.4303C58.63 62.4556 58.6052 62.475 58.5764 62.486C58.5476 62.497 58.5162 62.4991 58.4862 62.492C58.4657 62.4876 58.4463 62.479 58.4292 62.4669L58.4304 62.4663ZM57.1456 55.2053L55.54 61.0885C55.5377 61.0984 55.5332 61.1076 55.5271 61.1156C55.5209 61.1237 55.5131 61.1303 55.5042 61.1351C55.4955 61.1401 55.4859 61.1432 55.476 61.1445C55.4661 61.1457 55.456 61.145 55.4464 61.1423C55.0906 61.0512 54.7291 60.9809 54.3647 60.9296C54.3451 60.9269 54.3273 60.9166 54.3152 60.9009C54.3025 60.8863 54.2961 60.8672 54.2973 60.8479L55.0848 54.8061C55.086 54.7963 55.0891 54.7867 55.0941 54.7781C55.099 54.7695 55.1056 54.7619 55.1135 54.7559C55.1216 54.7499 55.1308 54.7455 55.1406 54.743C55.1504 54.7405 55.1606 54.74 55.1706 54.7416C55.8139 54.8269 56.4526 54.9521 57.0816 55.1145C57.0965 55.1174 57.1102 55.1248 57.1209 55.1356C57.1316 55.1464 57.1388 55.1602 57.1415 55.1751C57.1431 55.1846 57.1428 55.1944 57.1406 55.2038L57.1456 55.2053ZM131.395 82.3393V95.198H132.537V92.4082L134.82 90.0597L138.634 95.2009H140L135.659 89.3764L139.816 85.1585H138.324L132.537 91.0845V82.3393H131.395ZM121.86 85.1585H120.739V95.2018H121.881V89.5918C121.881 87.5432 123.449 85.9955 125.508 85.9955C127.729 85.9955 128.992 87.4208 128.992 89.57V95.1933H130.159V89.5786C130.159 86.7015 128.386 84.9602 125.656 84.9602C123.924 84.9602 122.559 85.8237 121.862 87.0478L121.86 85.1595L121.86 85.1585ZM109.982 90.1821C109.982 87.8715 111.815 86.0097 114.118 86.0097C114.667 86.0062 115.211 86.1117 115.719 86.3201C116.227 86.5285 116.689 86.8356 117.077 87.2237C117.466 87.6118 117.773 88.0731 117.982 88.5809C118.191 89.0888 118.297 89.633 118.294 90.1821C118.297 90.7311 118.191 91.2752 117.982 91.7829C117.773 92.2906 117.465 92.7518 117.077 93.1398C116.689 93.5278 116.227 93.8349 115.719 94.0432C115.211 94.2515 114.667 94.357 114.118 94.3535C111.815 94.3535 109.982 92.4841 109.982 90.1821ZM108.814 90.1821C108.814 93.0592 111.077 95.402 114.051 95.402C115.6 95.402 117.331 94.5793 118.167 93.1133V95.2018H119.327V85.1585H118.167V87.248C117.331 85.782 115.6 84.9593 114.051 84.9593C111.055 84.9593 108.814 87.3078 108.814 90.1811V90.1821ZM98.83 90.1821C98.8239 89.6349 98.9282 89.092 99.1365 88.586C99.3453 88.0793 99.6537 87.6191 100.045 87.231C100.436 86.8421 100.901 86.5345 101.412 86.3257C101.925 86.1159 102.474 86.0085 103.028 86.0098C105.33 86.0098 107.142 87.8801 107.142 90.1821C107.142 92.4832 105.33 94.3535 103.028 94.3535C100.643 94.3535 98.83 92.4841 98.83 90.1821ZM97.8375 82.3403V95.199H98.9591V93.1133C99.7941 94.5784 101.503 95.4011 103.075 95.4011C103.769 95.4032 104.456 95.2695 105.098 95.0073C105.738 94.746 106.32 94.361 106.81 93.8743C107.298 93.39 107.684 92.8131 107.946 92.1776C108.207 91.5446 108.337 90.8656 108.329 90.1811C108.329 87.304 106.087 84.9593 103.075 84.9593C101.526 84.9593 99.814 85.782 98.978 87.2272V82.3403H97.8375Z" fill="#2D2D3A"/>
</g>
</g>
<defs>
<clipPath id="clip0_3421_74">
<rect width="130" height="41" fill="white" transform="translate(10 54.5)"/>
</clipPath>
</defs>
</svg>
