<svg width="150" height="150" viewBox="0 0 150 150" fill="none" xmlns="http://www.w3.org/2000/svg">
<g id="Bank Logos/grabpay">
<g id="grabpay">
<g id="Group 4217">
<g id="Group 4216">
<path id="Vector" fill-rule="evenodd" clip-rule="evenodd" d="M99.8559 119.008C100.101 119.202 100.28 119.339 100.456 119.481C103.045 121.581 105.984 122.914 109.291 123.338C111.489 123.62 113.688 123.577 115.784 122.705C118.121 121.733 119.291 119.888 119.504 117.434C119.616 116.139 119.571 114.829 119.594 113.528C119.594 113.418 119.571 113.31 119.554 113.16C119.467 113.203 119.407 113.216 119.375 113.252C117.905 114.93 115.982 115.797 113.854 116.22C110.394 116.907 107.042 116.534 103.907 114.872C100.553 113.093 98.6188 110.2 97.6893 106.582C97.3257 105.163 97.1643 103.713 97.1643 102.246C97.1643 95.8125 97.1643 89.377 97.1643 82.9435C97.1643 82.5693 97.3565 82.3822 97.7409 82.3822C99.9592 82.3822 102.177 82.3929 104.396 82.3714C104.843 82.3671 104.944 82.5026 104.944 82.9371C104.931 89.4716 104.899 96.0104 104.955 102.545C104.981 105.55 106.767 108.587 110.554 109.245C112.744 109.626 114.831 109.279 116.634 107.866C117.994 106.799 118.678 105.339 118.899 103.657C118.986 103.001 118.992 102.33 118.994 101.665C119.001 95.434 118.998 89.2027 118.998 82.9694C118.998 82.5779 119.196 82.3814 119.592 82.38C121.752 82.38 123.913 82.3843 126.073 82.3736C126.404 82.3736 126.52 82.4639 126.52 82.8166C126.51 94.352 126.544 105.887 126.488 117.423C126.473 120.58 125.537 123.499 123.379 125.919C121.574 127.943 119.276 129.137 116.69 129.823C115.16 130.227 113.6 130.406 112.019 130.479C107.63 130.679 103.709 129.457 100.267 126.713C99.957 126.465 99.8193 126.203 99.8236 125.796C99.843 123.667 99.8323 121.535 99.8344 119.406C99.8344 119.307 99.8473 119.206 99.8602 119.002L99.8559 119.008Z" fill="#00B14F"/>
<path id="Vector_2" fill-rule="evenodd" clip-rule="evenodd" d="M34.3085 116.702H33.7878C31.6578 116.702 29.5256 116.687 27.3955 116.715C26.9372 116.722 26.8447 116.577 26.8447 116.152C26.8555 107.064 26.8533 97.9785 26.8533 88.8908C26.8533 84.5137 26.8533 80.1366 26.8533 75.7616C26.8533 75.1895 26.8533 75.1873 27.4213 75.1895C32.7121 75.1916 38.0071 75.1034 43.2935 75.2282C47.1147 75.3185 50.6153 76.48 53.3843 79.2956C55.1207 81.0615 56.147 83.2124 56.6117 85.6257C57.2012 88.6886 57.1367 91.7365 56.1018 94.7026C54.5462 99.1615 51.3188 101.788 46.8242 102.966C45.3052 103.364 43.7539 103.524 42.1854 103.524C39.7498 103.519 37.3143 103.524 34.8787 103.524C34.3085 103.524 34.3064 103.528 34.3064 104.102C34.3064 108.116 34.3064 112.132 34.3064 116.145V116.704L34.3085 116.702ZM38.5579 96.5782C39.5863 96.5782 40.6169 96.6105 41.6432 96.5675C42.5211 96.5309 43.4118 96.4879 44.2681 96.3072C46.6134 95.8168 48.3217 94.5069 49.107 92.1817C49.7353 90.3233 49.7482 88.4284 49.1974 86.5485C48.6638 84.7245 47.4847 83.4727 45.7118 82.7672C44.6059 82.3262 43.4505 82.152 42.2779 82.1369C39.7585 82.1068 37.2368 82.1305 34.7173 82.124C34.3967 82.124 34.2999 82.2445 34.2999 82.5607C34.3085 87.0797 34.3085 91.5967 34.2999 96.1158C34.2999 96.4836 34.4226 96.5868 34.7754 96.5825C36.0362 96.5675 37.2949 96.5761 38.5557 96.5761L38.5579 96.5782Z" fill="#00B14F"/>
<path id="Vector_3" fill-rule="evenodd" clip-rule="evenodd" d="M75.3583 82.5672C85.2017 82.5672 92.2416 88.5446 92.2416 99.7208V116.638H85.5589V111.02H85.2619C83.7107 114.846 79.7152 117.477 75.2399 117.537C65.3986 117.657 58.718 110.663 58.718 100.142C58.718 89.6222 65.5191 82.5694 75.3604 82.5694L75.3583 82.5672ZM75.3583 110.959C81.3246 110.901 85.4405 106.776 85.3803 99.8434C85.3222 92.6701 80.9653 89.0845 75.4185 89.0845C69.8718 89.0845 65.6353 93.4487 65.6353 99.7832C65.6353 106.718 69.8115 111.02 75.3583 110.959Z" fill="#00B14F"/>
</g>
<path id="Vector_4" d="M15.3445 43.9753C15.3445 53.3405 22.4124 60.5224 31.5501 60.5224C40.6878 60.5224 44.7694 54.8354 44.7694 48.5719V46.3306H31.9525V49.7785H41.2623C41.3204 53.1684 38.2157 57.1325 31.5501 57.1325C24.1939 57.1325 19.0796 51.6735 19.0796 43.9753C19.0796 36.2772 24.5963 30.9902 32.1827 30.9902C37.1248 30.9902 41.0321 32.1969 44.6532 34.7242L44.8834 34.5522V31.3344C42.1832 29.4394 37.5853 27.6004 32.0665 27.6004C22.6986 27.6004 15.3423 34.8404 15.3423 43.9753H15.3445ZM10 43.9753C10 56.3862 19.1958 65.6351 31.5523 65.6351C42.8157 65.6351 49.7137 58.5694 49.7137 47.135V41.2738H31.9546V44.6056H46.4949V47.7072C46.4949 56.6701 40.9202 62.2431 31.5523 62.2431C21.2656 62.2431 13.6211 54.3729 13.6211 43.9732C13.6211 33.5735 21.668 25.8753 32.0687 25.8753C37.0108 25.8753 41.4947 27.082 44.8856 29.4373V26.0474C41.6087 23.6921 37.2991 22.4855 32.0687 22.4855C19.5982 22.4855 10 31.9646 10 43.9732V43.9753ZM57.0118 46.9049V64.6586H60.4027V46.963C60.4027 42.9988 62.9889 40.1833 66.8402 40.1833C67.9891 40.1833 69.024 40.4715 70.117 40.9296C70.5774 39.837 71.0357 38.9185 71.6102 38.056C70.4032 37.2516 68.6217 36.7353 66.8983 36.7353C61.0933 36.7353 57.014 40.9296 57.014 46.9049H57.0118ZM52.0116 64.6586H55.4024V46.9049C55.4024 39.895 60.1144 35.1264 66.9542 35.1264C69.2521 35.1264 71.6102 35.8728 72.643 36.5052C73.2755 35.7588 73.964 34.9544 74.8849 34.208C72.7591 32.7153 69.8846 31.8527 66.7821 31.8527C57.7584 31.8527 52.0116 37.942 52.0116 46.963V64.6586ZM105.173 44.7798V49.7785C107.184 47.0791 108.908 44.7217 110.517 42.7687C114.596 37.7699 118.162 35.0124 123.678 35.0124C131.148 35.0124 136.609 40.6436 136.609 48.5719C136.609 56.5002 131.265 62.2453 123.908 62.2453C117.931 62.2453 112.759 58.1671 111.552 52.5941L109.138 55.8699C111.033 61.329 116.608 65.6373 123.85 65.6373C133.16 65.6373 140 58.1693 140 48.574C140 38.9788 133.104 31.5688 123.678 31.5688C114.252 31.5688 109.426 38.8648 105.173 44.7819V44.7798ZM115.689 47.3071H115.575L112.931 50.9271C113.392 55.0633 117.587 60.5783 123.908 60.5783C130.23 60.5783 135 55.3494 135 48.5138C135 41.6782 130.23 36.6213 123.678 36.6213C117.127 36.6213 113.622 41.2759 111.036 44.7217C109.77 46.3887 107.587 49.0881 105.173 52.4779V57.9929C107.414 54.6611 110.459 50.7529 112.701 48.0535C116.494 43.515 118.792 40.0671 123.62 40.0671C128.448 40.0671 131.551 43.6871 131.551 48.5138C131.551 53.3405 128.504 57.1885 123.906 57.1885C119.078 57.1885 115.687 52.764 115.687 47.8233V47.3071H115.689ZM112.299 19.5V33.8058C113.333 33.0013 114.482 32.0248 115.689 31.5645V19.5H112.299ZM107.24 39.0347C108.275 37.714 109.424 36.2772 110.631 35.0705V19.5022H107.24V39.0368V39.0347ZM93.4465 55.4096L93.3884 55.3516C91.9511 56.5002 89.5952 57.1906 87.3532 57.1906C82.7553 57.1906 79.3064 53.7427 79.3064 48.6299C79.3064 43.5172 82.6972 40.0112 87.237 40.0112C92.1211 40.0112 95.1096 43.5731 95.1096 48.3417V64.6586H98.5005V48.1696C98.5005 41.5061 93.8445 36.6213 87.293 36.6213C80.7415 36.6213 75.7993 41.5039 75.7993 48.6299C75.7993 55.7559 80.7415 60.7525 87.293 60.5805C89.7651 60.5224 92.2932 59.6039 93.4422 58.7995V55.4096H93.4465ZM70.6872 48.5719C70.6872 58.5694 77.7551 65.6351 87.2951 65.6351C89.4209 65.6351 91.8931 65.0028 93.4443 63.7961V60.4062C92.4094 61.2688 89.8813 62.2453 87.2951 62.2453C79.4785 62.2453 74.1921 56.7303 74.1921 48.5719C74.1921 40.4134 79.8249 35.0124 87.2951 35.0124C94.7654 35.0124 100.112 40.4715 100.112 48.1116V64.6586H103.561V48.0556C103.561 38.5185 96.8374 31.5086 87.2973 31.5086C77.7572 31.5086 70.6893 38.9207 70.6893 48.5719H70.6872Z" fill="#00B14F"/>
</g>
</g>
</g>
</svg>
