<svg width="150" height="150" viewBox="0 0 150 150" fill="none" xmlns="http://www.w3.org/2000/svg">
<g id="Bank Logos/landbank">
<g id="landbank">
<g id="Group 4182">
<path id="Vector" d="M75.3441 10.6387C77.0051 10.6387 78.5787 10.7037 80.196 10.8553L81.7914 19.4137C83.2557 19.6087 84.6763 19.8253 86.075 20.107L90.2493 12.437C91.7792 12.8053 93.3528 13.217 94.8826 13.737C96.4562 14.2353 98.0079 14.777 99.5159 15.3837L98.445 24.0503C99.7345 24.6353 101.024 25.2853 102.27 25.9787L108.63 19.9337C109.985 20.7353 111.318 21.602 112.629 22.5553C113.984 23.5087 115.295 24.5053 116.519 25.5237L112.848 33.4753C113.897 34.407 114.946 35.4037 115.929 36.422L123.841 32.5653C124.89 33.757 125.895 34.992 126.857 36.2487C127.862 37.5487 128.802 38.892 129.676 40.257L123.753 46.692C124.475 47.9053 125.152 49.1403 125.808 50.4403L134.462 49.1837C135.096 50.6137 135.686 52.1087 136.233 53.6037C136.801 55.1637 137.282 56.702 137.697 58.2837L130.069 62.6387C130.375 64.0253 130.66 65.412 130.856 66.842L139.555 68.207C139.729 69.767 139.839 71.3487 139.882 72.952C139.926 74.577 139.926 76.202 139.861 77.827L131.293 79.7337C131.162 81.1203 130.966 82.5503 130.769 83.937L138.615 87.837C132.605 117.369 106.225 139.534 74.6885 139.36C43.1077 139.187 16.969 116.74 11.2648 87.1653L19.1763 83.3303C18.9578 81.9437 18.8048 80.5353 18.6955 79.127L10.1283 77.1337C10.0627 75.5303 10.0846 73.9053 10.1283 72.2587C10.2157 70.6553 10.3468 69.052 10.5217 67.5137L19.2419 66.257C19.4605 64.827 19.7446 63.4187 20.0724 62.0537L12.4887 57.6337C12.9476 56.0737 13.4503 54.5353 13.9967 52.997C14.5649 51.4803 15.155 50.007 15.8325 48.577L24.509 49.9853C25.1647 48.707 25.864 47.472 26.5852 46.2587L20.7062 39.737C21.6023 38.3937 22.542 37.072 23.5692 35.772C24.5527 34.4937 25.5799 33.2587 26.6289 32.0887L34.4968 36.0537C35.5021 35.0353 36.5293 34.0387 37.6002 33.1287L33.9941 25.1337C35.2617 24.1153 36.5731 23.1403 37.9281 22.2087C39.2394 21.277 40.5944 20.4103 41.9494 19.6303L48.2437 25.7403C49.5113 25.0687 50.8008 24.4403 52.0902 23.8553L51.1067 15.167C52.6147 14.582 54.1665 14.0403 55.74 13.5637C57.2699 13.087 58.8435 12.6753 60.3733 12.3287L64.5258 19.9987C65.9464 19.7387 67.3451 19.522 68.8094 19.3487L70.4923 10.7903C72.1096 10.682 73.705 10.6387 75.3441 10.6387Z" fill="#0DB24B"/>
<path id="Vector_2" d="M29.8197 114.834C32.2893 117.607 34.9994 120.142 37.9498 122.417C37.9498 122.417 48.6152 113.967 68.8749 113.859C69.8365 113.859 70.7763 113.88 71.7161 113.924L71.7379 111.432C66.9516 110.5 61.9905 109.85 56.8546 109.85C39.1737 109.872 29.8197 114.834 29.8197 114.834ZM18.7173 96.937C20.2909 100.902 22.2797 104.65 24.64 108.182C24.64 108.182 34.4093 103.567 45.1839 103.632C49.5112 103.675 59.9143 105.625 71.7598 107.684L71.7816 105.344C53.773 102.029 40.0042 95.9403 27.6561 95.8103C23.744 95.767 18.7173 96.937 18.7173 96.937ZM77.8792 112.797L77.8574 114.595C89.7684 116.524 100.303 121.875 107.93 125.364C111.318 123.175 114.487 120.662 117.372 117.867C117.372 117.867 114.159 118.734 106.662 118.712C97.9641 118.669 88.3697 115.354 77.8792 112.797ZM93.0249 107.445C87.6703 107.402 82.6437 106.99 77.9229 106.34L77.9011 108.745C89.3969 110.674 101.461 112.429 110.225 112.472C115.732 112.494 123.404 111.129 123.404 111.129C125.829 107.944 127.928 104.52 129.676 100.88C129.676 100.859 108.608 107.554 93.0249 107.445ZM71.6068 135.72V133.879L71.6942 119.232C56.3519 119.384 45.3806 127.27 45.3806 127.27C52.9643 131.517 62.2528 134.897 71.6068 135.72ZM77.8355 119.709L77.77 133.9V135.872C85.2007 135.504 91.6043 133.077 98.2483 130.347C98.2483 130.347 90.3804 121.832 77.8355 119.709Z" fill="#FFC34B"/>
<path id="Vector_3" d="M75.06 75.747C88.2169 67.0153 88.6103 52.3037 88.6103 52.3037C88.6977 35.1437 75.3223 26.3903 75.3223 26.3903C75.3223 26.3903 61.8377 35.0137 61.7502 52.152C61.7502 52.1737 61.9907 66.8853 75.06 75.747Z" fill="#FFC34B"/>
<path id="Vector_4" d="M76.5242 135.959L76.6772 100.1C116.607 95.247 111.558 59.4103 111.558 59.4103C111.558 59.4103 82.0536 59.0203 79.5402 92.6687C79.5402 92.6687 79.8899 97.1537 74.8851 97.132C69.8802 97.1103 70.2736 92.6253 70.2736 92.6253C68.1318 58.9337 38.6273 59.0203 38.6273 59.0203C38.6273 59.0203 33.2073 94.8137 73.0492 100.1L72.8525 135.937L76.5242 135.959Z" fill="#FFC34B"/>
</g>
</g>
</g>
</svg>
