<svg width="150" height="150" viewBox="0 0 150 150" fill="none" xmlns="http://www.w3.org/2000/svg">
<g id="Bank Logos/lulu">
<g id="lulumoney" clip-path="url(#clip0_3421_74)">
<g id="Layer 2">
<g id="Layer 1">
<path id="Vector" fill-rule="evenodd" clip-rule="evenodd" d="M21.4889 37.5778C31.5784 64.4172 34.7066 98.765 28.488 119.749C9.28655 101.183 2.00838 64.8042 21.4889 37.5778ZM32.1407 123.332C53.9941 119.535 79.2632 119.175 110.417 129.759C86.963 143.239 57.6678 144.184 32.1407 123.332ZM33.5653 111.387C52.5905 78.6622 61.3814 36.7619 63.1291 10.5C57.7433 10.3933 44.6661 16.6235 44.6661 16.6235C46.2963 52.0613 45.1193 85.6707 33.5653 111.387ZM37.0334 110.958C60.0701 88.9406 95.2168 43.1742 111.676 19.657C106.477 15.4603 93.9055 11.6004 93.9055 11.6004C80.0038 44.216 61.2492 78.6622 37.0334 110.958ZM140 59.2958C138.712 52.1827 133.171 42.3729 133.171 42.3729C101.098 65.9821 80.0751 80.5597 42.9646 112.958C76.1895 89.108 111.126 71.0198 140 59.2958ZM132.189 108.338C137.014 100.865 139.763 89.9427 139.763 89.9427C108.533 92.7398 78.8163 99.242 41.5316 117.874C67.4028 107.081 112.306 107.558 132.189 108.338Z" fill="#2CAAE2"/>
</g>
</g>
</g>
</g>
<defs>
<clipPath id="clip0_3421_74">
<rect width="130" height="129" fill="white" transform="translate(10 10.5)"/>
</clipPath>
</defs>
</svg>
