<svg width="150" height="150" viewBox="0 0 150 150" fill="none" xmlns="http://www.w3.org/2000/svg">
<g id="Bank Logos/maribank">
<g id="maribank">
<g id="Group 4228">
<path id="Vector" d="M45.2803 118.032C54.8086 117.506 62.6221 120.846 70.927 124.371C80.2632 128.368 89.9268 132.432 103.445 131.887C106.844 131.746 110.205 131.11 113.42 129.998C114.492 129.694 115.64 129.815 116.626 130.334C117.613 130.853 118.363 131.732 118.72 132.788C119.076 133.844 119.013 134.998 118.543 136.009C118.072 137.019 117.23 137.812 116.193 138.22C112.191 139.62 108.001 140.413 103.765 140.573C102.156 140.633 100.512 140.68 98.9359 140.633C85.9829 140.261 76.2539 136.123 67.5495 132.418C59.9033 129.146 53.2474 126.375 45.9001 126.734C42.0025 127.119 38.2751 128.525 35.0944 130.811C34.1944 131.536 33.0428 131.871 31.8941 131.747C30.7449 131.623 29.6906 131.047 28.9657 130.147C28.2414 129.246 27.9025 128.095 28.0265 126.946C28.1506 125.797 28.7271 124.745 29.6267 124.02C34.1935 120.62 39.6112 118.547 45.2803 118.032ZM45.0811 104.711C58.8784 104.132 68.0352 108.149 76.8724 111.98C85.2708 115.632 93.1857 119.103 105.315 118.598C114.803 118.205 123.135 113.382 127.258 110.515C128.24 109.879 129.431 109.65 130.578 109.877C131.727 110.104 132.743 110.77 133.409 111.733C134.074 112.696 134.338 113.881 134.146 115.036C133.953 116.191 133.32 117.226 132.378 117.921C127.444 121.327 117.421 127.12 105.678 127.566C104.327 127.663 102.972 127.691 101.618 127.651C89.6418 127.398 81.3149 123.778 73.2294 120.24C64.9708 116.628 57.1625 113.231 45.4131 113.711C35.2664 114.123 26.283 120.216 21.8346 123.808C20.9031 124.557 19.7118 124.904 18.5236 124.776C17.3346 124.646 16.2436 124.05 15.4941 123.118C14.7446 122.186 14.3974 120.992 14.5264 119.803C14.6557 118.614 15.2517 117.525 16.1835 116.776C21.4832 112.472 32.2946 105.203 45.0811 104.711Z" fill="#2673DD"/>
<path id="Vector_2" d="M75.0735 9.50006C83.0092 9.50006 90.8684 11.0616 98.1998 14.0995C105.532 17.1374 112.192 21.5917 117.803 27.205C123.414 32.818 127.866 39.4806 130.902 46.8141C133.938 54.148 135.501 62.0096 135.5 69.9472C135.5 85.4717 129.648 98.9485 120.093 109.631C116.349 111.38 111.88 113.496 107.159 113.756C105.683 113.84 104.263 113.868 102.902 113.841C111.765 108.193 118.71 99.9902 122.819 90.3157C126.927 80.6415 128.01 69.9488 125.921 59.6475C123.833 49.3459 118.67 39.9201 111.118 32.611C103.566 25.3021 93.9771 20.453 83.6151 18.7052C73.253 16.9575 62.604 18.3931 53.0732 22.8207C43.5428 27.2483 35.5783 34.4617 30.2283 43.5085C24.8783 52.5556 22.3932 63.0124 23.1035 73.4997C23.814 83.9866 27.6856 94.0116 34.2065 102.254C31.4332 103.081 28.7308 104.132 26.1267 105.395C19.5796 96.3769 15.6551 85.7215 14.7865 74.6101C13.9182 63.498 16.1392 52.36 21.2061 42.4331C26.2729 32.5066 33.9876 24.1764 43.4944 18.3636C53.0013 12.5509 63.9314 9.48419 75.0735 9.50006ZM75.0641 22.0172C85.9268 22.0181 96.4635 25.737 104.92 32.5573C113.377 39.3779 119.243 48.8895 121.548 59.5086C123.852 70.1276 122.454 81.2154 117.585 90.9295C112.716 100.643 104.67 108.399 94.7844 112.905C88.8934 111.801 83.8272 109.729 78.5806 107.581L78.4604 107.53C69.2842 103.765 58.8233 99.479 43.722 100.397C42.22 100.49 40.7238 100.668 39.241 100.925C33.2254 94.0459 29.3198 85.5757 27.9893 76.5332C26.6592 67.4913 27.9611 58.2576 31.7399 49.9364C35.5188 41.6149 41.6142 34.5589 49.2974 29.6122C56.9805 24.6656 65.9271 22.0368 75.0641 22.0425V22.0172ZM52.4945 44.8845V89.4488H61.1371V62.8427C61.3174 62.9088 61.467 63.0432 61.5516 63.2158C64.7697 69.1089 71.1585 81.2498 71.1585 81.2498H79.1404C79.1404 81.2498 85.0451 69.7603 88.0107 64.3262C88.3031 63.7681 88.647 63.223 88.966 62.6716L89.1651 62.7381V89.4362H97.6717L97.7099 45.03C97.5434 44.9781 89.1991 45.0296 89.1272 45.03C89.1272 45.03 88.055 47.2738 87.5366 48.2251C83.7686 55.1512 80.0022 62.0785 76.2341 69.0046C75.8954 69.6026 75.5224 70.2666 75.1305 70.931C74.9777 70.7117 74.9022 70.6258 74.8491 70.5261C70.3075 62.2188 65.3957 53.2054 60.8874 44.8845H52.4945Z" fill="#EA5F00"/>
</g>
</g>
</g>
</svg>
