<svg width="150" height="150" viewBox="0 0 150 150" fill="none" xmlns="http://www.w3.org/2000/svg">
<g id="Bank Logos/maya">
<g id="maya" clip-path="url(#clip0_3421_74)">
<g id="Clip path group">
<mask id="mask0_3421_74" style="mask-type:luminance" maskUnits="userSpaceOnUse" x="10" y="56" width="130" height="38">
<g id="clip0_471_16720">
<path id="Vector" d="M139.722 56.2175H10.7068V93.5382H139.722V56.2175Z" fill="white"/>
</g>
</mask>
<g mask="url(#mask0_3421_74)">
<g id="Group">
<path id="Vector_2" d="M39.1842 56.2175C36.2134 56.2167 33.3602 57.3857 31.2352 59.4743L32.3872 61.6765L31.9149 62.059C30.9166 60.319 29.486 58.87 27.7632 57.854C26.0405 56.8381 24.0848 56.2901 22.0881 56.2638C15.8211 56.2638 10.7522 61.7808 10.7522 68.2482V82.1566C10.7473 82.2751 10.7669 82.3934 10.8098 82.5038C10.8526 82.6143 10.9178 82.7147 11.0012 82.7986C11.0845 82.8824 11.1843 82.948 11.2941 82.9911C11.4039 83.0343 11.5215 83.054 11.6393 83.049H16.1783C16.2891 83.0506 16.3992 83.0297 16.5019 82.9879C16.6046 82.9459 16.6979 82.8836 16.7764 82.8047C16.8547 82.7258 16.9166 82.6319 16.9584 82.5286C17.0001 82.4252 17.0208 82.3145 17.0192 82.2029V68.0975C17.0192 64.887 18.9546 62.3024 22.2494 62.3024C25.3253 62.3024 27.5257 64.6204 27.5257 68.0396V79.6299C27.5178 79.7448 27.5334 79.8601 27.5714 79.9688C27.6094 80.0774 27.6691 80.1772 27.7467 80.2618C27.8244 80.3464 27.9184 80.4142 28.023 80.461C28.1277 80.5078 28.2406 80.5326 28.3552 80.5339H32.6522C32.7666 80.5326 32.8797 80.5078 32.9843 80.461C33.0889 80.4142 33.183 80.3464 33.2606 80.2618C33.3383 80.1772 33.3979 80.0774 33.436 79.9688C33.474 79.8601 33.4895 79.7448 33.4816 79.6299V68.0396C33.4306 67.2994 33.5327 66.5566 33.7814 65.8582C34.0302 65.1597 34.4202 64.5207 34.9269 63.9815C35.4336 63.4424 36.0458 63.0148 36.7251 62.7258C37.4043 62.4368 38.1357 62.2926 38.8731 62.3024C42.1564 62.3024 43.9881 64.9333 43.9881 68.0975V82.1798C43.9971 82.4093 44.0949 82.6262 44.2606 82.7843C44.4263 82.9423 44.6468 83.029 44.8752 83.0259H49.3681C49.4863 83.0326 49.6046 83.0141 49.7153 82.9716C49.826 82.9292 49.9264 82.8636 50.0102 82.7794C50.0939 82.6952 50.159 82.5941 50.2012 82.4827C50.2435 82.3714 50.2618 82.2523 50.2552 82.1334V68.225C50.2552 61.7345 45.4051 56.2175 39.1842 56.2175Z" fill="#75EEA5"/>
<path id="Vector_3" d="M79.8845 56.7388H75.7602C75.6456 56.7307 75.5305 56.7467 75.4224 56.7858C75.3142 56.8248 75.2153 56.8861 75.1318 56.9657C75.0485 57.0452 74.9824 57.1413 74.9379 57.2479C74.8933 57.3545 74.8713 57.4692 74.8731 57.5849V58.1528L76.3363 60.4709L75.9331 60.8649C74.7253 59.4325 73.2263 58.2775 71.537 57.4777C69.8478 56.6779 68.0076 56.252 66.1408 56.2288C62.6609 56.3948 59.3773 57.8999 56.9692 60.4328C54.561 62.9657 53.2123 66.3327 53.202 69.8378C53.1916 73.3429 54.5203 76.7179 56.9135 79.2652C59.3067 81.8125 62.5812 83.3371 66.0602 83.524C67.9358 83.5038 69.7854 83.0795 71.4844 82.2798C73.1835 81.48 74.6925 80.3235 75.91 78.8878L76.2556 79.166L74.7925 81.5768V82.11C74.7909 82.2276 74.8129 82.3443 74.8569 82.4533C74.9009 82.5623 74.9662 82.6613 75.0489 82.7445C75.1316 82.8277 75.2299 82.8934 75.3383 82.9377C75.4466 82.9819 75.5627 83.004 75.6796 83.0024H79.8845C80.0027 83.0091 80.121 82.9907 80.2317 82.9482C80.3424 82.9058 80.4429 82.8402 80.5266 82.756C80.6103 82.6717 80.6754 82.5706 80.7176 82.4593C80.7599 82.3479 80.7782 82.2289 80.7715 82.11V57.5849C80.7771 57.4682 80.7576 57.3518 80.7144 57.2435C80.6711 57.1351 80.6051 57.0375 80.5208 56.9571C80.4366 56.8768 80.3362 56.8157 80.2264 56.778C80.1165 56.7404 79.9999 56.727 79.8845 56.7388ZM66.0602 77.6593C64.0101 77.6593 62.0439 76.8399 60.5942 75.3814C59.1445 73.9229 58.3301 71.9448 58.3301 69.8822C58.3301 67.8196 59.1445 65.8415 60.5942 64.383C62.0439 62.9245 64.0101 62.1051 66.0602 62.1051C68.1103 62.1051 70.0765 62.9245 71.5262 64.383C72.9758 65.8415 73.7903 67.8196 73.7903 69.8822C73.7903 71.9448 72.9758 73.9229 71.5262 75.3814C70.0765 76.8399 68.1103 77.6593 66.0602 77.6593Z" fill="#75EEA5"/>
<path id="Vector_4" d="M138.823 56.7388H134.699C134.585 56.7307 134.47 56.7467 134.361 56.7858C134.253 56.8248 134.154 56.8861 134.071 56.9657C133.988 57.0452 133.922 57.1413 133.877 57.2479C133.832 57.3545 133.81 57.4692 133.812 57.5849V58.1528L135.275 60.4709L134.872 60.8649C133.664 59.4325 132.165 58.2775 130.476 57.4777C128.787 56.6779 126.946 56.252 125.08 56.2288C121.478 56.2288 118.023 57.6685 115.476 60.2312C112.928 62.7939 111.498 66.2696 111.498 69.8938C111.498 73.518 112.928 76.9937 115.476 79.5564C118.023 82.1191 121.478 83.5587 125.08 83.5587C126.955 83.5385 128.805 83.1142 130.504 82.3145C132.203 81.5149 133.712 80.3583 134.929 78.9226L135.275 79.2008L133.812 81.6116V82.1447C133.81 82.2624 133.832 82.3791 133.876 82.4881C133.921 82.5971 133.986 82.696 134.068 82.7793C134.151 82.8625 134.249 82.9281 134.358 82.9725C134.466 83.0167 134.582 83.0388 134.699 83.0372H138.823C138.942 83.0439 139.06 83.0254 139.171 82.983C139.282 82.9405 139.382 82.875 139.465 82.7907C139.549 82.7065 139.614 82.6054 139.657 82.494C139.699 82.3828 139.717 82.2637 139.71 82.1447V57.5849C139.716 57.4682 139.696 57.3518 139.653 57.2435C139.61 57.1351 139.544 57.0375 139.46 56.9571C139.376 56.8768 139.275 56.8157 139.166 56.778C139.056 56.7404 138.939 56.727 138.823 56.7388ZM125.08 77.6593C123.03 77.6593 121.063 76.8399 119.614 75.3814C118.164 73.9229 117.349 71.9448 117.349 69.8822C117.349 67.8196 118.164 65.8415 119.614 64.383C121.063 62.9245 123.03 62.1051 125.08 62.1051C127.13 62.1051 129.096 62.9245 130.546 64.383C131.995 65.8415 132.81 67.8196 132.81 69.8822C132.81 71.9448 131.995 73.9229 130.546 75.3814C129.096 76.8399 127.13 77.6593 125.08 77.6593Z" fill="#75EEA5"/>
<path id="Vector_5" d="M108.108 56.7393H103.88C103.2 56.7393 102.832 57.1102 102.832 57.4695V70.3C102.892 71.197 102.762 72.0966 102.451 72.9395C102.14 73.7824 101.655 74.5494 101.028 75.19C100.401 75.8307 99.6465 76.3303 98.8138 76.6562C97.9811 76.982 97.0888 77.1266 96.1963 77.0804C92.4868 77.0804 90.0906 74.2987 90.0906 70.3V57.4695C90.0906 57.1102 89.5146 56.7393 89.146 56.7393H84.5379C84.3507 56.7551 84.175 56.8371 84.0421 56.9708C83.9093 57.1044 83.8278 57.2811 83.8121 57.4695V70.2189C83.7751 73.5515 85.0509 76.7634 87.3608 79.1523C89.6706 81.5414 92.8265 82.9133 96.1387 82.9682C99.3039 82.9712 102.361 81.8085 104.733 79.6997L104.975 79.9199L103.097 82.493V83.5245C103.097 86.1556 99.1687 87.6275 96.876 87.6275H95.413C95.2955 87.6197 95.1777 87.6354 95.0664 87.6739C94.955 87.7123 94.8524 87.7727 94.7645 87.8514C94.6766 87.9302 94.605 88.0258 94.5542 88.1325C94.5033 88.2394 94.4742 88.3553 94.4683 88.4736V92.6693C94.4888 92.905 94.598 93.1238 94.7736 93.2811C94.9492 93.4384 95.178 93.5222 95.413 93.5154H96.876C103.88 93.5154 108.995 89.4124 108.995 81.6817V57.4695C108.964 57.2587 108.856 57.0671 108.692 56.9321C108.528 56.7971 108.32 56.7284 108.108 56.7393Z" fill="#75EEA5"/>
</g>
</g>
</g>
</g>
</g>
<defs>
<clipPath id="clip0_3421_74">
<rect width="130" height="38" fill="white" transform="translate(10 56)"/>
</clipPath>
</defs>
</svg>
