<svg width="150" height="150" viewBox="0 0 150 150" fill="none" xmlns="http://www.w3.org/2000/svg">
<g id="Bank Logos/maybank">
<g id="maybank" clip-path="url(#clip0_3421_74)">
<circle id="Ellipse 1" cx="74.9999" cy="75" r="59.8182" fill="#FEC70A"/>
<path id="Layer" fill-rule="evenodd" clip-rule="evenodd" d="M75.0083 139.967C39.0759 139.967 10.0332 110.924 10.0332 75C10.0332 39.0676 39.0759 10.0332 75.0083 10.0332C110.941 10.0332 139.983 39.0676 139.983 75C139.983 110.924 110.941 139.967 75.0083 139.967ZM134.769 74.9668C134.769 41.9031 108.056 15.1818 75.0166 15.1818C41.9694 15.1818 15.2647 41.9031 15.2647 74.9668C15.2647 108.022 41.9694 134.744 75.0166 134.744C108.056 134.744 134.769 108.022 134.769 74.9668ZM49.0912 72.0153C44.4401 70.8214 40.3527 76.2685 38.081 80.3724C38.8687 74.7513 45.7832 65.5402 49.0912 72.0153ZM38.8687 72.0816C40.4273 66.7423 44.125 64.7857 46.0983 66.361C43.412 67.19 41.472 68.7819 38.8687 72.0816ZM39.8636 84.4018C40.5102 78.9381 46.4299 73.9719 49.1741 74.6684C52.8884 75.6467 53.1372 78.6397 50.7411 80.6543C49.0912 75.7627 42.243 81.359 39.8636 84.4018ZM88.0332 94.8814C88.4643 87.8508 81.6327 84.5676 80.3144 77.3629C79.0377 70.1499 90.9847 58.6256 83.4401 46.8195C97.692 58.3189 86.5243 65.1339 93.7207 74.6849C90.9267 73.8393 88.1741 71.3686 87.3368 70.067C83.3323 75.3399 97.1531 82.5861 88.0332 94.8814ZM65.1008 38.1722C66.7838 38.1888 69.6856 39.3744 68.5 40.7258C64.5536 44.4069 59.2143 42.8897 54.9777 46.6288C56.7105 42.0025 64.4541 41.3393 65.1008 38.1722ZM68.2928 49.2819C75.2985 49.1161 67.1984 52.7806 64.8272 61.1958C63.766 64.9266 55.4088 63.7659 54.1569 61.8508C56.2545 62.2653 62.8208 60.8393 65.391 51.993C65.4739 51.7691 65.25 51.6945 65.1008 51.9018C61.8591 55.4088 59.4548 56.0472 58.0951 55.1518C56.6359 56.3208 55.9809 57.1913 54.6627 59.5874C52.2749 57.4649 53.3444 55.5746 55.6327 53.4107C55.9477 53.1122 55.5829 52.7309 55.1684 52.5485C53.0874 51.6365 52.6563 48.7181 54.7953 47.6237C54.1984 49.4809 56.2545 50.5918 58.037 48.9834C59.8859 47.317 62.854 49.7296 66.5683 48.2787C66.9579 42.3342 78.3412 41.5714 71.2609 38.139C78.0511 38.9681 79.5683 41.5134 77.9184 43.3788C76.5504 44.9789 70.1914 47.0517 68.2928 49.2819ZM63.8821 50.4509C62.0912 50.5587 61.1295 50.4758 60.5243 50.4592C61.486 52.9464 59.7864 53.7589 59.1065 52.0427C59.2475 52.9879 59.7118 53.7092 60.2341 53.7092C61.1792 53.7258 62.0083 51.4209 63.8821 50.4509ZM84.0039 32.7914C87.03 34.4247 89.0613 41.53 88.6467 45.1282C86.4331 42.4917 84.8329 41.0491 81.4503 38.852C80.8285 37.0529 82.7022 32.0867 84.0039 32.7914ZM27.3527 67.7041C29.5415 61.9337 34.8559 55.0772 43.4866 49.97C45.4764 44.8214 44.8215 41.3393 65.7309 33.2309C66.2532 30.155 66.162 26.4324 67.0326 26.4324C67.9363 26.4324 71.0204 27.8335 73.2258 30.9841C74.1378 30.9177 74.942 30.8265 75.5058 30.7105C75.8789 28.9196 77.1308 23.9783 78.7724 21.4247C80.2647 19.0784 83.1748 18.8297 86.9305 21.9305C90.8189 25.0976 93.5632 26.4075 98.8942 33.2309C103.404 35.2455 110.452 37.8406 116.554 45.3355C113.901 43.5612 110.899 42.9062 108.437 42.6492C113.411 47.0019 116.695 54.2066 114.207 64.736C113.221 54.8948 105.983 50.7659 101.564 47.6569C103.96 55.9477 93.5632 53.0625 90.3878 46.8278C91.4324 47.1594 92.5268 47.118 93.1818 46.7034C92.817 34.0102 86.8642 26.7143 84.2111 24.5421C80.787 21.6983 78.9713 28.5134 77.8106 33.6039C77.4458 35.3036 75.9866 36.5223 74.1378 36.4726C74.5523 35.859 75.0083 34.2092 75.0829 33.6703C69.8349 34.118 63.9069 37.2105 60.2673 38.852C51.023 43.0306 48.7099 45.1199 46.662 52.1256C39.3412 55.2347 30.8929 63.6664 27.3527 67.7041ZM73.4662 65.9298C74.4943 67.1071 80.588 76.3099 73.5326 88.0166C75.456 79.4024 70.0919 62.912 64.1639 71.352C68.185 73.0848 69.5032 76.368 68.4171 79.5682C66.7755 76.4758 62.597 73.1511 58.4516 74.5191C56.3872 75.2653 53.6429 75.2819 51.5951 72.206C48.9337 68.3425 53.4108 63.484 45.7832 63.8737C55.0109 59.206 52.3329 68.2761 56.7851 69.3954C61.9586 70.5976 62.5638 67.4305 64.3463 65.3826C65.7806 63.6333 68.4171 62.3233 71.2028 64.1805C72.5211 60.1511 70.5893 53.7506 74.3699 50.3846C75.7628 49.1326 80.2067 49.3068 82.5032 51.1059C79.2366 51.0727 75.3897 54.9694 73.4662 65.9298ZM86.118 126.113C90.338 120.616 93.7207 112.906 93.3062 110.269C88.713 113.594 79.7175 115.119 77.6614 114C86.0434 106.406 84.7749 98.3801 79.8502 97.7666C74.942 97.1448 69.2213 104.673 69.6856 114.987C65.5402 113.146 52.1837 115.708 50.9567 105.112C49.4312 102.799 48.7596 98.8361 49.2488 97.2525C61.2787 104.151 56.1467 88.6384 63.4012 87.1709C62.6136 84.9904 56.5447 80.0159 48.3865 88.199C48.0051 89.5338 48.0963 94.8482 48.743 96.7468C44.9873 96.183 42.0358 92.6428 41.3559 91.6894C37.368 91.3163 33.5045 90.1971 29.7405 80.1237C26.5983 78.0842 24.9898 76.0363 23.8291 73.7481C23.8789 73.2175 24.3266 70.7053 26.6812 68.558C26.6812 68.558 25.8438 70.7634 26.3412 71.7002C32.7169 66.5765 33.5294 71.5013 36.8042 70.8214C36.8706 74.7015 32.8744 77.338 33.1812 81.0689C35.5192 87.2289 37.0861 87.8756 41.6875 88.5721C47.2009 85.8527 51.7609 79.5599 58.5096 79.4356C63.9732 79.3941 70.838 82.0472 71.9656 89.6001C72.7366 95.0389 61.1792 102.758 56.6359 101.216C49.1741 109.283 61.6518 111.944 65.7972 110.709C68.7736 97.0204 76.0944 93.1154 81.84 95.0803C88.2405 97.236 89.0861 105.344 84.7169 109.913C88.2405 109.067 93.3642 106.314 95.1053 99.7481C96.4898 101.207 96.9292 104.723 97.037 105.941C100.718 100.552 99.516 88.8457 96.5644 84.3437C98.9688 84.5676 101.191 85.4962 103.587 87.5108C105.237 78.8718 99.6652 68.0606 97.1531 66.22C98.8278 66.0708 101.191 66.22 104.441 67.7621C103.587 62.5886 98.9688 59.264 98.9688 55.301C100.826 58.9821 110.742 59.9936 110.186 73.5325C109.034 72.463 106.538 71.3686 105.32 71.1862C108.827 79.9828 108.586 88.6384 106.746 94.7736C105.983 93.5134 104.781 92.0625 103.587 91.5733C104.781 96.4318 103.263 109.747 99.9388 115.119C122.225 99.7481 106.87 76.3348 116.695 66.8004C114.605 76.8986 119.804 85.5376 119.19 91.449C124.04 82.0057 125.358 66.22 120.658 49.8291C137.189 79.734 121.42 117.996 86.118 126.113ZM60.5243 96.896C65.1091 94.699 67.016 93.7372 67.3974 90.6779C67.5549 89.5338 64.3463 89.2104 63.5421 89.3431C64.1805 90.1722 65.0345 92.6263 64.222 93.2315C63.3846 93.845 62.597 93.0988 61.6767 92.9662C61.1792 94.5663 61.3119 96.1747 60.5243 96.896ZM46.9025 94.5083C46.9025 94.5083 45.9324 90.9018 46.2475 88.257C45.4599 88.3316 43.7022 89.5504 43.3125 90.4955C43.3374 92.2532 46.9025 94.5083 46.9025 94.5083ZM32.3023 76.3348C31.9541 75.6633 30.2877 75.1824 30.81 73.6817C31.1499 72.6951 32.3023 72.6951 32.493 72.2226C32.6837 71.8329 31.8298 71.1116 30.5364 71.4515C28.7456 71.9738 27.3361 73.4745 27.0045 73.8476C27.2864 74.8425 29.9229 77.5867 31.5976 78.7557C32.9656 77.8935 32.5013 76.7742 32.3023 76.3348ZM54.5051 100.95C54.5051 100.95 52.4076 100.453 50.8572 99.4496C50.7411 101.158 51.9599 102.749 52.4076 103.106C53.5102 102.642 54.5051 100.95 54.5051 100.95Z" fill="#231F20"/>
</g>
</g>
<defs>
<clipPath id="clip0_3421_74">
<rect width="130" height="130" fill="white" transform="translate(10 10)"/>
</clipPath>
</defs>
</svg>
