<svg width="150" height="150" viewBox="0 0 150 150" fill="none" xmlns="http://www.w3.org/2000/svg">
<g id="Bank Logos/metrobank">
<g id="metrobank">
<g id="Group 4182">
<path id="Vector" fill-rule="evenodd" clip-rule="evenodd" d="M103.754 73.7875C104.293 75.0884 104.001 82.7592 104.001 84.8451C104.001 91.5515 104.988 90.744 98.3265 90.744L47.1429 90.6992C45.5056 90.43 46.0439 87.8282 46.0439 85.989V74.5052C46.2458 72.666 48.3766 74.4604 49.2064 74.9763L66.7013 85.9218C68.5405 87.0432 71.703 89.4656 74.4169 89.6226C77.9159 89.8244 80.3158 87.8507 82.469 86.4601L96.5995 77.6229C97.7658 76.95 102.633 73.3838 103.754 73.7875ZM112.435 94.7589C112.726 92.987 112.569 61.429 112.367 60.8683C112.053 59.9711 111.111 59.1636 109.833 59.1636C108.779 59.1636 107.59 60.1057 106.962 60.5318L81.3251 77.7126C74.3272 82.3555 76.0543 82.5125 70.3348 78.8117L49.812 65.085C48.2644 64.0308 46.2009 62.7299 44.6757 61.6533C43.4197 60.7561 40.9525 58.4908 38.9338 59.4552C37.8572 59.9711 37.5208 60.801 37.5208 62.2813V92.2692C37.5208 99.9849 41.9169 98.9531 47.9728 98.9531H99.3583C104.315 98.9083 111.493 100.299 112.435 94.7589ZM66.0957 54.5656H71.3441V62.3935C70.6264 61.9 69.2582 59.5001 68.6526 58.6702C68.0919 57.8852 66.3424 55.3955 66.0957 54.5656ZM86.7306 62.842L92.0912 54.5656H97.8106L89.5567 60.7113C88.7492 61.3168 87.538 62.3935 86.7306 62.842ZM78.5888 54.5656L83.9718 54.6105C83.4559 54.9469 79.5532 61.4514 78.5663 62.5953L78.5888 54.5656ZM63.3817 63.1112C63.1126 62.6626 55.1726 56.8759 53.4231 55.575C53.154 55.3731 52.3017 54.6778 52.0998 54.5656H57.8417C58.9407 55.8217 61.9463 61.1823 63.3817 63.1112ZM78.6112 39.5605C79.2168 39.8969 78.7233 39.4483 79.2392 40.0988L83.8821 47.2986H78.5888L78.6112 39.5605ZM66.0284 47.2537C66.5667 46.1098 67.8452 44.3603 68.6077 43.2613C69.5274 41.9604 70.3572 40.6595 71.2768 39.3362L71.2544 47.2986L66.0284 47.2537ZM62.7986 39.3586C62.4397 40.4128 60.7799 42.8127 60.1743 43.7547C59.7258 44.45 59.2323 45.1678 58.7837 45.8855C58.1109 46.9397 58.38 47.2986 56.8772 47.2986L52.1895 47.2537L62.7986 39.3586ZM94.0425 47.2986C91.8669 47.2986 92.1585 47.635 91.194 46.0425L86.5512 38.7754C90.1174 41.6015 94.222 44.4276 97.7434 47.2761L94.0425 47.2986ZM74.0581 23.9721C72.8693 24.3534 47.5915 41.3772 44.8776 43.0819C43.2627 44.0912 41.6478 45.1902 40.0553 46.2444C38.4852 47.2761 37.0722 48.8462 37.4311 51.762C37.7451 54.2741 39.203 54.9469 40.9973 56.1581C42.7692 57.3469 44.2047 58.3113 45.9093 59.4328C47.5018 60.4645 49.1167 61.4963 50.7316 62.5953L65.4004 72.2623C67.0153 73.3165 68.5853 74.3707 70.2002 75.4249C71.4787 76.2772 73.9011 78.4528 75.8748 77.8248C76.7047 77.5556 106.625 57.6833 109.878 55.5525C111.493 54.4984 112.816 52.861 112.457 50.0798C112.165 47.6799 110.483 46.6481 108.913 45.6388L84.5101 29.557C82.9625 28.5028 81.4149 27.5159 79.7102 26.3721C78.5215 25.587 75.9645 23.3441 74.0581 23.9721Z" fill="#0052A0"/>
<path id="Vector_2" d="M28.5041 106.041H23.8389L21.5959 113.487C20.923 115.865 20.3399 118.242 19.8689 120.463H19.8016C19.3754 118.197 18.7923 115.887 18.1643 113.487L16.0335 106.041H11.3233L10 125.846H13.4541L13.8354 118.22C13.97 115.775 14.0821 112.837 14.1494 110.347H14.2167C14.6877 112.77 15.2933 115.439 15.9438 117.682L18.1194 125.554H20.9903L23.4127 117.547C24.0856 115.327 24.8033 112.702 25.364 110.325H25.4313C25.4089 112.814 25.5435 115.506 25.6332 118.13L25.9921 125.823H29.6032L28.5041 106.041ZM42.9934 122.661C42.029 122.997 40.9075 123.244 39.4945 123.244C37.431 123.244 35.7039 122.257 35.5918 119.812H44.1373C44.2046 119.409 44.2495 118.87 44.2495 118.287C44.2495 113.644 41.9841 111.177 38.53 111.177C34.3582 111.177 31.9807 114.743 31.9807 118.848C31.9807 123.311 34.4928 126.093 38.9113 126.093C40.6832 126.093 42.343 125.779 43.5317 125.263L42.9934 122.661ZM35.6142 117.166C35.7264 115.753 36.489 113.846 38.3057 113.846C40.1898 113.846 40.7729 115.685 40.7505 117.166H35.6142ZM47.5017 111.491H45.6177V114.295H47.5017V120.911C47.5017 122.504 47.569 126.093 51.6736 126.093C52.7726 126.093 53.6922 125.958 54.2081 125.756L54.1632 122.84C53.7819 122.908 53.4679 122.975 52.9296 122.975C51.7857 122.975 51.2474 122.257 51.2474 120.53V114.295H54.4099V111.491H51.2474V107.745L47.5017 108.844V111.491ZM64.5704 111.267C64.3237 111.222 64.077 111.2 63.7181 111.2C62.3948 111.2 60.8471 112.164 60.1743 114.003H60.0621L59.9051 111.514H56.6529C56.6977 112.792 56.765 114.227 56.765 115.999V125.868H60.5556V118.444C60.5556 115.999 61.8565 114.833 63.5835 114.833C63.9648 114.833 64.2788 114.856 64.548 114.9V111.267H64.5704ZM72.6225 111.177C68.7422 111.177 65.8489 113.913 65.8489 118.736C65.8489 123.401 68.6301 126.137 72.4655 126.137C75.6505 126.137 79.127 124.029 79.127 118.556C79.1494 114.205 76.6373 111.177 72.6225 111.177ZM75.2916 118.624C75.2916 121.181 74.3271 123.311 72.5104 123.311C70.6712 123.311 69.6843 121.203 69.6843 118.646C69.6843 116.448 70.4244 113.981 72.5328 113.981C74.5066 114.003 75.2916 116.381 75.2916 118.624ZM85.6988 113.218V105.121H81.9082V121.719C81.9082 123.177 81.8634 124.814 81.7961 125.846H85.0259L85.2053 123.872H85.2726C86.1698 125.487 87.538 126.137 89.1304 126.137C92.0911 126.137 94.9845 123.603 94.9845 118.399C94.9845 114.115 92.8761 111.177 89.7136 111.177C87.8968 111.177 86.5511 111.94 85.7436 113.218H85.6988ZM85.6988 117.323C85.6988 115.461 86.9548 114.227 88.2557 114.227C90.207 114.227 91.1491 116.134 91.1491 118.579C91.1491 121.36 90.0949 123.087 88.2557 123.087C86.7529 123.087 85.6988 121.741 85.6988 120.126V117.323ZM108.352 117.188C108.352 114.048 107.141 111.222 102.7 111.222C100.457 111.222 98.7077 111.872 97.7433 112.433L98.461 114.9C99.3806 114.34 100.659 113.913 101.982 113.913C104.068 113.913 104.539 114.99 104.539 116.403C100.009 116.403 96.734 118.13 96.734 121.809C96.734 124.119 98.3713 126.115 101.018 126.115C102.61 126.115 104.001 125.465 104.808 124.343H104.876L105.1 125.846H108.509C108.352 124.971 108.307 123.715 108.307 122.437V117.188H108.352ZM104.651 120.934C104.651 122.773 103.171 123.401 102.274 123.401C101.332 123.401 100.48 122.818 100.48 121.45C100.48 119.364 102.61 118.87 104.651 118.87V120.934ZM123.941 117.054C123.941 113.061 121.922 111.222 119.298 111.222C117.212 111.222 115.799 112.411 115.171 113.465H115.104L114.924 111.514H111.649C111.694 112.77 111.762 114.138 111.762 115.82V125.868H115.552V117.323C115.552 115.147 116.965 114.34 117.997 114.34C119.612 114.34 120.173 115.73 120.173 117.48V125.846H123.963V117.054H123.941ZM134.752 117.39L139.417 111.491H134.998L132.15 115.977C131.813 116.515 131.499 117.121 131.208 117.749H131.14V105.121H127.35V125.823H131.14V121.068L132.15 119.7L135.492 125.823H140L134.752 117.39Z" fill="#0052A0"/>
</g>
</g>
</g>
</svg>
