<svg width="150" height="150" viewBox="0 0 150 150" fill="none" xmlns="http://www.w3.org/2000/svg">
<g id="Bank Logos/netbank">
<g id="netbank" clip-path="url(#clip0_3421_74)">
<g id="Layer 2">
<g id="Layer 1">
<path id="Vector" d="M20.1156 36.7032C19.759 29.8135 22.2553 28.8577 29.031 29.2785C33.7097 29.5852 38.5525 28.0304 43.2527 27.0033C53.8014 24.7068 62.9378 19.6642 70.8832 12.3822C74.3922 9.17266 76.1254 9.20832 79.6915 12.482C89.0937 21.3334 101.146 26.847 113.991 28.173C117.557 28.5511 121.123 28.708 124.689 28.8863C127.813 29.0646 129.682 30.7121 129.682 33.7719C129.767 52.38 131.072 71.0594 126.322 89.4036C119.547 115.543 101.994 131.185 77.2523 139.75C75.7402 140.278 73.6861 139.986 72.1099 139.429C40.9347 128.339 24.1382 106.157 21.3352 73.2633M120.773 55.5824V37.9942C103.463 37.174 88.1932 32.1457 75.1982 20.7769C62.2602 32.1457 46.9758 37.1383 29.2592 38.0298C29.7442 50.604 29.7085 62.9928 30.7926 75.2033C33.2105 102.392 47.9101 120.458 73.2439 130.065C74.1838 130.493 75.2374 130.606 76.2466 130.386C94.384 123.631 108.556 112.555 115.51 93.7971C119.996 81.6865 120.752 69.041 120.773 55.5824Z" fill="#0A42AD"/>
<path id="Vector_2" d="M84.5772 65.6318C86.7953 63.4921 88.8566 61.4523 90.875 59.4766C92.8934 57.501 95.2114 57.3797 97.2013 59.3054C99.341 61.3738 99.2126 63.8273 97.1443 65.9171C88.9707 74.2048 80.7543 82.4544 72.4951 90.6661C70.1557 93.0054 67.7022 92.9698 65.3628 90.609C61.4044 86.672 57.4175 82.7635 53.4876 78.7979C51.4406 76.7367 51.1625 74.3831 53.0026 72.1007C54.6216 70.0823 57.6814 70.1608 59.8924 72.3789C62.8237 75.3103 65.5554 78.4485 68.5581 81.7008L84.5772 65.6318Z" fill="#0C43AE"/>
</g>
</g>
</g>
</g>
<defs>
<clipPath id="clip0_3421_74">
<rect width="109.844" height="130" fill="white" transform="translate(20.0801 10)"/>
</clipPath>
</defs>
</svg>
