<svg width="150" height="150" viewBox="0 0 150 150" fill="none" xmlns="http://www.w3.org/2000/svg">
<g id="Bank Logos/palawanpay">
<g id="palawanpay" clip-path="url(#clip0_3421_74)">
<g id="Layer1000">
<path id="path1" fill-rule="evenodd" clip-rule="evenodd" d="M12.1533 23.612C13.7986 23.4211 15.4919 23.5356 17.1469 23.5212C46.1661 23.4878 75.1805 23.5405 104.2 23.5118C107.103 23.4736 109.915 23.9269 112.766 24.4184C118.611 25.449 124.15 27.453 128.78 31.2463C133.779 35.1828 137.481 40.713 138.92 46.9256C140.858 54.4359 140.025 62.4855 137.71 69.8193C134.745 78.5368 128.986 86.3859 121.228 91.439C113.9 96.5159 104.955 99.3263 96.0875 99.8464C91.8928 99.9705 87.6884 99.8702 83.4888 99.918C82.7904 104.002 81.8816 108.044 81.1977 112.133C80.4946 116.914 79.4279 121.624 78.6674 126.4C77.3376 126.476 76.0367 126.471 74.707 126.381C75.8692 120.364 76.7446 114.299 77.9978 108.297C78.6483 104.236 79.3848 100.199 80.1358 96.1533C84.0149 96.1246 87.8892 96.1484 91.7636 96.1199C96.1162 96.1246 100.483 95.4613 104.735 94.5643C110.466 93.2999 115.627 90.6422 120.381 87.2639C127.46 82.1154 132.487 74.524 134.754 66.1071C136.208 61.2257 136.204 56.3016 135.907 51.2677C135.166 46.6298 133.42 41.882 130.383 38.2319C126.111 32.8591 119.927 29.8531 113.307 28.436C109.188 27.6725 105.046 27.2765 100.852 27.4435C71.0813 27.4483 41.3064 27.5054 11.541 27.4196C11.6797 26.117 11.7754 24.8764 12.1533 23.612Z" fill="#ECBD12"/>
<path id="path2" fill-rule="evenodd" clip-rule="evenodd" d="M42.3256 31.3513C41.5125 36.0322 42.3735 40.9707 45.6069 44.5875C48.1276 47.5554 51.6336 49.0965 55.4266 49.6978C56.1154 49.7312 56.8089 49.7693 57.4977 49.8076C57.0721 51.9118 56.761 54.0351 56.3306 56.1346C48.1993 56.3826 40.1493 51.6732 37.0834 44.0245C35.1127 39.9449 35.481 35.9367 35.6436 31.547C37.8342 31.2369 40.1159 31.3562 42.3256 31.3513Z" fill="#01652F"/>
<path id="path3" fill-rule="evenodd" clip-rule="evenodd" d="M53.2595 31.2273C55.1871 30.9553 57.0909 31.8523 58.4158 33.2123C60.6159 35.4835 60.3625 39.6013 57.9518 41.6387C55.2062 44.0817 50.404 43.4185 48.6677 40.0784C46.4675 36.3758 49.0934 31.733 53.2595 31.2273Z" fill="#01652F"/>
<path id="path4" fill-rule="evenodd" clip-rule="evenodd" d="M98.4601 31.2369C102.842 31.2273 107.333 31.2225 111.618 32.1052C116.191 32.8114 120.769 34.658 124.361 37.602C128.283 40.9087 131.134 45.6659 131.794 50.7809C132.784 57.4992 131.832 64.7042 128.938 70.869C126.15 76.924 121.62 82.1106 115.942 85.632C109.213 90.0838 101.201 92.0068 93.1987 92.2978C87.7363 92.3265 82.2693 92.274 76.807 92.3169C76.056 97.4988 75.0372 102.604 74.0901 107.753C73.1718 113.989 71.6794 120.106 70.8711 126.362C67.1642 126.61 63.4286 126.438 59.7168 126.486C55.6368 126.448 51.5424 126.576 47.4673 126.376C48.3377 121.466 49.3805 116.585 50.1075 111.651C50.7772 107.314 51.82 103.077 52.3986 98.7299C53.1161 94.1874 54.1684 89.7165 54.8141 85.1597C55.4599 80.9178 56.4357 76.7379 57.067 72.4913C57.7748 67.6865 58.9132 62.9721 59.5925 58.1672C60.2956 53.5483 61.4005 49.0297 62.0223 44.3967C62.7398 40.0164 63.6916 35.6791 64.39 31.2941C75.7403 31.1844 87.1098 31.2703 98.4601 31.2369Z" fill="#01652F"/>
<path id="path5" fill-rule="evenodd" clip-rule="evenodd" d="M10.8859 31.3656C13.0097 31.3562 15.1381 31.3322 17.2619 31.3466C16.243 37.6401 16.2717 44.0292 18.2854 50.1321C20.8396 59.0547 27.3973 66.694 35.7295 70.7735C41.1201 73.5076 46.9555 74.4238 52.9343 74.7149C52.5949 76.8763 52.2552 79.0426 51.8342 81.1898C48.7061 80.8797 45.5923 80.7555 42.4928 80.1926C34.5911 78.5749 27.1916 74.8532 21.5189 69.0797C11.8186 59.4794 8.1357 44.5445 10.8859 31.3656Z" fill="#01652F"/>
<path id="path6" fill-rule="evenodd" clip-rule="evenodd" d="M23.2837 31.3418C25.441 31.3562 27.5934 31.3609 29.7458 31.3562C29.5449 33.5796 29.0713 35.9367 29.2913 38.146C29.4635 40.0021 29.7506 41.8392 30.2193 43.6475C31.6016 49.6644 35.6242 55.0658 40.8808 58.2914C45.2144 61.0015 50.1363 62.1133 55.2159 62.1467C54.8284 64.2557 54.5272 66.3742 54.1875 68.4927C47.9982 68.8077 41.6988 67.0326 36.4805 63.7404C30.9272 60.343 26.8042 54.9512 24.58 48.8819C22.5472 43.1703 22.4611 37.2919 23.2837 31.3418Z" fill="#01652F"/>
<path id="path7" fill-rule="evenodd" clip-rule="evenodd" d="M89.5633 45.0217C93.5095 44.0626 98.2496 44.1247 101.861 46.1813C104.597 47.5936 106.888 49.8552 108.471 52.4796C110.686 56.1393 110.973 60.8822 110.016 64.9713C108.753 69.6713 105.07 73.6984 100.569 75.5404C94.9635 77.8354 88.3294 76.8381 83.7567 72.8396C78.4331 68.364 76.692 60.7772 79.3131 54.3691C81.1881 49.9937 84.9955 46.4484 89.5633 45.0217Z" fill="#ECBD12"/>
</g>
</g>
</g>
<defs>
<clipPath id="clip0_3421_74">
<rect width="130" height="103" fill="white" transform="translate(10 23.5)"/>
</clipPath>
</defs>
</svg>
