<svg width="150" height="150" viewBox="0 0 150 150" fill="none" xmlns="http://www.w3.org/2000/svg">
<g id="Bank Logos/pbcom">
<g id="pbcom">
<path id="Vector" d="M140 79.5935C140 80.8728 140 82.1109 140 83.3727C138.689 83.3727 137.408 83.3727 136.123 83.3727C136.123 76.0921 136.123 68.8034 136.123 61.3946C135.88 62.0052 135.675 62.5175 135.473 63.0308C132.835 69.7167 130.197 76.4023 127.565 83.09C127.479 83.3088 127.38 83.4107 127.121 83.4042C126.306 83.3838 125.49 83.3967 124.647 83.3967C121.755 76.0695 118.866 68.7497 115.948 61.3579C115.948 68.7446 115.948 76.0508 115.948 83.3769C114.686 83.3769 113.403 83.3769 112.09 83.3769C112.09 74.62 112.09 65.851 112.09 57.0424C112.185 57.0368 112.303 57.024 112.421 57.0239C114.11 57.0226 115.798 57.0312 117.486 57.0153C117.784 57.0126 117.912 57.1073 118.022 57.3792C120.647 63.9072 123.282 70.4311 125.916 76.9556C125.961 77.0677 126.009 77.1787 126.087 77.3643C126.184 77.1514 126.259 77.0018 126.321 76.8467C128.903 70.3603 131.485 63.8741 134.058 57.384C134.165 57.114 134.289 57.0122 134.591 57.0149C136.375 57.0313 138.159 57.023 140 57.023C140 64.5452 140 72.0487 140 79.5935Z" fill="#FF0000"/>
<path id="Vector_2" d="M103.306 59.7859C109.392 65.0823 109.724 74.3811 104.019 79.9706C101.398 82.5384 98.1951 83.7946 94.5322 83.89C90.8708 83.9854 87.5967 82.9134 84.8585 80.4692C81.5651 77.5295 80.0688 73.809 80.3311 69.4141C80.7126 63.0208 84.9459 58.0748 91.2337 56.82C95.675 55.9337 99.7376 56.8778 103.306 59.7859ZM102.839 74.6633C104.233 71.556 104.192 68.4635 102.648 65.4309C99.7642 59.7638 92.1844 58.4463 87.5995 62.8474C84.8389 65.4973 84.0034 68.8055 84.758 72.4966C85.8286 77.7341 90.8988 81.0567 96.1468 79.9805C99.2385 79.3465 101.413 77.5066 102.839 74.6633Z" fill="#FF0000"/>
<path id="Vector_3" d="M30.9372 83.0563C30.9372 74.3668 30.9372 65.7176 30.9372 57.0339C31.0685 57.0251 31.1862 57.0102 31.3038 57.0104C34.0289 57.0137 36.7543 56.9932 39.4789 57.0321C41.3007 57.0581 43.0306 57.4451 44.5723 58.5054C46.3027 59.6956 47.0273 61.3839 47.1251 63.3975C47.2483 65.9338 46.2359 67.8792 44.0239 69.1808C43.9894 69.201 43.9609 69.232 43.932 69.2604C43.9233 69.2691 43.9228 69.286 43.9446 69.2191C44.6956 69.6486 45.4791 70.0046 46.157 70.503C47.6405 71.594 48.3951 73.134 48.5745 74.9366C48.8005 77.2071 48.2827 79.2859 46.6137 80.9229C45.1528 82.3556 43.3656 83.244 41.29 83.2989C37.9315 83.3876 34.5702 83.3753 31.2102 83.416C30.9436 83.4193 30.9121 83.3013 30.9372 83.0563ZM39.3642 71.4794C37.9744 71.4794 36.5845 71.4794 35.1908 71.4794C35.1908 74.2338 35.1908 76.9389 35.1908 79.6761C36.4224 79.6761 37.6359 79.6962 38.8483 79.6691C39.6745 79.6506 40.5088 79.6267 41.3225 79.4986C43.1486 79.211 44.3666 77.8609 44.5436 76.0262C44.7319 74.0742 43.7883 72.5143 42.0134 71.8544C41.1855 71.5466 40.3218 71.4725 39.3642 71.4794ZM35.1718 61.3691C35.1718 63.5525 35.1718 65.7358 35.1718 67.9363C35.3611 67.9363 35.4979 67.9367 35.6347 67.9362C36.8654 67.9314 38.097 67.9517 39.3266 67.9119C40.0697 67.8878 40.8169 67.7957 41.477 67.395C42.7752 66.607 43.3485 65.0642 42.9719 63.3819C42.6499 61.9439 41.5272 60.9491 39.9353 60.8402C38.5447 60.745 37.1458 60.7707 35.7505 60.7441C35.563 60.7406 35.3754 60.7436 35.1718 60.7436C35.1718 60.9602 35.1718 61.1241 35.1718 61.3691Z" fill="#FF0000"/>
<path id="Vector_4" d="M66.077 80.1181C69.1604 79.7797 71.4033 78.1856 73.0647 75.6979C73.2313 75.4486 73.3893 75.3519 73.6881 75.3557C75.0153 75.3725 76.3428 75.363 77.7405 75.363C77.6743 75.5609 77.6319 75.7249 77.5659 75.8789C75.8264 79.9401 72.749 82.4826 68.4816 83.4897C63.869 84.5783 59.6246 83.6569 55.9963 80.5567C52.893 77.9051 51.3539 74.4563 51.2868 70.3875C51.2239 66.5715 52.545 63.2669 55.213 60.5321C57.2271 58.4676 59.7013 57.207 62.552 56.7379C66.5324 56.0828 70.1968 56.8486 73.4241 59.3297C75.3782 60.832 76.8354 62.7257 77.7292 65.0313C77.7435 65.0682 77.7495 65.1083 77.775 65.2082C77.5448 65.2082 77.3333 65.2082 77.1217 65.2082C75.9594 65.2082 74.7971 65.2002 73.6349 65.2145C73.3819 65.2176 73.255 65.137 73.1197 64.9205C71.1263 61.7314 68.2508 60.0949 64.4644 60.2768C60.1948 60.482 56.5898 63.702 55.7658 67.9108C55.1308 71.1547 55.7078 74.1438 57.8182 76.7286C59.9258 79.3101 62.7224 80.3768 66.077 80.1181Z" fill="#FF0000"/>
<path id="Vector_5" d="M19.2199 73.7101C17.5501 73.7102 15.9206 73.7102 14.2556 73.7102C14.2556 76.9517 14.2556 80.1534 14.2556 83.3757C12.8311 83.3757 11.442 83.3757 10.0332 83.3757C10.0332 74.5981 10.0332 65.8301 10.0332 57.0341C10.0952 57.0261 10.1588 57.0105 10.2224 57.0107C13.1823 57.0185 16.1427 57.0008 19.1021 57.0478C20.6372 57.0723 22.1715 57.2305 23.5855 57.9057C25.8971 59.0096 27.2145 60.9003 27.7431 63.3442C28.2725 65.7916 27.8609 68.1119 26.5288 70.2368C25.3477 72.1207 23.5313 73.0679 21.3988 73.4674C20.6955 73.5991 19.9736 73.632 19.2199 73.7101ZM17.5276 70.0032C18.1897 69.975 18.8571 69.99 19.5129 69.9108C21.957 69.6159 23.4754 68.4692 23.8496 66.0665C24.1725 63.9922 23.1827 62.0469 21.3074 61.2814C20.729 61.0453 20.0882 60.8724 19.4679 60.8433C17.7576 60.7631 16.0429 60.7741 14.33 60.7513C14.3087 60.751 14.2869 60.7799 14.2731 60.7897C14.2731 63.8583 14.2731 66.9208 14.2731 70.0032C15.3468 70.0032 16.3958 70.0032 17.5276 70.0032Z" fill="#FF0000"/>
<path id="Vector_6" d="M39.2245 87.5536C39.2245 87.3922 39.2245 87.2693 39.2245 87.1309C39.5514 87.1309 39.8522 87.1309 40.1759 87.1309C40.1759 89.2132 40.1759 91.2875 40.1759 93.361C39.6135 93.4887 39.2114 93.4041 38.8649 92.8537C38.0582 91.5726 37.1648 90.3457 36.3057 89.0974C36.2309 88.9888 36.1495 88.8846 36.0248 88.7154C36.0248 90.313 36.0248 91.8326 36.0248 93.3768C35.7021 93.3768 35.4051 93.3768 35.0757 93.3768C35.0757 91.3135 35.0757 89.2428 35.0757 87.1707C35.8427 87.0019 35.9626 87.0501 36.3866 87.6727C37.3092 89.0274 38.2344 90.3803 39.2245 91.8305C39.2245 90.3483 39.2245 88.9703 39.2245 87.5536Z" fill="#FF0000"/>
<path id="Vector_7" d="M125.299 92.1594C125.299 90.4672 125.299 88.8163 125.299 87.1713C126.13 87.0109 126.216 87.0471 126.646 87.6787C127.567 89.0319 128.491 90.383 129.473 91.8203C129.473 90.1957 129.473 88.6675 129.473 87.1321C129.814 87.1321 130.114 87.1321 130.433 87.1321C130.433 89.2228 130.433 91.2968 130.433 93.364C129.834 93.5083 129.437 93.362 129.09 92.8118C128.29 91.5428 127.406 90.3266 126.555 89.0897C126.482 88.9827 126.4 88.8812 126.274 88.713C126.274 90.3185 126.274 91.8394 126.274 93.3809C125.952 93.3809 125.653 93.3809 125.299 93.3809C125.299 92.9891 125.299 92.5949 125.299 92.1594Z" fill="#FF0000"/>
<path id="Vector_8" d="M111.284 88.335C111.39 89.0647 111.234 89.6566 110.587 90.0462C111.489 90.5991 111.784 91.1458 111.626 91.9596C111.464 92.791 110.736 93.3633 109.792 93.3999C109.723 93.4026 109.654 93.4006 109.585 93.4006C108.88 93.4006 108.174 93.4006 107.439 93.4006C107.439 91.3082 107.439 89.225 107.439 87.0671C108.321 87.1069 109.204 87.1024 110.075 87.2008C110.694 87.2708 111.123 87.666 111.284 88.335ZM110 90.6654C109.484 90.6309 108.968 90.5965 108.419 90.56C108.419 90.9383 108.419 91.2387 108.419 91.5391C108.419 91.8512 108.419 92.1633 108.419 92.4916C108.881 92.4916 109.294 92.5079 109.706 92.4875C110.227 92.4617 110.563 92.1928 110.649 91.775C110.751 91.2778 110.575 90.9501 110 90.6654ZM108.419 89.5254C108.488 89.5999 108.557 89.7367 108.628 89.7383C108.97 89.7459 109.317 89.7402 109.656 89.6955C110.091 89.6382 110.328 89.3421 110.342 88.9058C110.357 88.4611 110.113 88.1025 109.678 88.051C109.275 88.0034 108.863 88.0409 108.419 88.0409C108.419 88.521 108.419 88.9844 108.419 89.5254Z" fill="#FF0000"/>
<path id="Vector_9" d="M67.8716 88.605C67.8716 88.0965 67.8716 87.6294 67.8716 87.1012C68.9681 87.1444 70.0591 86.9698 71.1219 87.2851C71.8939 87.5141 72.3486 88.2901 72.3301 89.2472C72.3125 90.1603 71.8725 90.7699 71.0588 91.0116C70.9814 91.0346 70.9071 91.0684 70.811 91.105C71.2854 91.8619 71.7497 92.6028 72.2497 93.4004C71.8978 93.4004 71.6126 93.4093 71.3286 93.3947C71.2488 93.3906 71.1402 93.3378 71.0996 93.2732C70.5455 92.3914 70.0011 91.5036 69.4273 90.5734C69.7492 90.5512 70.0203 90.5441 70.2883 90.5117C70.9587 90.4306 71.3682 89.9559 71.368 89.276C71.3679 88.6325 70.9521 88.1141 70.3143 88.0495C69.8535 88.0029 69.3841 88.0404 68.8869 88.0404C68.8869 89.8195 68.8869 91.5894 68.8869 93.3798C68.5448 93.3798 68.2337 93.3798 67.8716 93.3798C67.8716 91.8006 67.8716 90.2235 67.8716 88.605Z" fill="#FF0000"/>
<path id="Vector_10" d="M14.3448 91.937C13.5379 91.9184 12.7631 91.9289 11.9894 91.905C11.7413 91.8974 11.6542 92.0001 11.5857 92.2031C11.4936 92.476 11.3471 92.7335 11.28 93.011C11.1986 93.3473 11.0156 93.4468 10.6907 93.4057C10.4869 93.3799 10.2771 93.4009 10 93.4009C10.8738 91.2838 11.7333 89.2016 12.5877 87.1316C13.5203 87.0835 13.5191 87.084 13.8492 87.8953C14.5888 89.7129 15.3298 91.53 16.0695 93.3455C16.027 93.3711 16.0071 93.3933 15.9863 93.3941C14.9792 93.4321 14.9792 93.4319 14.6107 92.5252C14.5331 92.3343 14.4552 92.1435 14.3448 91.937ZM13.2874 91.0987C13.5421 91.0987 13.7968 91.0987 14.0923 91.0987C13.7326 90.1609 13.3957 89.2827 13.0278 88.3237C12.6652 89.2844 12.3304 90.1716 11.9805 91.0987C12.4341 91.0987 12.8203 91.0987 13.2874 91.0987Z" fill="#FF0000"/>
<path id="Vector_11" d="M88.2661 91.9132C87.4137 91.9128 86.5987 91.9128 85.7695 91.9128C85.6153 92.3073 85.4457 92.6826 85.3239 93.0726C85.2379 93.3477 85.0922 93.4362 84.8148 93.406C84.5831 93.3808 84.3465 93.4009 84.0649 93.4009C84.4946 92.3572 84.9105 91.3444 85.3284 90.3325C85.7373 89.3422 86.1644 88.359 86.5488 87.3594C86.6752 87.0308 86.9056 87.1157 87.1185 87.1223C87.327 87.1288 87.5707 87.0091 87.7014 87.3379C88.4825 89.3036 89.2831 91.2616 90.0764 93.2224C90.096 93.2708 90.1073 93.3226 90.1223 93.372C90.0942 93.3821 90.0823 93.3897 90.0699 93.3904C89.0485 93.452 89.0547 93.4494 88.6607 92.5083C88.5723 92.2973 88.4241 92.1112 88.2661 91.9132ZM88.0703 90.8807C87.7547 90.0553 87.4392 89.2299 87.0924 88.3229C86.7288 89.2852 86.3938 90.1719 86.0438 91.0983C86.7222 91.0983 87.3409 91.1015 87.9594 91.0916C88.005 91.0909 88.049 90.9956 88.0703 90.8807Z" fill="#FF0000"/>
<path id="Vector_12" d="M117.678 87.4015C117.834 86.8949 118.224 87.1778 118.498 87.1302C118.593 87.1137 118.777 87.2359 118.819 87.3365C119.636 89.318 120.439 91.3056 121.243 93.2924C121.253 93.3153 121.245 93.3451 121.244 93.3716C121.234 93.3776 121.223 93.388 121.212 93.3888C120.19 93.4637 120.154 93.4759 119.819 92.5064C119.649 92.016 119.411 91.8608 118.905 91.9004C118.259 91.951 117.606 91.9127 116.911 91.9127C116.764 92.281 116.598 92.6527 116.471 93.0372C116.381 93.3076 116.256 93.4483 115.946 93.4069C115.717 93.3762 115.481 93.4008 115.2 93.4008C116.031 91.3872 116.847 89.4093 117.678 87.4015ZM118.935 90.1518C118.709 89.5698 118.483 88.9877 118.227 88.3291C117.866 89.2848 117.531 90.1717 117.188 91.0792C117.91 91.0792 118.578 91.0792 119.282 91.0792C119.165 90.7719 119.059 90.4929 118.935 90.1518Z" fill="#FF0000"/>
<path id="Vector_13" d="M27.6319 92.415C28.5935 92.84 29.387 92.3792 29.4202 91.3538C29.4612 90.0875 29.4382 88.8191 29.4427 87.5516C29.4432 87.4176 29.4428 87.2835 29.4428 87.1333C29.7785 87.1333 30.0791 87.1333 30.4138 87.1333C30.4218 87.2266 30.4384 87.3307 30.4385 87.4347C30.4403 88.7299 30.4444 90.0251 30.4384 91.3203C30.4322 92.6356 29.5664 93.4846 28.2458 93.4831C26.921 93.4815 26.0441 92.6295 26.0396 91.3283C26.0347 89.9391 26.0385 88.55 26.0385 87.1388C26.3742 87.1388 26.6854 87.1388 27.0494 87.1388C27.0494 87.3645 27.0494 87.5929 27.0494 87.8213C27.0494 88.8823 27.0434 89.9433 27.052 91.0042C27.0563 91.5348 27.1066 92.0576 27.6319 92.415Z" fill="#FF0000"/>
<path id="Vector_14" d="M136.319 92.0773C136.319 92.53 136.319 92.9414 136.319 93.3765C135.986 93.3765 135.674 93.3765 135.334 93.3765C135.334 91.3137 135.334 89.2416 135.334 87.1429C135.645 87.1429 135.967 87.1429 136.325 87.1429C136.325 88.0827 136.325 89.0091 136.325 90.054C136.816 89.4255 137.237 88.8886 137.657 88.3509C137.793 88.1771 137.95 88.0144 138.056 87.8238C138.408 87.1898 138.923 86.9497 139.676 87.1694C138.88 88.1868 138.081 89.2083 137.267 90.2495C138.157 91.2874 139.033 92.3092 139.967 93.3993C139.529 93.3993 139.163 93.4141 138.8 93.3895C138.702 93.3828 138.593 93.2717 138.52 93.1836C137.91 92.4535 137.307 91.7173 136.701 90.9838C136.6 90.8616 136.494 90.7434 136.319 90.5396C136.319 91.1126 136.319 91.5743 136.319 92.0773Z" fill="#FF0000"/>
<path id="Vector_15" d="M77.34 92.0656C77.7725 92.6666 78.3796 92.7808 78.8851 92.3834C79.4191 91.9636 79.3832 91.2211 78.7795 90.9126C78.3281 90.682 77.8322 90.5395 77.3649 90.3375C76.4652 89.9486 76.0873 89.2148 76.3227 88.3482C76.5607 87.4723 77.4279 86.9506 78.5038 87.036C79.4403 87.1104 80.0649 87.7574 80.1442 88.7526C79.8278 88.7526 79.5126 88.7526 79.1624 88.7526C79.0405 88.2125 78.7437 87.8465 78.11 87.9065C77.6915 87.9461 77.3606 88.2215 77.2918 88.6075C77.2178 89.0231 77.4197 89.2991 77.7826 89.4645C78.3207 89.7098 78.8906 89.8969 79.402 90.1872C80.4369 90.7745 80.5728 92.1338 79.7162 92.9622C79.1358 93.5234 78.0294 93.6683 77.2278 93.288C76.551 92.9668 76.1571 92.2909 76.2181 91.5314C76.53 91.5314 76.844 91.5314 77.1629 91.5314C77.2171 91.6978 77.2721 91.8669 77.34 92.0656Z" fill="#FF0000"/>
<path id="Vector_16" d="M61.6588 87.1021C62.25 87.1021 62.7996 87.1021 63.3692 87.1021C63.3692 87.4118 63.3692 87.6818 63.3692 87.9938C62.5446 87.9938 61.7216 87.9938 60.8712 87.9938C60.8712 88.605 60.8712 89.1751 60.8712 89.7944C61.6852 89.7944 62.4935 89.7944 63.3174 89.7944C63.3174 90.1019 63.3174 90.3608 63.3174 90.6585C62.5132 90.6585 61.7038 90.6585 60.8691 90.6585C60.8691 91.2806 60.8691 91.8647 60.8691 92.4927C61.6936 92.4927 62.5153 92.4927 63.363 92.4927C63.363 92.8036 63.363 93.0723 63.363 93.3711C62.2058 93.3711 61.0398 93.3711 59.8525 93.3711C59.8525 91.3003 59.8525 89.2276 59.8525 87.1021C60.4405 87.1021 61.0289 87.1021 61.6588 87.1021Z" fill="#FF0000"/>
<path id="Vector_17" d="M51.4739 90.9816C50.9894 89.6939 50.5175 88.436 50.0225 87.1164C50.3499 87.1164 50.6475 87.0909 50.936 87.1304C51.0362 87.1441 51.1531 87.3048 51.1964 87.4224C51.7283 88.865 52.2477 90.3121 52.7712 91.7578C52.8067 91.8558 52.8487 91.9515 52.9123 92.1092C53.5279 90.4154 54.1224 88.7795 54.7208 87.133C55.0663 87.133 55.4059 87.133 55.7904 87.133C54.9928 89.2376 54.2063 91.3127 53.4188 93.3905C53.069 93.3905 52.7388 93.3905 52.3853 93.3905C52.0859 92.5981 51.7862 91.8047 51.4739 90.9816Z" fill="#FF0000"/>
<path id="Vector_18" d="M94.7866 87.1167C94.9629 87.1167 95.0995 87.1167 95.2691 87.1167C95.2691 88.9045 95.2691 90.6742 95.2691 92.4852C96.0242 92.4852 96.7483 92.4852 97.5001 92.4852C97.5001 92.8047 97.5001 93.0835 97.5001 93.3818C96.4383 93.3818 95.38 93.3818 94.2988 93.3818C94.2988 91.3014 94.2988 89.2304 94.2988 87.1167C94.4513 87.1167 94.5991 87.1167 94.7866 87.1167Z" fill="#FF0000"/>
<path id="Vector_19" d="M44.8867 87.7018C44.8867 87.4976 44.8867 87.334 44.8867 87.1169C45.0616 87.1169 45.221 87.1169 45.3803 87.1169C45.542 87.1169 45.7038 87.1169 45.8807 87.1169C45.8807 89.2244 45.8807 91.2928 45.8807 93.3806C45.554 93.3806 45.243 93.3806 44.8867 93.3806C44.8867 91.4982 44.8867 89.6203 44.8867 87.7018Z" fill="#FF0000"/>
</g>
</g>
</svg>
