<svg width="150" height="150" viewBox="0 0 150 150" fill="none" xmlns="http://www.w3.org/2000/svg">
<g id="Bank Logos/veteransbank">
<g id="veteransbank">
<g id="Group 4218">
<g id="Vector">
<path d="M21.6033 71.0693L17.5951 82.5596H13.9979L10 71.0693H13.3607L15.776 79.3016H15.8993L18.2734 71.0693H21.6033Z" fill="#82AA4A"/>
<path d="M27.1149 82.7857C25.9364 82.7857 24.9189 82.5459 24.0625 82.0662C23.206 81.5866 22.5483 80.9049 22.0892 80.021C21.637 79.1303 21.4109 78.0786 21.4109 76.8658C21.4109 75.6873 21.637 74.6527 22.0892 73.762C22.5483 72.8713 23.1923 72.1759 24.0214 71.6757C24.8573 71.1755 25.8371 70.9254 26.9607 70.9254C27.7213 70.9254 28.4304 71.0488 29.0882 71.2954C29.7459 71.5352 30.3215 71.8984 30.8148 72.3848C31.3081 72.8645 31.6918 73.4708 31.9659 74.204C32.2399 74.9302 32.377 75.7833 32.377 76.7631V77.6264H22.675V75.6634H30.8354L29.3554 76.1772C29.3554 75.5948 29.2663 75.0878 29.0882 74.6562C28.91 74.2245 28.6428 73.8922 28.2865 73.6592C27.9371 73.4194 27.502 73.2995 26.9813 73.2995C26.4606 73.2995 26.0186 73.4194 25.6555 73.6592C25.2992 73.8991 25.0251 74.2245 24.8333 74.6356C24.6415 75.0467 24.5455 75.5195 24.5455 76.0539V77.4414C24.5455 78.0649 24.6552 78.5993 24.8744 79.0447C25.0937 79.4832 25.3986 79.8223 25.7891 80.0621C26.1865 80.2951 26.6421 80.4116 27.156 80.4116C27.5123 80.4116 27.8343 80.3602 28.1221 80.2574C28.4099 80.1546 28.6565 80.0039 28.8621 79.8052C29.0745 79.6065 29.2321 79.3667 29.3348 79.0858L32.2742 79.281C32.1303 79.9868 31.8288 80.6034 31.3698 81.131C30.9176 81.6517 30.3318 82.0594 29.6123 82.354C28.8929 82.6418 28.0604 82.7857 27.1149 82.7857Z" fill="#82AA4A"/>
<path d="M39.5227 71.0693V73.4743H32.606V71.0693H39.5227ZM34.1784 68.3355H37.3542V79.0241C37.3542 79.4078 37.4398 79.6921 37.6111 79.8771C37.7824 80.0553 38.0565 80.1443 38.4333 80.1443C38.5566 80.1443 38.6937 80.1341 38.8444 80.1135C38.9951 80.093 39.1253 80.069 39.2349 80.0416L39.7385 82.4259C39.3891 82.5287 39.0499 82.6041 38.7211 82.6521C38.399 82.7 38.0804 82.724 37.7653 82.724C36.621 82.724 35.7372 82.4397 35.1137 81.871C34.4902 81.2954 34.1784 80.4869 34.1784 79.4455V68.3355Z" fill="#82AA4A"/>
<path d="M45.7024 82.7857C44.5239 82.7857 43.5064 82.5459 42.6499 82.0662C41.7935 81.5866 41.1357 80.9049 40.6767 80.021C40.2245 79.1303 39.9984 78.0786 39.9984 76.8658C39.9984 75.6873 40.2245 74.6527 40.6767 73.762C41.1357 72.8713 41.7798 72.1759 42.6088 71.6757C43.4447 71.1755 44.4245 70.9254 45.5482 70.9254C46.3087 70.9254 47.0179 71.0488 47.6756 71.2954C48.3334 71.5352 48.9089 71.8984 49.4023 72.3848C49.8956 72.8645 50.2793 73.4708 50.5533 74.204C50.8274 74.9302 50.9644 75.7833 50.9644 76.7631V77.6264H41.2625V75.6634H49.4228L47.9429 76.1772C47.9429 75.5948 47.8538 75.0878 47.6756 74.6562C47.4975 74.2245 47.2303 73.8922 46.874 73.6592C46.5246 73.4194 46.0895 73.2995 45.5688 73.2995C45.048 73.2995 44.6061 73.4194 44.243 73.6592C43.8867 73.8991 43.6126 74.2245 43.4208 74.6356C43.2289 75.0467 43.133 75.5195 43.133 76.0539V77.4414C43.133 78.0649 43.2426 78.5993 43.4619 79.0447C43.6811 79.4832 43.986 79.8223 44.3766 80.0621C44.774 80.2951 45.2296 80.4116 45.7435 80.4116C46.0998 80.4116 46.4218 80.3602 46.7096 80.2574C46.9973 80.1546 47.244 80.0039 47.4495 79.8052C47.6619 79.6065 47.8195 79.3667 47.9223 79.0858L50.8617 79.281C50.7178 79.9868 50.4163 80.6034 49.9572 81.131C49.505 81.6517 48.9192 82.0594 48.1998 82.354C47.4804 82.6418 46.6479 82.7857 45.7024 82.7857Z" fill="#82AA4A"/>
<path d="M52.0156 82.5596V71.0693H55.0886V73.0837H55.2119C55.4243 72.3711 55.7772 71.8333 56.2705 71.4701C56.7638 71.1002 57.3291 70.9152 57.9663 70.9152C58.1307 70.9152 58.302 70.9254 58.4802 70.946C58.6652 70.9597 58.8296 70.9871 58.9735 71.0282V73.8442C58.8227 73.7963 58.6138 73.7586 58.3466 73.7312C58.0862 73.6969 57.843 73.6798 57.6169 73.6798C57.1578 73.6798 56.7433 73.7826 56.3733 73.9881C56.0033 74.1868 55.7121 74.4677 55.4997 74.8309C55.2941 75.1872 55.1914 75.5983 55.1914 76.0642V82.5596H52.0156Z" fill="#82AA4A"/>
<path d="M62.5529 82.7754C61.8267 82.7754 61.1723 82.6486 60.5899 82.3951C60.0144 82.1348 59.5622 81.7511 59.2333 81.244C58.9044 80.737 58.74 80.1067 58.74 79.353C58.74 78.7089 58.8565 78.1745 59.0894 77.7497C59.3224 77.318 59.641 76.9686 60.0452 76.7014C60.4495 76.4342 60.9085 76.232 61.4224 76.095C61.9363 75.958 62.481 75.8621 63.0565 75.8072C63.7211 75.7456 64.2556 75.6839 64.6598 75.6222C65.0641 75.5606 65.3587 75.4681 65.5437 75.3448C65.7355 75.2146 65.8315 75.0296 65.8315 74.7898V74.7384C65.8315 74.2656 65.6807 73.8991 65.3792 73.6387C65.0846 73.3783 64.6667 73.2481 64.1254 73.2481C63.5567 73.2481 63.1011 73.3749 62.7585 73.6284C62.4227 73.8751 62.2001 74.1903 62.0904 74.5739L59.1408 74.3376C59.2915 73.6387 59.5862 73.0357 60.0247 72.5287C60.4632 72.0148 61.0284 71.6209 61.7205 71.3468C62.4193 71.0659 63.2278 70.9254 64.1459 70.9254C64.7831 70.9254 65.3929 71.0008 65.9753 71.1515C66.5577 71.3023 67.075 71.5352 67.5272 71.8504C67.9863 72.1587 68.3494 72.5596 68.6166 73.0529C68.8839 73.5462 69.0175 74.132 69.0175 74.8103V82.5596H65.9856V80.9563H65.9034C65.7184 81.3194 65.4717 81.638 65.1634 81.9121C64.8551 82.1793 64.4851 82.3917 64.0534 82.5493C63.6218 82.7 63.1216 82.7754 62.5529 82.7754ZM63.4676 80.576C63.9335 80.576 64.3446 80.4835 64.7009 80.2985C65.0641 80.1067 65.345 79.8532 65.5437 79.538C65.7492 79.2159 65.852 78.8562 65.852 78.4588V77.2358C65.7561 77.2975 65.619 77.3557 65.4409 77.4105C65.2696 77.4653 65.0778 77.5133 64.8654 77.5544C64.653 77.5955 64.4406 77.6332 64.2282 77.6675C64.0158 77.6949 63.8239 77.7223 63.6526 77.7497C63.2758 77.8045 62.9469 77.8936 62.666 78.0169C62.3851 78.1334 62.1658 78.2944 62.0082 78.4999C61.8575 78.6986 61.7821 78.9487 61.7821 79.2502C61.7821 79.6819 61.9397 80.0107 62.2549 80.2368C62.5701 80.4629 62.9743 80.576 63.4676 80.576Z" fill="#82AA4A"/>
<path d="M73.7377 75.9203V82.5596H70.562V71.0693H73.6863V73.1145H73.7994C74.0597 72.4362 74.4743 71.9018 75.043 71.5113C75.6116 71.1207 76.3242 70.9254 77.1807 70.9254C77.9755 70.9254 78.6675 71.1002 79.2567 71.4496C79.8528 71.799 80.3153 72.2958 80.6442 72.9398C80.9731 73.5839 81.1375 74.3547 81.1375 75.2523V82.5596H77.9618V75.8175C77.9618 75.1187 77.7802 74.5705 77.4171 74.1731C77.0539 73.7689 76.5537 73.5668 75.9165 73.5668C75.4917 73.5668 75.1149 73.6627 74.786 73.8545C74.4571 74.0395 74.2002 74.3067 74.0152 74.6562C73.8302 75.0056 73.7377 75.427 73.7377 75.9203Z" fill="#82AA4A"/>
<path d="M92.2401 74.3478L89.3316 74.5226C89.2562 74.1594 89.0541 73.8477 88.7252 73.5873C88.3963 73.3201 87.9544 73.1865 87.3994 73.1865C86.9061 73.1865 86.4915 73.2893 86.1558 73.4948C85.8269 73.7004 85.6625 73.9744 85.6625 74.317C85.6625 74.5911 85.7687 74.8275 85.9811 75.0262C86.2003 75.218 86.5738 75.3687 87.1013 75.4784L89.1877 75.8895C90.3045 76.1156 91.137 76.4821 91.6851 76.9892C92.2332 77.4962 92.5073 78.1642 92.5073 78.9933C92.5073 79.7538 92.288 80.4184 91.8495 80.9871C91.411 81.5489 90.8081 81.9909 90.0407 82.3129C89.2733 82.6281 88.3929 82.7857 87.3994 82.7857C85.8783 82.7857 84.6656 82.4671 83.7612 81.8299C82.8636 81.1926 82.3394 80.3293 82.1887 79.2399L85.3028 79.0755C85.4055 79.5414 85.6385 79.8943 86.0016 80.1341C86.3648 80.3739 86.8307 80.4938 87.3994 80.4938C87.9544 80.4938 88.4032 80.3842 88.7457 80.1649C89.0952 79.9456 89.2699 79.6682 89.2699 79.3324C89.2699 78.7637 88.7766 78.38 87.7899 78.1813L85.8064 77.7702C84.6896 77.5441 83.8571 77.157 83.3089 76.6089C82.7608 76.0608 82.4867 75.3585 82.4867 74.502C82.4867 73.762 82.6889 73.1248 83.0931 72.5904C83.4974 72.056 84.0626 71.6449 84.7889 71.3571C85.522 71.0693 86.3785 70.9254 87.3583 70.9254C88.8108 70.9254 89.9516 71.2338 90.7807 71.8504C91.6166 72.4602 92.1031 73.2927 92.2401 74.3478Z" fill="#82AA4A"/>
<path d="M99.9503 82.7446C99.3336 82.7446 98.8095 82.6418 98.3778 82.4362C97.9461 82.2307 97.5933 81.9737 97.3192 81.6654C97.052 81.3502 96.843 81.0351 96.6923 80.7199H96.5484V82.5596H93.424V67.2461H96.5998V73.0118H96.6923C96.8362 72.6966 97.0417 72.378 97.3089 72.056C97.5762 71.7339 97.9256 71.4667 98.3572 71.2543C98.7889 71.0351 99.3233 70.9254 99.9605 70.9254C100.803 70.9254 101.574 71.1447 102.273 71.5832C102.979 72.0148 103.544 72.6692 103.969 73.5462C104.394 74.4232 104.606 75.5195 104.606 76.835C104.606 78.1094 104.4 79.1885 103.989 80.0724C103.578 80.9494 103.02 81.614 102.314 82.0662C101.615 82.5184 100.827 82.7446 99.9503 82.7446ZM98.9431 80.2163C99.4638 80.2163 99.9023 80.0724 100.259 79.7846C100.615 79.4969 100.886 79.0995 101.071 78.5924C101.256 78.0786 101.348 77.4893 101.348 76.8247C101.348 76.1601 101.256 75.5777 101.071 75.0775C100.892 74.5705 100.625 74.1731 100.269 73.8854C99.9126 73.5976 99.4706 73.4537 98.9431 73.4537C98.4292 73.4537 97.9907 73.5942 97.6275 73.8751C97.2713 74.1491 96.9972 74.5397 96.8053 75.0467C96.6204 75.5469 96.5279 76.1396 96.5279 76.8247C96.5279 77.503 96.6238 78.0957 96.8156 78.6027C97.0075 79.1097 97.2815 79.5071 97.6378 79.7949C98.001 80.0758 98.436 80.2163 98.9431 80.2163Z" fill="#DCBC13"/>
<path d="M108.956 82.7754C108.23 82.7754 107.576 82.6486 106.993 82.3951C106.418 82.1348 105.965 81.7511 105.637 81.244C105.308 80.737 105.143 80.1067 105.143 79.353C105.143 78.7089 105.26 78.1745 105.493 77.7497C105.726 77.318 106.044 76.9686 106.449 76.7014C106.853 76.4342 107.312 76.232 107.826 76.095C108.34 75.958 108.884 75.8621 109.46 75.8072C110.124 75.7456 110.659 75.6839 111.063 75.6222C111.467 75.5606 111.762 75.4681 111.947 75.3448C112.139 75.2146 112.235 75.0296 112.235 74.7898V74.7384C112.235 74.2656 112.084 73.8991 111.783 73.6387C111.488 73.3783 111.07 73.2481 110.529 73.2481C109.96 73.2481 109.504 73.3749 109.162 73.6284C108.826 73.8751 108.603 74.1903 108.494 74.5739L105.544 74.3376C105.695 73.6387 105.989 73.0357 106.428 72.5287C106.866 72.0148 107.432 71.6209 108.124 71.3468C108.823 71.0659 109.631 70.9254 110.549 70.9254C111.186 70.9254 111.796 71.0008 112.379 71.1515C112.961 71.3023 113.478 71.5352 113.931 71.8504C114.39 72.1587 114.753 72.5596 115.02 73.0529C115.287 73.5462 115.421 74.132 115.421 74.8103V82.5596H112.389V80.9563H112.307C112.122 81.3194 111.875 81.638 111.567 81.9121C111.258 82.1793 110.888 82.3917 110.457 82.5493C110.025 82.7 109.525 82.7754 108.956 82.7754ZM109.871 80.576C110.337 80.576 110.748 80.4835 111.104 80.2985C111.467 80.1067 111.748 79.8532 111.947 79.538C112.153 79.2159 112.255 78.8562 112.255 78.4588V77.2358C112.159 77.2975 112.022 77.3557 111.844 77.4105C111.673 77.4653 111.481 77.5133 111.269 77.5544C111.056 77.5955 110.844 77.6332 110.631 77.6675C110.419 77.6949 110.227 77.7223 110.056 77.7497C109.679 77.8045 109.35 77.8936 109.069 78.0169C108.788 78.1334 108.569 78.2944 108.412 78.4999C108.261 78.6986 108.185 78.9487 108.185 79.2502C108.185 79.6819 108.343 80.0107 108.658 80.2368C108.973 80.4629 109.378 80.576 109.871 80.576Z" fill="#DCBC13"/>
<path d="M120.141 75.9203V82.5596H116.965V71.0693H120.09V73.1145H120.203C120.463 72.4362 120.878 71.9018 121.446 71.5113C122.015 71.1207 122.728 70.9254 123.584 70.9254C124.379 70.9254 125.071 71.1002 125.66 71.4496C126.256 71.799 126.719 72.2958 127.047 72.9398C127.376 73.5839 127.541 74.3547 127.541 75.2523V82.5596H124.365V75.8175C124.365 75.1187 124.183 74.5705 123.82 74.1731C123.457 73.7689 122.957 73.5668 122.32 73.5668C121.895 73.5668 121.518 73.6627 121.189 73.8545C120.86 74.0395 120.603 74.3067 120.419 74.6562C120.234 75.0056 120.141 75.427 120.141 75.9203Z" fill="#DCBC13"/>
<path d="M131.984 79.2502L131.994 75.4373H132.456L136.125 71.0693H139.784L134.851 76.8555H134.08L131.984 79.2502ZM129.106 82.5596V67.2461H132.282V82.5596H129.106ZM136.269 82.5596L132.898 77.5647L135.015 75.3036L140 82.5596H136.269Z" fill="#DCBC13"/>
</g>
</g>
</g>
</g>
</svg>
