<svg width="150" height="150" viewBox="0 0 150 150" fill="none" xmlns="http://www.w3.org/2000/svg">
<g id="Bank Logos/pnb">
<g id="pnb">
<g id="Group 4182">
<g id="Group">
<path id="Vector" d="M139.399 27.0191C139.377 19.2625 132.762 12.9575 124.68 12.9575L25.0495 13.1741C16.9897 13.1741 10.3974 19.5441 10.42 27.2791L10.6232 123.002C10.6457 130.737 17.2607 137.064 25.3205 137.042L124.95 136.847C133.01 136.826 139.603 130.477 139.58 122.742L139.399 27.0191Z" fill="#2A157B"/>
<path id="Vector_2" d="M133.055 121.919C133.055 126.599 129.104 130.391 124.228 130.391H25.8396C20.9631 130.391 17.0122 126.599 17.0122 121.919V27.7125C17.0122 23.0325 20.9631 19.2408 25.8396 19.2408H124.228C129.104 19.2408 133.055 23.0325 133.055 27.7125V121.919Z" fill="white"/>
<path id="Vector_3" d="M125.425 42.2508C118.584 41.6225 106.596 40.8208 102.871 30.4425C93.8401 31.6775 82.7099 31.8075 74.8082 22.4908C66.9064 31.8291 55.8213 31.6775 46.7907 30.4425C43.0656 40.8208 31.1678 41.6225 24.3271 42.2508C29.7004 49.8125 29.2037 60.3858 29.2037 60.3858C29.2037 60.3858 29.2037 92.3875 29.2037 104.434C29.2037 116.437 35.1864 117.759 38.3923 118.517C41.5982 119.276 66.7258 124.974 70.1348 125.711C73.5439 126.447 74.8533 128.571 74.8533 128.571C74.8533 128.571 76.1853 126.447 79.5718 125.711C82.9809 124.974 108.176 119.254 111.382 118.517C114.588 117.781 120.638 116.437 120.638 104.434C120.638 92.3875 120.638 60.3858 120.638 60.3858C120.638 60.3858 120.051 49.8125 125.425 42.2508Z" fill="#2A157B"/>
<path id="Vector_4" d="M71.6474 119.926C71.6474 119.861 71.241 119.817 71.0378 119.774C68.3286 119.146 45.5038 113.946 42.9527 113.317C35.9991 111.606 35.5024 109.482 35.5024 104.174C35.5024 97.1975 35.5927 79.9292 35.6831 69.0958H59.2303C60.5172 74.9458 65.5517 79.6692 71.6474 80.9042V119.926Z" fill="#0597B8"/>
<path id="Vector_5" d="M106.754 113.296C104.203 113.924 81.3101 119.124 78.6009 119.774C78.3977 119.817 78.1945 119.882 77.9688 119.926V80.8825C84.2902 79.6258 89.1667 74.9241 90.431 69.0741H114.001C114.069 79.9075 114.181 97.1758 114.181 104.152C114.181 109.482 113.685 111.584 106.754 113.296Z" fill="#F52205"/>
<path id="Vector_6" d="M113.933 59.9091C113.933 59.9091 113.933 60.8408 113.956 62.7908H90.4311C88.9185 55.8575 82.439 50.5925 74.8307 50.5491C67.1773 50.5925 60.743 55.8575 59.2304 62.7908H35.7283C35.7508 60.8408 35.7508 59.9091 35.7508 59.9091C35.7508 59.9091 35.8637 53.2791 33.5835 47.4941C40.0855 46.1941 47.8744 44.2441 50.5159 36.6175C57.8758 37.7441 65.8001 37.3325 74.8533 31.2658C83.8839 37.3325 91.8308 37.7225 99.1908 36.6175C101.832 44.2225 109.621 46.1725 116.123 47.4941C113.82 53.2791 113.933 59.9091 113.933 59.9091Z" fill="white"/>
<path id="Vector_7" d="M75.0113 36.2275L76.5014 40.6908H81.4005L77.4496 43.3775L78.9622 47.7975L75.0113 45.0025L71.0379 47.7541L72.5505 43.3775L68.5996 40.6908H73.4987L75.0113 36.2275Z" fill="#F9A406"/>
<path id="Vector_8" d="M52.0737 43.8108L53.5863 48.2741H58.4854L54.512 50.9391L56.0246 55.3591L52.0737 52.5858L48.1228 55.3375L49.6355 50.9608L45.6846 48.2741H50.5611L52.0737 43.8108Z" fill="#F9A406"/>
<path id="Vector_9" d="M97.9263 43.8108L99.4389 48.2741H104.315L100.365 50.9391L101.877 55.3591L97.9263 52.5858L93.9754 55.3375L95.488 50.9608L91.5371 48.2741H96.4136L97.9263 43.8108Z" fill="#F9A406"/>
<path id="Vector_10" d="M86.9541 68.4891L89.5956 65.9325L86.9767 63.3758L82.8 64.4375C82.5969 63.4408 82.1679 62.5091 81.5809 61.6858L85.306 59.6491L85.2835 56.0525L81.5358 56.0308L79.3684 59.6275C78.5105 59.0858 77.5397 58.6958 76.4786 58.5225L77.5849 54.5358L74.8983 52.0225L72.2343 54.5358L73.3631 58.5441C72.3246 58.7608 71.3764 59.1508 70.541 59.6925L68.4188 56.1175L64.6711 56.1391L64.626 59.7358L68.3737 61.8158C67.8318 62.6175 67.4255 63.5275 67.2223 64.5025L63.0908 63.3758L60.4268 65.9108L63.0231 68.4891L67.2223 67.4491C67.4255 68.4458 67.8318 69.3558 68.3963 70.1791L64.6486 72.1725L64.626 75.7691L68.3511 75.8558L70.5636 72.2808C71.4215 72.8225 72.3923 73.2341 73.4308 73.4291L72.2568 77.3941L74.8983 79.9508L77.6075 77.4808L76.5464 73.4508C77.5849 73.2558 78.5557 72.8658 79.391 72.3241L81.468 75.9208L85.2157 75.9425L85.306 72.3675L81.6035 70.2441C82.1905 69.3991 82.6194 68.4458 82.8226 67.4058L86.9541 68.4891Z" fill="#FAA706"/>
<path id="Vector_11" d="M66.4998 87.0792L67.1545 83.1575H56.679C56.4758 81.6408 55.8888 78.0442 55.6856 77.2425C55.4373 76.2675 54.2633 76.2242 54.2633 76.2242C54.2633 76.2242 52.5249 76.2242 51.4412 76.2242C50.3576 76.2242 50.0867 76.9825 50.0867 76.9825C50.0867 76.9825 48.8224 77.1992 47.8064 77.3508C46.7679 77.5025 46.6776 78.3258 46.6776 78.3258L46.4744 79.2575C46.4744 79.2575 47.8742 79.2575 48.6869 79.2575C49.4997 79.2575 49.7254 79.5391 49.7254 79.5391L50.177 80.0158H47.8742L48.416 80.7308L50.1318 81.0558L49.6126 83.1358H39.0693L39.7241 87.0575L46.9711 87.2308L47.1291 87.8808L40.0401 88.8125L41.2593 92.1275L47.1066 90.8708L47.3549 91.3908L42.0946 94.1208L44.3974 96.8725L48.0322 94.3808L48.3031 94.7708L45.7971 98.1508L46.7228 98.7575L44.736 101.639L43.4943 99.6242L41.4173 99.6675L40.8529 102.159L41.8462 104.022L42.1172 102.354L42.817 102.311L44.5328 104.802L44.149 105.626L42.9751 105.691L43.9007 106.752L44.6909 106.774L46.2938 104.737L45.5939 103.307L48.3257 99.7325L50.0189 100.881L46.3164 108.594L48.9353 110.241L51.8025 103.004L50.5382 111.194L52.999 112.797L55.505 111.194L54.2182 103.004L57.1305 110.241L59.7945 108.594L56.0243 100.881L57.7401 99.7325L60.5396 103.307L59.8397 104.737L61.4652 106.774L62.278 106.752L63.2262 105.691L62.0296 105.626L61.6458 104.802L63.4068 102.311L64.1067 102.354L64.3776 104.022L65.3935 102.159L64.8065 99.6675L62.7069 99.6242L61.4426 101.639L59.4107 98.7575L60.359 98.1508L57.7852 94.7708L58.0562 94.3808L61.7587 96.8725L64.1067 94.1208L58.7335 91.3908L58.9818 90.8708L64.942 92.1275L66.1837 88.8125L58.9592 87.8808L59.1173 87.2308L66.4998 87.0792Z" fill="#2A157B"/>
<path id="Vector_12" d="M86.4577 106.839L90.5215 111.844L97.0912 111.866L96.1656 109.742C96.1656 109.742 95.8721 109.396 95.24 109.396C94.6304 109.396 93.1855 109.482 93.1855 109.482L91.6955 106.774L94.6078 103.091C94.6078 103.091 94.9465 102.679 95.5109 102.679C96.0753 102.679 98.2201 102.766 98.2201 102.766C98.2201 102.766 99.4618 102.809 99.2586 103.697C99.078 104.586 98.8296 105.452 98.8296 105.452L105.648 105.496L107.747 101.141L106.099 101.357C106.099 101.357 105.783 101.509 105.445 101.986C105.061 102.506 104.767 102.852 104.767 102.852L102.419 102.896L103.187 100.881C103.187 100.881 103.796 99.1041 102.013 99.2558C100.229 99.4075 99.665 99.4075 99.665 99.4075L101.448 96.3958L105.332 96.3525C105.332 96.3525 105.738 96.5475 105.603 96.8291C106.731 96.8291 108.605 96.9375 108.605 96.9375L109.237 95.9841C109.237 95.9841 109.441 95.7241 108.899 95.2475C108.357 94.7708 108.312 94.6841 107.77 94.5975C107.205 94.5325 103.164 94.1425 103.164 94.1425C103.164 94.1425 102.51 93.9475 102.464 93.7091C102.487 93.4708 102.577 91.4125 102.577 91.4125L105.061 92.4308L108.56 89.7658C108.56 89.7658 108.944 89.3975 108.966 88.4658C108.989 87.5341 108.966 84.7608 108.966 84.7608L107.183 85.8441L106.98 88.0108L104.925 89.3108L102.803 88.5091L100.726 86.6675L100.929 85.3891L102.893 85.4108C102.893 85.4108 103.638 85.6275 103.796 85.7791C104.09 84.9991 104.7 83.3308 104.7 83.3308L101.674 83.4825C101.674 83.4825 101.042 83.3308 101.29 82.5075C101.539 81.6841 101.674 81.3375 102.397 81.3591C103.119 81.3808 105.038 81.4025 105.038 81.4025L105.625 79.8208C105.625 79.8208 106.032 78.6508 104.7 78.6725C103.367 78.6941 103.277 78.6941 103.277 78.6941C103.277 78.6941 103.051 78.5425 102.893 78.2175C102.735 77.8925 102.374 77.2208 101.448 77.2208C100.523 77.2208 100.275 77.3291 99.981 77.0475C99.6875 76.7658 99.5521 76.4408 98.7393 76.4408C97.9266 76.4408 92.147 76.4408 92.147 76.4408L93.0275 77.7191L89.8442 80.6225C89.8442 80.6225 89.1669 81.1208 89.1669 81.7925C89.1669 82.4641 88.6025 83.9591 88.6025 83.9591L91.5826 82.5075L91.6277 83.2225L88.8734 85.8875L89.2572 88.4875L91.4923 86.8625L91.6503 87.4258C91.6503 87.4258 91.718 87.6641 91.4923 87.9241C91.2665 88.1841 89.799 89.8525 89.799 89.8525L90.6795 91.9108L92.1018 89.8958L92.3727 90.9358C92.3727 90.9358 92.3276 91.1958 91.8761 92.0841C91.4471 92.9725 90.5892 94.8575 90.5892 94.8575C90.5892 94.8575 89.0766 95.1391 87.9478 96.7425C87.0673 96.8291 84.1549 96.5908 84.6516 93.3408C85.1257 91.3691 86.3448 90.9791 86.9092 89.2675C87.4737 87.5558 87.88 85.5408 86.977 84.3275C86.0739 83.1141 86.0739 83.1358 86.0739 83.1358L84.042 82.9841L84.0872 84.8041C84.0872 84.8041 86.4577 85.6058 85.5095 87.8808C84.9451 89.2458 83.1615 91.5641 83.1615 91.5641C83.1615 91.5641 81.9424 93.9258 82.6874 95.8325C83.4099 97.6525 84.6967 98.6275 87.2027 98.8225C87.3156 99.8625 87.7671 101.661 88.6025 103.654C88.4219 104.391 87.7671 105.691 87.7671 105.691L86.4577 106.839Z" fill="#2A157B"/>
</g>
</g>
</g>
</g>
</svg>
