<svg width="150" height="150" viewBox="0 0 150 150" fill="none" xmlns="http://www.w3.org/2000/svg">
<g id="Bank Logos/psbank">
<g id="psbank">
<path id="Vector" d="M53.5485 16.342C56.76 13.7665 59.9638 10.6759 64.2485 10.1686C68.9919 9.27109 73.1444 12.1588 77.2269 14.0631C92.9269 21.6959 108.627 29.3054 124.296 36.9929C126.139 37.867 128.176 38.9596 128.658 41.1371C128.472 42.4717 127.935 43.8375 126.854 44.696C120.525 50.0499 114.078 55.2711 107.733 60.6017C114.078 63.9108 120.641 66.7907 126.94 70.1856C130.128 71.7856 128.962 76.1952 126.466 77.8809C121.745 81.5257 117.468 86.4191 111.364 87.5898C108.394 88.3859 105.322 87.3167 102.678 85.9821C85.0341 77.2644 67.32 68.6794 49.6604 59.9851C48.6028 60.8982 47.5453 61.7957 46.4799 62.6777C71.6358 75.2898 97.0561 87.3947 122.297 99.843C124.475 101.014 127.049 101.755 128.651 103.753C129.778 106.258 127.982 108.771 126.038 110.239C116.115 118.27 106.115 126.199 96.2085 134.238C92.6237 137.211 88.4401 140.099 83.58 139.997C80.314 139.997 77.6701 137.898 74.8318 136.579C58.8129 129.032 42.8562 121.352 26.8374 113.798C24.9866 112.908 23.0581 111.729 22.2261 109.755C21.5573 106.524 24.7067 104.424 26.8685 102.668C31.0054 99.7415 34.6135 95.2071 40.0413 94.9339C44.8236 94.4032 49.015 97.0567 53.1363 99.0313C69.023 106.695 84.9019 114.391 100.758 122.117C102.126 121.04 103.44 119.893 104.7 118.691C78.5721 106.399 52.6698 93.6227 26.6274 81.1432C25.0411 80.2535 22.9648 79.6136 22.2416 77.7717C21.4329 75.6566 22.786 73.4792 24.349 72.1368C30.4222 67.095 36.4254 61.9753 42.4908 56.9257C37.4596 54.3658 32.4362 51.7903 27.3584 49.3319C25.3366 48.3641 23.1515 47.1778 22.2105 45.0081C21.7129 42.8775 23.2448 41.0122 24.7767 39.7557C34.3647 31.9511 43.8982 24.0685 53.5485 16.342ZM46.4955 30.9599C63.9996 39.6308 81.636 48.0363 99.1634 56.676C101.076 58.2135 102.554 55.6692 104.062 54.7873C85.9673 45.7964 67.7555 37.0241 49.5049 28.3532C48.5017 29.2273 47.4986 30.0936 46.4955 30.9599Z" fill="#0855A5"/>
</g>
</g>
</svg>
