<svg width="150" height="150" viewBox="0 0 150 150" fill="none" xmlns="http://www.w3.org/2000/svg">
<g id="Bank Logos/rcbc">
<g id="rcbc">
<g id="Group 4182">
<path id="Vector" d="M10.0703 74.7343C10.0703 65.981 10.0703 57.2493 10.0703 48.496C10.0703 48.1276 10.1794 47.9326 10.4849 47.7376C21.1106 41.606 51.5477 23.991 56.1297 21.3043C56.5224 21.066 56.7842 21.066 57.177 21.3043C63.1989 24.9226 93.6797 43.1443 102.887 48.6693C103.171 48.8426 103.28 49.0376 103.28 49.3626C103.28 55.191 103.258 61.0193 103.28 66.8476C103.28 67.2593 103.149 67.3676 102.756 67.346C101.709 67.3243 100.64 67.3243 99.5926 67.346C99.2435 67.346 99.1562 67.2376 99.1562 66.891C99.1562 61.951 99.1562 57.011 99.178 52.071C99.178 51.7243 99.0907 51.5293 98.7853 51.356C91.0178 46.676 63.1553 29.8626 57.0024 26.1576C56.7406 26.006 56.566 26.0276 56.326 26.1576C52.6605 28.2593 20.1724 46.806 14.6086 49.9693C14.2377 50.1643 14.1068 50.4026 14.1068 50.8143C14.1286 66.761 14.1286 82.7293 14.1068 98.676C14.1068 99.0876 14.2159 99.326 14.5868 99.5426C24.0779 105.046 51.875 121.209 56.2824 123.788C56.6097 123.983 56.806 123.896 57.1115 123.744C65.6644 118.761 93.4179 102.619 98.7416 99.5426C99.0689 99.3476 99.2216 99.1526 99.1998 98.7626C99.1562 98.156 99.1998 97.5493 99.178 96.9426C99.178 96.6826 99.2653 96.596 99.5271 96.596C100.662 96.6176 101.818 96.596 102.953 96.596C103.193 96.596 103.28 96.6826 103.28 96.921C103.28 98.351 103.28 99.8026 103.28 101.233C103.28 101.514 103.127 101.601 102.931 101.731C98.5453 104.309 59.4897 127.298 57.0242 128.749C56.7624 128.901 56.5878 128.923 56.326 128.771C48.4058 124.069 17.9032 106.108 10.5721 101.818C10.2012 101.601 10.0703 101.363 10.0703 100.929C10.0703 92.1976 10.0703 83.466 10.0703 74.7343Z" fill="#4C94CC"/>
<path id="Vector_2" d="M76.1594 95.0143C72.6247 94.9926 69.5047 93.866 66.9301 91.4176C64.8355 89.4026 63.57 86.9326 63.1336 84.0726C62.5227 80.1293 63.33 76.4893 65.8391 73.326C67.9774 70.6176 70.8138 69.0793 74.2393 68.6026C77.1194 68.2126 79.8904 68.516 82.5523 69.7293C83.9268 70.3576 85.1051 71.246 86.196 72.2643C86.3487 72.416 86.3487 72.481 86.2178 72.6543C85.3669 73.6293 84.516 74.6043 83.665 75.5793C83.4687 75.796 83.3814 75.6876 83.2068 75.5576C81.8977 74.4093 80.4795 73.4343 78.7558 72.936C73.7375 71.5276 68.9156 74.4743 67.9337 79.566C67.3446 82.5993 67.8683 85.416 69.8538 87.8426C71.4029 89.7276 73.432 90.7026 75.8976 90.8326C78.7776 90.9626 81.1122 89.8143 83.1632 87.9293C83.6214 87.496 83.6214 87.496 84.0796 87.951C84.8214 88.7093 85.5633 89.4676 86.3269 90.2043C86.5233 90.3993 86.5015 90.5076 86.3269 90.681C84.0578 92.9993 81.3522 94.516 78.0794 94.8843C78.014 94.8843 77.9267 94.906 77.8612 94.906C77.294 94.971 76.7267 95.0576 76.1594 95.0143Z" fill="#4C94CC"/>
<path id="Vector_3" d="M116.393 81.7326C116.568 76.4676 118.75 72.3726 123.55 69.8593C125.862 68.646 128.35 68.2993 130.946 68.4943C133.434 68.6676 135.703 69.361 137.754 70.7693C138.408 71.2243 139.019 71.701 139.586 72.2426C139.761 72.416 139.761 72.5243 139.608 72.6976C138.779 73.6293 137.95 74.561 137.143 75.5143C136.946 75.7526 136.815 75.7093 136.641 75.536C135.55 74.561 134.35 73.716 132.975 73.196C127.892 71.246 122.546 74.106 121.411 79.3926C120.757 82.4043 121.259 85.2426 123.179 87.7126C124.728 89.706 126.823 90.746 129.375 90.8543C132.277 90.9843 134.634 89.7926 136.663 87.886C137.012 87.561 137.186 87.6043 137.492 87.9076C138.234 88.6876 138.997 89.446 139.783 90.2043C139.979 90.3993 139.979 90.486 139.783 90.681C137.71 92.8043 135.266 94.321 132.277 94.776C127.564 95.5126 123.375 94.4726 119.993 90.9843C117.92 88.8393 116.808 86.2176 116.48 83.271C116.459 83.0543 116.415 82.8376 116.415 82.621C116.371 82.361 116.393 82.0576 116.393 81.7326Z" fill="#4C94CC"/>
<path id="Vector_4" d="M111.724 85.741C111.244 83.6393 109.738 82.4476 107.84 81.6243C107.534 81.4943 107.229 81.386 106.924 81.256C107.011 81.1043 107.142 81.061 107.251 80.996C109.084 79.956 110.24 78.4176 110.458 76.2943C110.698 73.8893 109.956 71.8743 107.905 70.466C106.225 69.296 104.283 68.9276 102.298 68.906C98.4797 68.8626 94.6614 68.906 90.8431 68.8843C90.494 68.8843 90.4067 68.9926 90.4067 69.3176C90.4067 77.5943 90.4067 85.871 90.4067 94.1476C90.4067 94.4726 90.494 94.581 90.8431 94.581C94.8141 94.5593 98.7633 94.581 102.734 94.5593C104.393 94.5593 106.029 94.321 107.578 93.6926C111.178 92.2843 112.487 89.2293 111.724 85.741ZM94.8796 73.261C94.8796 72.936 94.9887 72.871 95.2723 72.871C97.4106 72.8926 99.5488 72.8493 101.665 72.8926C102.713 72.9143 103.738 73.066 104.633 73.6726C106.378 74.8426 106.4 77.5726 104.676 78.786C103.847 79.371 102.974 79.631 101.971 79.6743C100.858 79.7176 99.5706 79.696 98.6979 79.696V79.7176C97.6069 79.7176 96.4287 79.7176 95.316 79.7176C95.0105 79.7176 94.8796 79.631 94.8796 79.3276C94.9232 77.291 94.8796 75.276 94.8796 73.261ZM105.309 90.0743C104.48 90.421 103.52 90.551 102.647 90.5726C101.447 90.5943 100.247 90.5726 98.9379 90.5726C97.6287 90.5726 96.4505 90.5726 95.1414 90.5726C94.8578 90.5726 94.8141 90.5076 94.8141 90.2043C94.8359 88.081 94.8578 85.9576 94.8359 83.856C94.8359 83.596 94.945 83.5093 95.2069 83.5093C97.6287 83.5093 100.072 83.4876 102.494 83.531C103.433 83.5526 104.393 83.6826 105.287 84.0293C106.64 84.571 107.382 85.5893 107.404 86.9976C107.425 88.406 106.662 89.5326 105.309 90.0743Z" fill="#4C94CC"/>
<path id="Vector_5" d="M59.9263 94.1693C57.788 91.1793 55.6498 88.1893 53.4897 85.1993C53.2715 84.896 53.337 84.831 53.6425 84.7443C55.4971 84.1593 57.068 83.1843 58.1589 81.5376C59.3153 79.7826 59.599 77.8326 59.3153 75.7743C59.0317 73.6293 58.028 71.8743 56.2389 70.6176C54.3625 69.3176 52.2242 68.906 49.9987 68.8843C46.2459 68.8626 42.5149 68.8843 38.7621 68.8626C38.3912 68.8626 38.2603 68.9493 38.2603 69.3393C38.2821 71.571 38.2821 88.0376 38.2603 94.0393C38.2603 94.451 38.3693 94.581 38.7839 94.581C39.9185 94.5593 41.0749 94.581 42.2094 94.5593C42.864 94.5593 42.7986 94.646 42.7986 93.996C42.7986 91.3526 42.7986 88.7093 42.7986 86.066C42.7986 85.676 42.9295 85.5893 43.3004 85.5893C44.8713 85.611 46.4205 85.611 47.9914 85.5893C48.3841 85.5893 48.6023 85.6976 48.8205 86.0226C50.7624 88.796 52.7261 91.5476 54.6898 94.321C54.7989 94.4726 54.8861 94.581 55.1043 94.581C56.7625 94.581 58.4426 94.581 60.1226 94.581C60.1226 94.3643 60.0135 94.2776 59.9263 94.1693ZM49.6933 81.6026C47.555 81.6026 45.395 81.6026 43.2567 81.6026C42.9295 81.6026 42.8422 81.516 42.8422 81.191C42.864 79.891 42.864 74.691 42.8422 73.391C42.8422 73.066 42.9295 72.9576 43.2567 72.9576C45.3732 72.9793 47.4896 72.936 49.606 72.9793C50.806 73.001 52.0061 73.1743 53.0534 73.8243C54.1007 74.496 54.6679 75.471 54.777 76.706C55.0389 79.566 53.2061 81.061 50.9151 81.4726C50.5006 81.581 50.086 81.6026 49.6933 81.6026Z" fill="#4C94CC"/>
</g>
</g>
</g>
</svg>
