<svg width="150" height="150" viewBox="0 0 150 150" fill="none" xmlns="http://www.w3.org/2000/svg">
<g id="Bank Logos/robinsonsbank">
<g id="robinsonsbank">
<g id="Group 4220">
<g id="Group 4219">
<path id="Vector" d="M74.4614 139.961H69.8579L68.2673 136.942H55.7144L54.279 139.961H49.6108L62.0183 115.676L74.4614 139.961ZM66.4311 133.282L62.0183 124.369L57.2855 133.282H66.4311Z" fill="#75C044"/>
<path id="Vector_2" d="M116.687 140H110.975L101.952 129.69L101.496 130.13L101.525 140H97.2482L97.2256 115.673H101.506V125.126L111.553 115.673H117.269L105.023 126.952L116.687 140Z" fill="#75C044"/>
<path id="Vector_3" d="M49.4554 133.079C49.4554 135.387 48.3907 137.168 46.2613 138.422C44.4639 139.474 42.2236 140 39.5404 140H32.7515V115.644L39.4337 115.615C41.9229 115.615 44.3184 115.977 45.8993 116.798C48.117 118.043 49.0577 120.05 48.9187 122.074C48.6892 123.859 48.1461 124.919 47.6256 125.565C46.7946 126.377 45.8186 127.025 44.7484 127.476C46.0755 127.844 47.267 128.59 48.1784 129.623C49.0156 130.578 49.4693 131.809 49.4521 133.079M44.173 122.339C44.2008 121.882 44.1017 121.427 43.8866 121.023C43.6715 120.619 43.3488 120.282 42.9542 120.05C42.1428 119.572 40.8626 119.326 39.146 119.326L37.452 119.358V125.737L39.2882 125.637C42.2602 125.721 43.8885 124.621 44.173 122.339ZM44.7484 132.888C44.7689 132.286 44.6091 131.691 44.2894 131.18C43.9697 130.669 43.5048 130.265 42.9542 130.02C41.993 129.516 40.7473 129.264 39.2171 129.264H37.452V136.017H39.3916C40.5923 136.011 41.7785 135.754 42.8734 135.261C44.0243 134.819 44.6471 134.028 44.7419 132.888" fill="#75C044"/>
<path id="Vector_4" d="M94.5395 140L80.5576 126.632V139.993H75.8604V115.673L89.7032 129.031V115.676H94.5524L94.5395 140Z" fill="#75C044"/>
</g>
<path id="Vector_5" d="M82.1298 41.887C78.7202 32.1883 69.155 27.5047 53.4341 27.8363V72.2404L53.5861 113.826H32.7002V10H56.7653C71.3528 10 82.5721 12.7632 90.4233 18.2895C99.7582 25.4277 104.651 35.5593 105.103 48.6844C104.661 58.4015 101.044 66.2489 94.2522 72.2266L86.6083 78.9549L114.668 113.798H89.4558L56.6133 72.2404C69.3761 70.7483 77.6697 65.6825 81.4939 57.043C82.7418 54.7224 83.4472 52.1494 83.5574 49.5172C83.6675 46.885 83.1794 44.2621 82.1298 41.8455" fill="#033139"/>
</g>
</g>
</g>
</svg>
