<svg width="150" height="150" viewBox="0 0 150 150" fill="none" xmlns="http://www.w3.org/2000/svg">
<g id="Bank Logos/standardchartered">
<g id="standardchartered">
<g id="Group 4182">
<path id="Vector" fill-rule="evenodd" clip-rule="evenodd" d="M96.0443 38.4048C97.9863 37.14 99.9771 36.2582 102.775 36.2575C109.193 36.2562 114.396 41.4609 114.396 47.8793C114.396 54.2978 109.193 59.5009 102.775 59.5009C100.063 59.5009 98.0055 58.6166 96.0443 57.3537L81.4982 47.8793L96.0443 38.4048ZM43.8158 102.503L98.316 137.989C103.628 141.431 111.033 140.187 114.636 134.55C118.143 129.062 116.653 121.786 111.197 118.228L40.4637 72.1576C40.4637 72.1576 33.2175 80.9708 35.415 91.2511C36.9799 98.5735 43.8158 102.503 43.8158 102.503Z" fill="#38D200"/>
<path id="Vector_2" fill-rule="evenodd" clip-rule="evenodd" d="M38.4186 47.9017C38.4186 59.5597 46.7489 64.6002 46.7489 64.6002L111.114 106.606C111.114 106.606 118.251 98.0453 116.138 87.6542C114.624 80.2067 106.939 75.7936 106.939 75.7936L64.2449 47.9307L89.3018 31.5797C94.7511 28.0303 96.2968 20.7266 92.7548 15.2665C89.2129 9.80638 81.9249 8.25708 76.4754 11.8064L46.7456 31.3063C46.7456 31.3063 38.4186 36.283 38.4186 47.9017ZM53.311 137.753C51.3733 139.018 49.3869 139.899 46.5948 139.9C40.1911 139.901 35 134.698 35 128.281C35 121.864 40.1911 116.662 46.5948 116.662C49.3011 116.662 51.3545 117.546 53.311 118.808L67.8254 128.281L53.311 137.753Z" fill="#0473EA"/>
</g>
</g>
</g>
</svg>
