<svg width="150" height="150" viewBox="0 0 150 150" fill="none" xmlns="http://www.w3.org/2000/svg">
<g id="Bank Logos/tonik">
<g id="tonik">
<path id="Vector" d="M82.2583 66.9925C78.2933 66.9925 74.5017 69.7008 73.245 72.4742V67.3608H66.6367V94.4658H73.245V81.9642C73.245 75.2042 77.8167 71.9975 82.3883 73.3625C86.4617 74.5975 86.5267 79.4075 86.505 82.7442V94.4442H93.1133V82.3325C93.1133 77.0242 92.16 73.1892 89.8417 70.5675C88.2383 68.7692 85.6167 66.9925 82.2583 66.9925ZM47.6133 66.1908C39.445 66.1908 32.815 72.7992 32.815 80.9242C32.815 89.0492 39.4667 95.6575 47.6133 95.6575C55.76 95.6575 62.4117 89.0492 62.4117 80.9242C62.4117 72.7992 55.7817 66.1908 47.6133 66.1908ZM47.6133 89.0708C43.085 89.0708 39.4233 85.4092 39.4233 80.9242C39.4233 76.4175 43.085 72.7775 47.6133 72.7775C52.1417 72.7775 55.8033 76.4392 55.8033 80.9242C55.8033 85.4308 52.12 89.0708 47.6133 89.0708ZM102.777 67.3825H96.1467V73.9475H102.733V94.5092H109.342V73.9042C109.342 70.3075 106.395 67.3825 102.777 67.3825ZM140 94.4658L129.145 80.9025L139.913 67.3608H131.767L121.908 79.7542V67.3608H115.3V94.4658H121.908V82.0725L131.832 94.4658H140ZM23.2167 58.2825H16.6083V67.3608H10V73.9258H16.6083V88.0308C16.6083 91.5625 19.49 94.4442 23.065 94.4442H29.7383V87.8792H23.2167V73.9258H29.7383V67.3608H23.2167V58.2825ZM104.835 62.8325C107.457 62.8325 109.602 60.7092 109.602 58.0875C109.602 55.4658 107.478 53.3425 104.835 53.3425C102.213 53.3425 100.068 55.4658 100.068 58.0875C100.09 60.7308 102.213 62.8325 104.835 62.8325Z" fill="#785AFF"/>
</g>
</g>
</svg>
