<svg width="150" height="150" viewBox="0 0 150 150" fill="none" xmlns="http://www.w3.org/2000/svg">
<g id="Bank Logos/ucpb">
<g id="ucpb">
<g id="Group 4182">
<g id="ucpb_2">
<g id="Group">
<path id="Vector" d="M43.8651 95.15C41.2651 95.15 38.6651 95.15 36.0868 95.15C35.8051 95.15 35.5235 95.215 35.2418 95.2367C34.6785 95.28 34.4618 95.6267 34.5268 96.1467C34.5918 96.71 34.7651 97.2517 34.7651 97.815C34.8301 103.6 34.8735 109.363 34.6568 115.148C34.5701 117.337 33.7468 119.2 31.7751 120.37C30.6918 121.02 29.4785 121.302 28.2435 121.453C24.4085 121.952 21.0068 119.785 20.6385 115.647C20.3568 112.267 20.5518 108.865 20.4435 105.485C20.4435 104.705 20.4218 103.947 20.4435 103.167C20.5085 100.87 20.5951 98.595 20.6601 96.2983C20.6818 95.4533 20.4651 95.15 19.7935 95.15C16.8468 95.1283 13.9001 95.15 10.9535 95.15C10.4118 95.15 10.1735 95.3667 10.2385 95.9517C10.4118 97.295 10.5851 98.6383 10.5851 100.003C10.5635 104.597 10.5635 109.168 10.5851 113.762C10.5851 115.777 10.8668 117.77 11.3868 119.72C12.6435 124.465 15.6768 127.412 20.3351 128.755C22.8268 129.47 25.3618 129.492 27.9185 129.513C30.1068 129.535 32.2518 129.297 34.3751 128.712C40.2685 127.108 43.8218 122.862 44.4068 116.795C44.6451 114.325 44.6885 111.855 44.7101 109.363C44.7318 104.965 44.4935 100.567 44.9268 96.19C45.0135 95.41 44.7535 95.15 43.8651 95.15Z" fill="#0B004E"/>
<path id="Vector_2" d="M76.1702 95.8434C74.7402 95.475 73.2885 95.28 71.8368 95.0634C67.1135 94.3484 62.4768 94.5434 57.9702 96.2767C54.7418 97.5334 51.9252 99.3534 49.8235 102.148C46.7685 106.243 46.0752 110.923 47.0068 115.82C48.1768 121.973 52.0768 125.938 57.7318 128.127C63.3002 130.293 68.9985 129.903 74.6752 128.408C75.2602 128.257 75.5852 127.845 75.5852 127.217C75.5852 126.133 75.5852 125.05 75.5852 123.967C75.6068 123.967 75.6502 123.967 75.6718 123.967C75.6718 122.883 75.6935 122.06 75.6718 121.107C75.6502 120.023 75.4985 119.937 74.4802 120.283C71.7285 121.215 68.9118 121.67 66.0085 121.237C63.4735 120.868 61.1985 119.958 59.4435 117.965C56.7352 114.888 56.5185 110.143 58.9885 106.872C61.0468 104.142 63.8852 103.015 67.1785 102.863C69.4102 102.755 71.5985 103.123 73.7435 103.752C74.6968 104.033 75.0218 103.838 75.2602 102.885C75.7802 100.935 76.2135 98.985 76.8635 97.0784C77.1235 96.385 76.9068 96.0384 76.1702 95.8434Z" fill="#0B004E"/>
<path id="Vector_3" d="M138.787 116.145C137.855 114.672 136.555 113.675 134.757 113.003C135.255 112.7 135.624 112.462 135.992 112.245C137.032 111.617 137.877 110.793 138.505 109.753C140.607 106.265 139.719 101.238 136.49 98.5517C133.327 95.9083 129.579 94.8467 125.549 94.5867C123.339 94.435 121.15 94.6083 118.962 94.76C116.622 94.9333 114.304 95.1067 111.985 95.3233C111.01 95.41 110.859 95.6483 110.967 96.58C111.054 97.3167 111.162 98.075 111.184 98.8117C111.227 103.6 111.27 108.388 111.27 113.198C111.27 117.467 111.292 121.757 111.032 126.025C110.945 127.477 110.967 127.498 112.397 127.845C113.784 128.192 115.17 128.473 116.557 128.82C121.93 130.098 127.26 129.817 132.525 128.192C135.017 127.412 137.27 126.198 138.679 123.837C140.217 121.28 140.434 118.723 138.787 116.145ZM121.389 101.693C123.382 101.303 125.332 101.347 127.174 102.365C130.185 104.033 129.665 107.457 128.17 108.995C127.564 109.623 126.762 109.775 125.96 109.948C124.465 110.273 122.97 110.382 121.432 110.317C120.869 110.295 120.63 110.078 120.652 109.515C120.674 108.345 120.652 107.175 120.652 106.005C120.652 104.857 120.674 103.708 120.652 102.582C120.652 102.04 120.847 101.802 121.389 101.693ZM127.477 122.667C125.895 123.468 124.227 123.468 122.559 123.338C120.067 123.165 120.609 123.533 120.544 121.28C120.522 120.695 120.544 120.11 120.544 119.525C120.544 118.55 120.565 117.553 120.544 116.578C120.544 116.102 120.717 115.885 121.194 115.885C122.667 115.863 124.14 115.733 125.592 115.928C126.502 116.058 127.347 116.405 128.084 116.947C130.229 118.528 129.904 121.432 127.477 122.667Z" fill="#0B004E"/>
<path id="Vector_4" d="M104.575 97.1434C102.235 95.67 99.6132 95.02 96.9266 94.5867C93.7416 94.0667 90.5566 94.0884 87.3499 94.4567C85.0532 94.7167 82.7782 95.1284 80.5032 95.5617C79.8099 95.6917 79.5066 96.0384 79.5716 96.775C79.6582 97.7934 79.7016 98.8334 79.7449 99.8517C79.9399 104.293 79.8316 108.735 79.8099 113.177C79.8099 117.943 79.8099 122.71 79.8099 127.477C79.8099 128.43 79.8749 128.56 80.8282 128.56C83.3416 128.603 85.8766 128.603 88.4116 128.603C89.9499 128.603 89.9932 128.582 89.8632 127.065C89.6466 124.508 89.6466 121.93 89.6466 119.352C89.6466 118.377 89.8199 118.247 90.7516 118.333C91.6399 118.398 92.5282 118.485 93.4166 118.528C96.5366 118.68 99.5916 118.312 102.408 116.86C107.067 114.477 109.407 110.62 109.277 105.42C109.212 101.91 107.608 99.0717 104.575 97.1434ZM96.5366 111.162C95.3449 111.747 94.0666 111.942 92.5066 111.985C91.8999 111.92 91.0766 111.812 90.2316 111.725C89.7766 111.682 89.5816 111.422 89.6032 110.967C89.6032 108.215 89.6032 105.463 89.6032 102.69C89.6032 102.257 89.6899 101.845 90.1882 101.802C91.9432 101.628 93.6982 101.282 95.4749 101.802C96.3632 102.062 97.1649 102.452 97.8582 103.08C100.393 105.398 99.6999 109.645 96.5366 111.162Z" fill="#0B004E"/>
</g>
<g id="Group_2">
<path id="Vector_5" d="M72.7901 59.5733C64.1234 67.3733 54.5034 73.7 44.7534 73.0067C30.5184 72.01 24.3001 60.8517 24.0834 52.12C23.9317 46.14 29.6517 31.7317 44.0384 31.8617C52.0984 31.9267 57.2984 34.8517 65.4884 42.7817C57.5151 31.8183 50.9501 27.68 47.0284 27.485C28.0267 26.5533 17.6051 40.42 17.9517 54.0267C18.2334 65.77 26.0984 79.225 44.6667 80.07C60.6567 80.8067 72.9201 69.15 75.9534 65.7267C85.2051 55.2833 94.7817 43.5183 103.405 40.81C94.2617 39.445 84.0784 49.4333 72.7901 59.5733Z" fill="#B8E6FA"/>
<path id="Vector_6" d="M76.82 62.1083C67.3083 71.9017 54.98 79.745 43.15 78.64C31.6234 77.5783 21.05 68.3267 19.425 57.255C17.475 43.995 27.225 29.045 41.6767 28.6117C49.52 28.3733 56.0634 31.7317 65.4884 42.7817C56.54 23.0433 39.445 17.4967 17.0634 29.435C18.1034 31.1033 21.2234 32.4467 24.0834 31.8183C9.00335 45.36 9.71835 57.515 11.4517 70.71C15.395 69.02 17.1717 67.8283 17.5834 63.755C22.8917 80.5467 36.6067 85.8983 47.4184 84.75C61.74 83.255 72.14 74.1117 80.59 64.4917C89.6033 54.2433 96.4067 43.3667 103.405 40.7883C97.5984 40.1817 87.6967 50.9067 76.82 62.1083Z" fill="#00ADEF"/>
<path id="Vector_7" d="M132.33 54.0483C132.048 42.305 124.183 28.8283 105.615 27.9833C89.6248 27.2467 77.3615 38.9033 74.3281 42.3267C65.0765 52.77 55.4998 64.535 46.8765 67.2433C56.0198 68.5867 66.1815 58.5983 77.4698 48.4583C86.1365 40.6583 95.7565 34.3317 105.506 35.025C119.763 36.0217 125.96 47.2017 126.198 55.9117C126.35 61.8917 120.63 76.3 106.243 76.17C98.1831 76.105 92.9831 73.18 84.7931 65.25C92.7665 76.2133 99.3315 80.3517 103.253 80.5467C122.255 81.5217 132.676 67.6333 132.33 54.0483Z" fill="#253B96"/>
<path id="Vector_8" d="M126.198 76.235C141.278 62.6933 140.541 50.5383 138.808 37.3433C134.865 39.0333 133.088 40.225 132.676 44.2983C127.368 27.5067 113.653 22.155 102.841 23.3033C88.5198 24.7983 76.7115 32.88 69.6698 43.5617C53.9831 67.3733 46.8765 67.265 46.8765 67.265C54.0915 67.5683 62.5848 57.1467 73.4615 45.945C82.9731 36.1517 95.3015 28.3083 107.131 29.4133C118.658 30.475 129.231 39.7267 130.856 50.7983C132.806 64.0583 123.056 79.0083 108.605 79.4417C100.761 79.68 94.2181 76.3217 84.7931 65.2717C93.7415 85.0317 110.836 90.5567 133.218 78.6183C132.178 76.95 129.058 75.6067 126.198 76.235Z" fill="#0E0550"/>
</g>
</g>
</g>
</g>
</g>
</svg>
