<svg width="150" height="150" viewBox="0 0 150 150" fill="none" xmlns="http://www.w3.org/2000/svg">
<g id="Bank Logos/unionbank">
<g id="unionbank">
<g id="Group 4182">
<path id="Vector" d="M122.867 87.2635C122.347 86.8519 121.697 86.3319 121.697 86.3319C121.697 86.3319 122.455 85.2702 122.802 84.7285C132.725 69.9735 127.243 50.4085 111.037 43.9519C98.8383 39.0985 74.0733 30.3885 74.0733 30.3885L72.1883 29.7602C72.1883 29.7602 72.21 46.0319 72.21 53.2252C72.1883 67.4602 72.2317 81.7169 72.145 95.9519C72.1017 103.47 65.2983 109.255 58.1267 108.064C52.4933 107.132 47.9867 101.78 47.8133 95.6052C47.705 91.9219 47.77 88.2385 47.77 84.5552C47.77 63.9935 47.77 20.7685 47.77 20.7685L46.3617 20.2702L20.0583 10.7369L18.0217 10.0002C18.0217 10.0002 18 37.2135 18.0217 49.7369C18.0217 66.3119 17.935 82.8869 18.1083 99.4619C18.195 107.457 20.34 114.954 24.9767 121.627C26.645 123.729 28.2917 125.852 30.1983 127.759C31.585 129.145 33.1883 130.25 34.5317 131.68C34.8783 131.919 35.225 132.135 35.5717 132.374C41.8117 136.707 48.7017 139.307 56.285 139.61C72.925 140.282 86.9 129.687 91.0817 113.567C92.4467 108.324 92.555 103.015 92.4683 97.6636C92.4683 97.0569 92.4467 96.2769 92.4467 95.8652C93.0533 95.8869 93.4217 95.9086 94.0933 95.9519C98.3833 96.1902 102.673 96.2552 106.963 96.5152C111.535 96.7969 114.807 100.112 115.153 104.662C115.457 108.8 112.64 112.527 108.372 113.502C105.858 114.087 103.258 114.109 100.702 114.26C100.03 114.304 99.835 114.282 99.055 114.26C97.5167 122.624 93.66 129.21 89.435 133.825C92.4033 133.414 95.3933 133.045 98.2533 132.612C103.107 131.854 109.477 131.182 114.85 129.427C123.798 126.502 129.93 120.522 131.685 111.14C133.505 101.607 130.667 93.3952 122.867 87.2635ZM109 74.6969C107.072 77.4702 104.255 78.5102 101.005 78.2935C98.6217 78.1419 92.4683 77.3402 92.4683 77.3402C92.4683 77.3402 92.49 70.6669 92.49 67.6335C92.49 64.6002 92.5117 62.0652 92.4683 59.2919C92.4683 58.7719 92.4683 58.1002 92.4467 57.8402C92.8583 57.9485 93.27 58.0135 93.855 58.1869C97.235 59.0752 100.658 59.7685 103.995 60.8302C109.91 62.6719 112.423 69.7569 109 74.6969Z" fill="#FE9600"/>
</g>
</g>
</g>
</svg>
